<svg version="1.1" xmlns="http://www.w3.org/2000/svg" xmlns:xlink="http://www.w3.org/1999/xlink" width="50.99789" height="52.45947" viewBox="0,0,50.99789,52.45947"><g transform="translate(-213.97157,-148.01468)"><g fill="#ffff00" stroke="none" stroke-width="0.5" stroke-miterlimit="10"><path d="M235.81531,170.53185c-0.26921,-0.79783 -0.53968,-1.59493 -0.81214,-2.39094c-0.13667,-0.39928 -0.36992,-1.12033 -0.56481,-1.9379c-0.28033,0.59337 -0.67689,1.15043 -1.20293,1.65731c-0.02201,0.02121 -0.04411,0.04235 -0.0663,0.06341c-1.49817,2.20486 -2.77686,4.57444 -2.45759,6.58817c0.18386,1.15972 1.94231,1.34882 2.75111,2.20006c0.03455,0.03636 0.06914,0.07283 0.10375,0.10939c0.56462,-1.5951 1.24953,-3.21818 1.35516,-4.42042l0.06914,-0.77955c0,0 0.07681,-0.86608 0.82464,-1.08953zM240.23973,175.3957c1.96786,-0.53371 3.95162,-0.98108 5.87844,-1.70483c0.32642,-0.1226 1.19083,-0.42764 1.73819,-0.91465c0.11204,-0.49707 0.24652,-0.98976 0.40541,-1.47704c-0.11577,-0.61087 -0.35432,-1.27933 -0.66159,-1.96897c-0.03113,0.05712 -0.06598,0.10131 -0.10489,0.13065c-2.76743,2.08737 -7.60669,-1.15123 -10.70332,-3.42482c0.68059,2.61894 2.00205,5.30552 2.90202,7.80075c0.18686,0.51808 0.36831,1.03786 0.54575,1.5589zM237.04632,163.03439c0.4342,0.31916 0.84301,0.68226 1.29458,0.97494c1.18054,0.76515 5.80868,4.37447 7.35825,3.71259c0.23302,-0.09953 -0.32614,-0.41557 -0.36721,-0.66561c-0.12076,-0.73522 -0.16534,-1.47921 -0.19859,-2.22468c-0.22526,-0.3928 -0.429,-0.76041 -0.59638,-1.09287c-0.49788,-0.98884 -1.66719,-2.9066 -1.65256,-4.20455c0.00528,-0.46935 0.63592,-0.86117 0.5088,-1.313c-0.07696,-0.27354 -0.56234,0.08219 -0.84351,0.12329c-0.45899,-0.06577 -2.78663,-0.57118 -3.56282,-0.21044c-0.73382,0.34105 -1.20779,1.03508 -1.67399,1.73302c0.17412,0.23663 0.266,0.53525 0.23801,0.85089c-0.00421,0.04752 -0.01103,0.09418 -0.02032,0.13986l-0.24201,1.27121l-0.01199,-0.00228c0.00042,0.0182 0.0007,0.03642 0.00084,0.05466c0.00091,0.11973 -0.10321,0.44779 -0.2311,0.85299zM229.65004,176.69058c0.00119,0.14075 -0.00117,0.2831 -0.00743,0.42732c0.46182,0.63994 0.89739,1.28948 1.27656,1.95456c0.43962,0.77111 1.46046,1.63492 1.0769,2.4354c-0.01014,0.02115 -0.02048,0.04198 -0.03103,0.06251l1.06392,-0.05691c-0.02537,-0.02528 -0.04974,-0.05293 -0.07305,-0.0831c-0.61953,-0.80149 -0.72602,-1.53119 -0.54156,-2.18615c-0.25617,-0.27395 -0.51118,-0.54409 -0.76408,-0.81025c-0.07988,-0.08407 -1.11232,-0.94558 -2.00023,-1.74338zM233.43334,182.11472c-0.01524,-0.02472 -0.03027,-0.04953 -0.0451,-0.07441l0.00431,0.08054zM237.37462,189.15399c0.01119,0.04415 0.02095,0.08609 0.02918,0.12566c0.18785,0.9024 0.68759,2.10924 0.03978,2.76495c-1.07436,1.08745 -6.68782,0.89544 -8.29728,1.08086c-2.00305,0.23076 -4.17055,2.76334 -5.93381,2.72561c-3.25396,-0.06964 -3.12841,-6.66509 -3.34049,-8.60825l0.01295,-0.04624l-0.01542,0.00055l-0.07477,-2.08215c-0.0029,-0.05754 -0.00186,-0.11597 0.00337,-0.17499c0.06099,-0.68766 0.66788,-1.19567 1.35554,-1.13468c0.50552,0.04483 0.91395,0.38468 1.07062,0.83476c0.02361,-0.2421 0.05479,-0.4849 0.15511,-0.64354c0.28441,-0.4498 0.76807,-0.74034 1.1054,-1.15194c0.40568,-0.495 0.80709,-0.97333 1.18792,-1.44776c-0.22749,-0.08542 -0.42996,-0.1579 -0.60065,-0.21014c-1.18207,-0.36655 -2.04509,-0.51796 -2.80535,-0.48596c-1.27431,0.69467 -2.46344,1.38103 -3.67948,2.13697l-1.3851,1.69815c-0.25258,0.31872 -0.65557,0.50817 -1.09093,0.46956c-0.68766,-0.06099 -1.19567,-0.66788 -1.13468,-1.35554c0.01369,-0.1544 0.05491,-0.29975 0.11838,-0.43163l1.0191,-2.25095l0.13851,0.06271l0.0693,-0.38136c1.04406,-0.65353 1.93073,-1.19178 2.76787,-1.59439c1.39895,-0.7809 3.21772,-1.22629 4.70724,-1.98872c0.81194,-0.4156 1.89065,-0.61952 2.50133,-1.25358c-1.9171,-2.42415 -3.66329,-5.07303 -2.46975,-8.03353c0.4984,-1.23625 1.43477,-2.26849 2.27882,-3.34041c-2.67389,1.02582 -5.34662,2.04706 -8.01552,3.08758l-0.7211,0.8982c-0.25215,0.32362 -0.65826,0.51663 -1.09731,0.47769c-0.68766,-0.06099 -1.19567,-0.66788 -1.13468,-1.35554c0.01238,-0.13959 0.04725,-0.27178 0.10073,-0.39331l0.82287,-1.99424l0.19907,0.08214c1.06989,-4.64486 3.58034,-7.32435 8.20666,-10.29861c1.13846,-0.73192 1.80496,-2.05532 2.9227,-2.81852c1.96937,-1.34469 4.89865,-1.98494 7.18454,-2.43365c3.80003,-0.74592 8.49258,-1.99054 12.38358,-1.60145c1.18997,0.11899 2.69017,-0.1331 3.51136,0.73629c0.59068,0.62536 -0.27277,1.69867 -0.40915,2.54801c-0.00041,0.00092 -0.00083,0.00183 -0.00124,0.00274c3.2545,0.85391 6.3271,2.47655 6.15475,5.06241c-0.07777,1.16674 -1.57839,1.83567 -1.86988,2.96808c-0.15785,0.61323 0.03597,1.27127 0.1539,1.89341c0.27087,1.42892 1.73834,2.62188 1.57871,4.06746c-0.14457,1.30914 -1.77606,1.94622 -2.62707,2.95147c-0.8139,0.96141 -1.39677,2.11317 -1.7988,3.35225c0.02207,0.81035 -0.13141,1.56357 -0.52668,2.2234c-0.2911,1.8173 -0.28821,3.68802 -0.12656,5.33439c0.127,1.35071 0.29039,2.68823 0.48406,4.01757c2.57435,0.93744 5.14897,1.87363 7.72877,2.79679c0.87235,0.31217 6.22878,1.75841 6.55343,2.66547c1.1689,3.26585 -2.94066,5.71612 -5.28321,5.49676c-0.19614,-0.01837 -4.52382,-2.05833 -4.87262,-2.22143c-0.94359,-0.44117 -1.86301,-0.89166 -2.76714,-1.35629c0.22951,1.05861 0.47125,2.11796 0.72203,3.18066c0.20165,0.85449 1.44148,5.15505 1.02773,5.73838c-0.67511,0.95184 -2.23296,0.73751 -3.3934,0.86073c-2.32679,0.24708 -5.26495,-0.25306 -7.65622,-0.4211c-0.81267,-0.05711 -1.95037,0.39123 -2.4293,-0.2678c-1.47777,-2.03346 1.03338,-4.30805 2.23175,-5.18954c0.0853,-0.06274 1.72722,-0.83182 2.97944,-1.41524c-0.58255,-0.11007 -1.16395,-0.29402 -1.74416,-0.5288l-0.71381,0.47873c-0.23052,0.15737 -0.5149,0.23889 -0.81462,0.2123c-0.54775,-0.04858 -0.98152,-0.44353 -1.10453,-0.94978c-0.21989,-0.09696 -0.40485,-0.25484 -0.53553,-0.45058c-0.1526,-0.22859 -0.23121,-0.50878 -0.20504,-0.80387l0.02234,-0.25185c-0.95459,-0.57269 -1.90581,-1.16282 -2.85358,-1.66534zM243.60172,188.92227c-0.03134,0.08458 -0.06256,0.1692 -0.09367,0.25387c0.49677,-0.14119 1.10194,-0.18864 0.82128,-0.38428c-0.21938,-0.15291 -0.46747,-0.03068 -0.7276,0.1304zM247.18033,185.09142c0.39164,0.24568 0.78384,0.48523 1.17679,0.71948c-0.04052,-0.23842 -0.08017,-0.47701 -0.11894,-0.7158c-0.57871,-0.21197 -1.15721,-0.42451 -1.73551,-0.63767c-0.00716,-0.00264 -0.01434,-0.00526 -0.02154,-0.00784c0.13615,0.12522 0.27226,0.2505 0.40834,0.37583c0.06436,0.05928 0.16413,0.15031 0.29087,0.26601zM238.30121,182.32238c0.35912,0.46406 0.71025,0.93168 1.05064,1.40087c0.41678,0.25428 0.8243,0.51442 1.20185,0.79346c-0.09812,-0.27824 -0.19588,-0.55665 -0.29328,-0.83523c-0.29664,-0.18733 -0.59327,-0.3747 -0.88986,-0.56211c-0.36572,-0.2311 -0.71592,-0.51742 -1.06936,-0.79699zM247.82546,182.27837c-0.12138,-0.93358 -0.22744,-1.87177 -0.31623,-2.81614c-0.10335,-1.14377 -0.1386,-2.28837 -0.08427,-3.42247c-1.87527,0.86626 -4.23505,1.30998 -6.38131,1.79412c0.2311,0.71921 0.45872,1.4395 0.6865,2.15976c0.15249,-0.57801 0.70333,-0.97936 1.31889,-0.92476c0.63781,0.05657 1.12107,0.58276 1.13913,1.20743l0.05132,1.16311c0.19604,-0.09018 0.42601,-0.27358 0.61763,-0.2352c0.87056,0.17444 1.67055,0.60206 2.50494,0.90553c0.15447,0.05619 0.30894,0.11238 0.46341,0.16859zM245.00423,156.43017c0.13151,-1.04864 0.34664,-2.0842 0.66515,-3.14666c-0.83532,-0.16145 -1.69112,-0.22813 -2.58478,-0.13732c0,0 -1.24479,0.11409 -1.35886,-1.1307c-0.05641,-0.61551 0.21942,-0.95456 0.51272,-1.14006c-0.36524,0.0542 -0.66338,0.09828 -0.84671,0.12339c-3.1922,0.43729 -6.56601,0.70051 -9.67271,1.5944c-3.20584,0.92242 -4.25583,2.70896 -6.89891,4.45157c-2.25645,1.4877 -3.93806,2.59187 -5.77532,4.58067c-0.88018,0.95279 -0.99552,2.02691 -1.28576,2.97018c2.93296,-1.21145 5.91495,-2.2819 8.8816,-3.42537c0.04989,-0.01899 0.12415,-0.05137 0.21911,-0.09515c0.18396,-0.50642 0.35979,-0.94499 0.48518,-1.06783c0.62676,-0.61406 1.44935,-1.15965 2.32334,-1.23738c0.18191,-0.01617 0.58758,0.11012 1.10491,0.32647c1.19259,-0.61333 2.18128,-1.12003 2.2116,-1.10927c0.71064,0.25199 1.00722,1.00819 1.21686,1.82398c0.04581,-0.06274 0.09171,-0.12601 0.13772,-0.18972l-0.10645,-0.09907l0.78678,-0.8454c0.85015,-1.16399 1.77478,-2.30003 2.91119,-2.8089c1.58143,-0.70814 3.52602,-0.19107 5.0964,0.02253c0.61271,0.23766 1.4106,0.24406 1.97694,0.53963zM231.92838,162.34987c-0.28823,-0.15936 -0.56417,-0.34135 -0.8522,-0.51229c-0.69323,0.60528 -1.52792,0.9403 -2.38065,1.24622c-0.15668,0.48711 -0.27086,0.89851 -0.30726,0.9642c-0.73558,1.32696 -3.91471,4.26814 -3.73537,6.04257c0.03425,0.33887 0.14724,0.65065 0.3086,0.94542c0.12276,-0.32921 0.27885,-0.65096 0.42352,-0.96381c1.50422,-3.25273 4.08601,-5.33771 6.54336,-7.72231zM227.3751,182.36608c-1.07004,1.35526 -2.33132,2.64539 -3.1891,3.35854c-0.60422,0.50234 -1.15222,1.16847 -1.78788,1.63543c0.10857,0.99275 0.41495,3.79071 0.45881,4.0203c0.12955,0.6781 -0.01867,2.2911 0.59891,1.98259c1.35552,-0.67714 2.37267,-1.97794 3.79337,-2.50477c2.63363,-0.97662 5.64824,-0.10983 8.24267,-0.37589c0.20787,-0.02132 -0.34796,-0.24809 -0.46322,-0.42238c-0.29462,-0.44557 -0.50412,-0.94193 -0.75184,-1.41518c-0.11824,-0.22591 -0.23231,-0.44559 -0.34351,-0.65987c-0.87296,-0.00575 -1.80638,0.13247 -2.32877,-0.47806c-1.14555,-1.33881 -0.61705,-2.35192 0.10096,-3.18876l-0.67681,-0.35516c-0.44801,-0.22215 -0.73678,-0.70264 -0.68994,-1.23075c0.00057,-0.00641 0.00119,-0.01282 0.00185,-0.01919c-0.87736,0.15251 -1.94061,-0.04426 -2.96551,-0.34684zM248.10152,153.97881c-0.94485,3.32245 -0.72238,6.30572 -0.44514,10.10427c0.72338,1.25248 1.48255,2.61192 2.05585,3.9569c0.26815,-0.50741 0.55904,-1.00097 0.92291,-1.44087c0.50393,-0.60923 2.02248,-0.57022 1.94535,-1.3571c-0.12571,-1.28239 -1.36561,-2.26614 -1.54941,-3.54151c-0.14752,-1.02368 -0.29574,-2.09715 -0.05226,-3.10234c0.23792,-0.98221 1.44893,-1.509 1.75532,-2.47206c0.32468,-1.02054 -1.04833,-0.86756 -1.5848,-1.04322c-1.03323,-0.33831 -2.038,-0.74657 -3.04781,-1.10409zM249.37873,191.06557c-0.48305,0.1989 -1.02931,0.35318 -1.58508,0.47674l1.27843,0.55596c0.31767,0.1294 0.56649,0.38443 0.69083,0.69861c-0.13133,-0.57753 -0.25955,-1.15451 -0.38418,-1.73133zM243.78197,196.57356c-0.24021,0.15844 -0.55711,0.50391 -0.85973,0.83728c0.4873,-0.02197 0.98474,0.07239 1.03389,0.07352c2.0584,0.04745 4.14579,0.17562 6.18958,0.42304c0.46202,0.05594 1.14832,0.64203 1.37608,0.23616c0.24887,-0.44351 -0.5928,-0.8406 -0.76923,-1.31758c-0.29165,-0.78846 -0.42909,-1.62585 -0.62217,-2.44405c-0.0959,-0.40634 -0.19047,-0.81224 -0.28357,-1.21782c0.00482,0.06635 0.00437,0.13397 -0.0017,0.20238c-0.04864,0.54839 -0.44446,0.98254 -0.95155,1.10496l-1.36625,0.3639c-1.24632,0.58441 -2.59644,0.98037 -3.74537,1.7382zM237.79154,185.73202c-1.15846,-0.59822 -2.24879,-1.30654 -3.12359,-2.13135c0.3999,0.58868 0.85159,1.37678 1.27235,2.19093c0.59915,0.20181 1.16521,0.52346 1.75066,0.77386c0.09076,-0.1719 0.22007,-0.31908 0.37545,-0.43108c-0.09059,-0.1346 -0.18223,-0.26873 -0.27486,-0.40236zM228.5805,171.61666c0.18514,-0.60123 0.42972,-1.20092 0.71575,-1.79548c-0.60247,0.05626 -1.08739,0.16607 -0.99191,0.63211c0.08234,0.40191 0.1766,0.78809 0.27617,1.16336zM243.91999,150.62905c0.7617,0.01443 1.66939,0.09093 2.63449,0.23514c0.06246,-0.14557 0.12691,-0.29208 0.19337,-0.43964c0.69234,-0.26766 -1.09868,-0.04226 -2.82786,0.2045zM250.94092,186.08076c0.07839,0.4427 0.15969,0.88487 0.24369,1.32672c2.20182,1.18213 4.44041,2.26004 6.74761,3.37007c1.70943,0.82243 2.63613,1.68978 3.56693,0.09059c0.25215,-0.43321 1.01138,-0.63619 0.98442,-1.13671c-0.01876,-0.34826 -0.69567,0.18439 -1.03901,0.12312c-1.42048,-0.2535 -2.71722,-0.972 -4.07577,-1.45815c-2.14438,-0.76734 -4.28728,-1.53826 -6.42787,-2.31565zM248.3358,188.89618c-0.56383,-0.26427 -1.11237,-0.57764 -1.64803,-0.92855c0.13793,0.38251 0.21608,0.71891 0.2443,1.0149c0.39178,-0.06308 0.78548,-0.11237 1.18101,-0.13654c0.05378,-0.00328 0.13836,0.01983 0.22273,0.05019zM246.16788,187.61285c-0.38643,-0.27409 -0.76636,-0.56629 -1.14074,-0.87207l-0.3809,0.44432c0.60921,0.15861 1.15677,0.30962 1.52164,0.42776zM226.73714,177.60478c-0.58904,0.42815 -1.31158,0.86324 -1.90621,1.19968c0.458,0.14003 0.91675,0.27768 1.37491,0.4172c0.26604,-0.46593 0.49138,-0.94569 0.66215,-1.45013c-0.04329,-0.05547 -0.08692,-0.11105 -0.13086,-0.16675z"/></g></g></svg>