<svg version="1.1" xmlns="http://www.w3.org/2000/svg" xmlns:xlink="http://www.w3.org/1999/xlink" width="52.31619" height="52.61448" viewBox="0,0,52.31619,52.61448"><g transform="translate(-213.8419,-147.43189)"><g fill="#ffff00" stroke="none" stroke-width="0.5" stroke-miterlimit="10"><path d="M237.17491,178.19078c-0.77093,0.33864 -1.54102,0.67847 -2.30984,1.02019c-0.38564,0.17141 -1.08327,0.46745 -1.88043,0.7338c0.61581,0.22681 1.20573,0.57261 1.7571,1.05182c0.02307,0.02005 0.04608,0.0402 0.06902,0.06044c2.32859,1.29753 4.80187,2.36188 6.77952,1.86597c1.13894,-0.28559 1.17196,-2.05387 1.94842,-2.93471c0.03317,-0.03763 0.06644,-0.0753 0.0998,-0.11301c-1.63874,-0.4215 -3.31598,-0.96034 -4.52286,-0.95935h-0.78261c0,0 -0.86948,0 -1.15812,-0.72516zM241.62888,173.35398c-0.70547,-1.91302 -1.32634,-3.8495 -2.21748,-5.70485c-0.15096,-0.31431 -0.53117,-1.1484 -1.06463,-1.65059c-0.50502,-0.06769 -1.00767,-0.15812 -1.50708,-0.27334c-0.59825,0.16928 -1.24303,0.46595 -1.90282,0.83295c0.05965,0.02596 0.10674,0.05677 0.13941,0.09294c2.32369,2.57221 -0.47473,7.67865 -2.46587,10.96403c2.54858,-0.90929 5.10791,-2.46293 7.51388,-3.57981c0.49955,-0.2319 1.00126,-0.45856 1.50459,-0.68133zM229.59802,177.62693c0.27955,-0.4607 0.60512,-0.89999 0.85676,-1.37565c0.65787,-1.24352 3.84421,-6.17242 3.04803,-7.65746c-0.11973,-0.22332 -0.38513,0.36158 -0.63057,0.42458c-0.72168,0.18524 -1.45882,0.29537 -2.19844,0.39435c-0.37136,0.25908 -0.71954,0.4945 -1.03591,0.6906c-0.94099,0.58329 -2.74795,1.91745 -4.04212,2.01754c-0.46798,0.0362 -0.91398,-0.55736 -1.35282,-0.39082c-0.26567,0.10082 0.13155,0.55288 0.19733,0.82932c-0.02496,0.46301 -0.32277,2.82619 0.10513,3.56748c0.40454,0.70082 1.13773,1.11163 1.87413,1.51435c0.22032,-0.19434 0.50966,-0.31225 0.82654,-0.31225c0.04771,0 0.09479,0.00267 0.14111,0.00788l1.28762,0.12876l-0.00121,0.01214c0.01809,-0.00203 0.03622,-0.00392 0.05437,-0.00567c0.11918,-0.01148 0.45516,0.06325 0.87007,0.15484zM243.85422,183.78787c0.14009,-0.01362 0.2821,-0.02384 0.42631,-0.03035c0.59664,-0.51655 1.20516,-1.0078 1.83414,-1.44424c0.72926,-0.50602 1.49951,-1.59918 2.33074,-1.28784c0.02196,0.00823 0.04363,0.01669 0.06501,0.02539l-0.15068,-1.05473c-0.02294,0.0275 -0.04833,0.05422 -0.07632,0.08011c-0.74363,0.68791 -1.46106,0.85845 -2.12976,0.73257c-0.25025,0.27937 -0.4968,0.55725 -0.73958,0.83267c-0.07668,0.08699 -0.84362,1.19151 -1.55986,2.14642zM248.92292,179.54018c-0.02328,0.01736 -0.04666,0.03453 -0.07013,0.0515l0.07984,-0.01141zM255.58649,174.99244c0.04299,-0.01505 0.0839,-0.02847 0.12259,-0.04017c0.88228,-0.26684 2.04025,-0.87124 2.75062,-0.28389c1.17811,0.97409 1.48276,6.58257 1.80964,8.16935c0.40681,1.97483 3.12097,3.91012 3.23916,5.66982c0.2181,3.24739 -6.36266,3.70499 -8.27949,4.0879l-0.0472,-0.00881l0.00191,0.01531l-2.0674,0.25842c-0.05706,0.00797 -0.11535,0.0121 -0.1746,0.0121c-0.69036,0 -1.25,-0.55964 -1.25,-1.25c0,-0.5075 0.30244,-0.94436 0.73691,-1.14018c-0.24324,-0.00213 -0.48784,-0.01174 -0.65473,-0.09765c-0.47317,-0.24356 -0.8053,-0.69966 -1.24509,-0.99931c-0.5289,-0.36036 -1.04083,-0.71795 -1.54704,-1.05538c-0.06499,0.23415 -0.1193,0.44223 -0.15625,0.61687c-0.26069,1.20983 -0.33527,2.08285 -0.23623,2.83731c0.80453,1.20796 1.59326,2.3318 2.45367,3.47631l1.81387,1.22967c0.33979,0.22344 0.5641,0.60811 0.5641,1.04518c0,0.69036 -0.55964,1.25 -1.25,1.25c-0.15501,0 -0.30343,-0.02821 -0.4404,-0.07979l-2.33218,-0.81626l0.05023,-0.14351l-0.38599,-0.03534c-0.74321,-0.98224 -1.35769,-1.8179 -1.83268,-2.6162c-0.90143,-1.32449 -1.50576,-3.09681 -2.39679,-4.51315c-0.4857,-0.77205 -0.78412,-1.82853 -1.46965,-2.38081c-2.24531,2.12376 -4.72957,4.09713 -7.78394,3.1698c-1.27545,-0.38724 -2.38637,-1.22876 -3.52867,-1.97481c1.25803,2.57281 2.51139,5.14487 3.78362,7.71142l0.95839,0.63893c0.34463,0.22257 0.57276,0.61005 0.57276,1.05082c0,0.69036 -0.55964,1.25 -1.25,1.25c-0.14014,0 -0.27489,-0.02306 -0.40067,-0.06559l-2.05914,-0.64348l0.06423,-0.20555c-4.72122,-0.65537 -7.61201,-2.91929 -10.98334,-7.26477c-0.82963,-1.06935 -2.20674,-1.61633 -3.0657,-2.66228c-1.51341,-1.84288 -2.40994,-4.70414 -3.05884,-6.94145c-1.07871,-3.71928 -2.73301,-8.28353 -2.68919,-12.19369c0.0134,-1.19583 -0.37024,-2.66789 0.42321,-3.56268c0.57073,-0.64362 1.71613,0.12164 2.57419,0.18245c0.00095,0.00033 0.0019,0.00066 0.00284,0.00099c0.56306,-3.31721 1.90791,-6.52115 4.49889,-6.57791c1.16905,-0.02561 1.96793,1.41005 3.12167,1.60036c0.62478,0.10306 1.26312,-0.14814 1.87241,-0.32057c1.3994,-0.39605 2.45806,-1.96317 3.91209,-1.93187c1.31679,0.02835 2.09551,1.59718 3.17201,2.35606c1.02955,0.72578 2.2283,1.20463 3.49805,1.49562c0.80523,-0.09357 1.56907,-0.00723 2.26124,0.3282c1.83591,0.12942 3.69906,-0.03873 5.32471,-0.34519c1.33421,-0.24583 2.65207,-0.52674 3.9591,-0.83709c0.70635,-2.6471 1.41143,-5.29436 2.10307,-7.94563c0.23388,-0.89652 1.20127,-6.35977 2.0761,-6.76328c3.14982,-1.45284 5.95356,2.42419 5.942,4.77696c-0.00097,0.197 -1.65064,4.68797 -1.78228,5.04982c-0.35609,0.97888 -0.72359,1.9345 -1.10653,2.87614c1.0342,-0.32213 2.06805,-0.65651 3.10444,-1.00019c0.83333,-0.27635 5.00755,-1.89125 5.62515,-1.53066c1.00776,0.58838 0.93189,2.15908 1.15715,3.30409c0.45167,2.29586 0.21305,5.26672 0.25692,7.66349c0.01491,0.81454 0.562,1.90818 -0.05214,2.44346c-1.89496,1.65163 -4.3825,-0.64875 -5.36641,-1.76457c-0.07003,-0.07942 -0.98115,-1.64698 -1.67292,-2.84276c-0.05818,0.59 -0.19004,1.18537 -0.37265,1.78406l0.53992,0.66873c0.17712,0.21572 0.28344,0.49178 0.28344,0.79268c0,0.5499 -0.35509,1.01687 -0.84849,1.18412c-0.07715,0.2276 -0.21808,0.42578 -0.40151,0.57324c-0.21421,0.1722 -0.48637,0.27525 -0.78261,0.27525h-0.25284c-0.48612,1.00145 -0.98991,2.00109 -1.40674,2.98954zM254.80556,168.81016c0.08702,0.02375 0.17407,0.04737 0.26115,0.07088c-0.18452,-0.48235 -0.28525,-1.08097 -0.45533,-0.78412c-0.13293,0.23203 0.01074,0.46835 0.19417,0.71324zM250.67354,165.58397c0.21012,-0.41181 0.41409,-0.82364 0.61271,-1.23575c-0.23391,0.06142 -0.46806,0.122 -0.70249,0.18171c-0.16002,0.59517 -0.32062,1.19019 -0.48186,1.78506c-0.002,0.00737 -0.00397,0.01475 -0.00591,0.02215c0.1127,-0.14668 0.22547,-0.29333 0.33829,-0.43995c0.05336,-0.06935 0.13522,-0.17677 0.23927,-0.31323zM248.69973,174.673c0.43052,-0.39871 0.86529,-0.78978 1.30258,-1.17029c0.21647,-0.43761 0.43959,-0.86652 0.68418,-1.26725c-0.26848,0.12232 -0.53717,0.24429 -0.80606,0.36592c-0.16039,0.31203 -0.32082,0.62405 -0.4813,0.93604c-0.19789,0.38471 -0.45215,0.75883 -0.6994,1.13559zM247.8145,165.18987c-0.91921,0.20338 -1.84436,0.39191 -2.77719,0.56378c-1.13017,0.20399 -2.26718,0.34022 -3.40164,0.38629c1.02854,1.79141 1.67899,4.10276 2.35085,6.19786c0.69598,-0.29373 1.39335,-0.5841 2.09067,-0.87461c-0.58922,-0.10083 -1.03766,-0.61406 -1.03766,-1.23204c0,-0.64031 0.48144,-1.16817 1.10208,-1.24134l1.15403,-0.15387c-0.10715,-0.18731 -0.31015,-0.40018 -0.28884,-0.59444c0.09685,-0.88257 0.45212,-1.71721 0.6807,-2.57514c0.04232,-0.15883 0.08465,-0.31766 0.12699,-0.47649zM222.31659,170.28357c-1.05616,-0.03836 -2.10667,-0.16116 -3.19312,-0.38457c-0.08702,0.84632 -0.07784,1.70466 0.09156,2.58681c0,0 0.22361,1.22984 -1.00623,1.45344c-0.60812,0.11057 -0.97021,-0.13423 -1.1809,-0.41c0.08625,0.35902 0.1565,0.6521 0.19771,0.8325c0.71759,3.14109 1.27783,6.47845 2.44268,9.49404c1.20203,3.11182 3.07434,3.99987 5.04363,6.47867c1.68122,2.1162 2.92963,3.69369 5.07297,5.34807c1.02682,0.79257 2.10693,0.81257 3.07215,1.01834c-1.46582,-2.81447 -2.79552,-5.69023 -4.1966,-8.54427c-0.02332,-0.04802 -0.06214,-0.11913 -0.11413,-0.20985c-0.52069,-0.1385 -0.97308,-0.2749 -1.10652,-0.38895c-0.66703,-0.57006 -1.28316,-1.34124 -1.43779,-2.20494c-0.03218,-0.17977 0.05778,-0.59501 0.22758,-1.12943c-0.71629,-1.13374 -1.30835,-2.07381 -1.30031,-2.10496c0.18823,-0.73012 0.91527,-1.09235 1.70935,-1.37324c-0.06654,-0.04009 -0.13362,-0.08022 -0.20114,-0.12042l-0.08928,0.11479l-0.9116,-0.70902c-1.23454,-0.744 -2.44783,-1.56465 -3.0551,-2.65166c-0.84508,-1.51269 -0.50182,-3.49535 -0.42779,-5.07846c0.1826,-0.63131 0.11849,-1.42665 0.36287,-2.01688zM229.3683,182.78533c-0.13327,0.30118 -0.29018,0.59212 -0.435,0.89412c0.66416,0.63705 1.0716,1.43888 1.45166,2.26125c0.49905,0.11303 0.91893,0.19042 0.98757,0.22088c1.38676,0.61548 4.59729,3.52235 6.34894,3.18695c0.33452,-0.06405 0.6351,-0.20414 0.91446,-0.39091c-0.33877,-0.0932 -0.67305,-0.22025 -0.99746,-0.33672c-3.3729,-1.21098 -5.67781,-3.59849 -8.27017,-5.83557zM249.7085,185.55253c1.44449,0.94613 2.841,2.0885 3.62714,2.87993c0.55375,0.55748 1.26569,1.04449 1.78698,1.63641c0.97928,-0.19585 3.73923,-0.74821 3.96405,-0.81218c0.664,-0.18895 2.28379,-0.1838 1.92193,-0.77172c-0.79424,-1.2904 -2.17981,-2.18866 -2.83009,-3.55726c-1.20546,-2.53706 -0.60838,-5.61645 -1.1026,-8.17724c-0.0396,-0.20517 -0.21638,0.36852 -0.37981,0.49872c-0.4178,0.33283 -0.89371,0.58536 -1.34323,0.87392c-0.21458,0.13774 -0.42332,0.27077 -0.62694,0.40046c0.07139,0.87005 0.29153,1.78761 -0.27046,2.3619c-1.23237,1.25934 -2.28821,0.82241 -3.18521,0.18114l-0.29398,0.70554c-0.1817,0.46588 -0.6348,0.79597 -1.16499,0.79597c-0.00644,0 -0.01287,-0.00005 -0.01928,-0.00015c0.22942,0.86046 0.12735,1.93693 -0.0835,2.98456zM219.6012,167.41495c3.39293,0.64764 6.34488,0.16249 10.10409,-0.44924c1.18368,-0.8312 2.47074,-1.7075 3.75981,-2.39737c-0.52912,-0.22228 -1.04644,-0.46843 -1.51677,-0.79201c-0.65137,-0.44814 -0.74666,-1.9642 -1.52365,-1.81785c-1.26627,0.23851 -2.13664,1.56047 -3.39078,1.85622c-1.00665,0.23738 -2.06282,0.47985 -3.08559,0.32612c-0.99939,-0.15022 -1.6311,-1.30996 -2.61746,-1.53007c-1.04523,-0.23325 -0.77156,1.12087 -0.89914,1.67076c-0.24571,1.05908 -0.56361,2.09599 -0.83052,3.13343zM256.43012,162.86639c0.2408,0.46359 0.44273,0.99408 0.61491,1.53677l0.44085,-1.32255c0.10083,-0.32786 0.33288,-0.59824 0.63485,-0.74985c-0.56367,0.18184 -1.12707,0.36053 -1.69062,0.53563zM262.41101,167.95468c0.17904,0.22527 0.55116,0.51041 0.90996,0.7824c-0.06493,-0.48345 -0.01489,-0.98728 -0.0181,-1.03634c-0.13458,-2.05454 -0.19132,-4.14509 -0.12542,-6.20275c0.0149,-0.46516 0.53807,-1.20055 0.11367,-1.39156c-0.46376,-0.20872 -0.78494,0.66474 -1.24447,0.88262c-0.75961,0.36016 -1.58159,0.57104 -2.37953,0.83565c-0.39628,0.13142 -0.79224,0.26148 -1.18801,0.39005c0.06567,-0.01066 0.13306,-0.01619 0.20174,-0.01619c0.55054,0 1.01796,0.35592 1.1847,0.85021l0.48318,1.32876c0.69223,1.18982 1.20591,2.49968 2.06228,3.57717zM252.14107,174.87946c-0.49354,1.20678 -1.10277,2.35542 -1.84707,3.29967c0.55105,-0.45034 1.29617,-0.96989 2.06996,-1.46093c0.14809,-0.61464 0.41848,-1.2069 0.61618,-1.81218c-0.17925,-0.07522 -0.33727,-0.19102 -0.46256,-0.3359c-0.12607,0.10213 -0.25158,0.20526 -0.37651,0.30933zM238.89462,185.30147c-0.61523,-0.1313 -1.23419,-0.32195 -1.85169,-0.55433c0.10926,0.59514 0.26148,1.06847 0.71727,0.93219c0.39306,-0.11752 0.76941,-0.24553 1.13441,-0.37786zM216.63394,171.87606c-0.05292,-0.76 -0.0569,-1.6709 0.00148,-2.64496c-0.15052,-0.04936 -0.30215,-0.10061 -0.455,-0.15378c-0.32778,-0.66599 0.05497,1.09812 0.45352,2.79874zM251.32679,161.75068c0.43404,-0.11719 0.8673,-0.23724 1.3,-0.35994c0.98299,-2.29764 1.85893,-4.62271 2.76079,-7.01895c0.6682,-1.7754 1.45029,-2.7751 -0.22488,-3.56099c-0.45379,-0.21289 -0.72305,-0.95122 -1.21923,-0.88015c-0.34524,0.04945 0.24513,0.67666 0.21443,1.02407c-0.12702,1.43732 -0.72815,2.79246 -1.09238,4.18865c-0.5749,2.20378 -1.1535,4.40641 -1.73874,6.60731zM254.36135,164.09689c-0.21343,0.58497 -0.47711,1.15905 -0.77933,1.72362c0.36883,-0.17118 0.69701,-0.27875 0.98935,-0.333c-0.09744,-0.38468 -0.18132,-0.77248 -0.24034,-1.16433c-0.00802,-0.05328 0.00753,-0.13957 0.03032,-0.22629zM253.27455,166.36971c-0.23888,0.40913 -0.49637,0.81339 -0.76788,1.21332l0.47623,0.34016c0.10417,-0.62084 0.20622,-1.1796 0.29166,-1.55348zM245.02218,186.60862c0.47851,0.54891 0.97573,1.23019 1.36339,1.79277c0.09902,-0.46858 0.19561,-0.9377 0.29411,-1.40639c-0.48761,-0.22384 -0.9854,-0.40591 -1.50296,-0.53145c-0.05143,0.04802 -0.10294,0.09639 -0.15454,0.14508z"/></g></g></svg>