<svg version="1.1" xmlns="http://www.w3.org/2000/svg" xmlns:xlink="http://www.w3.org/1999/xlink" width="26.8967" height="26.30622" viewBox="0,0,26.8967,26.30622"><g transform="translate(-226.55165,-166.84689)"><g stroke="#ff0000" stroke-miterlimit="10"><g><path d="M227.05165,192.65311v-25.30622h25.8967v25.30622z" fill-opacity="0.38039" fill="#ffff80"/><path d="M227.05165,192.65311v-25.30622h25.8967v25.30622z" fill-opacity="0.25098" fill="#ff0000"/><g><path d="M229.83892,184.13798v-8.27597h5.04168v8.27597z" fill="#fcb1e3"/><path d="M234.8806,184.13798v-8.27597l5.04168,-4.7563v17.78857z" fill="#fcb1e3"/><g fill="none"><path d="M243.22493,177.10443c0.29921,1.22621 0.31188,2.53306 -0.0078,3.81805"/><path d="M245.2882,176.16637c0.57539,1.99642 0.55069,4.18322 -0.19951,6.27983"/><path d="M247.39944,175.2777c0.80741,2.59041 0.7828,5.46068 -0.26106,8.19186c-0.08281,0.21665 -0.17097,0.42968 -0.26429,0.63899"/><path d="M249.45174,174.49365c0.99144,3.07846 0.9798,6.5028 -0.26469,9.75891c-0.16445,0.43027 -0.3469,0.84838 -0.54617,1.25378"/></g></g></g></g></g></svg>