<svg version="1.1" xmlns="http://www.w3.org/2000/svg" xmlns:xlink="http://www.w3.org/1999/xlink" width="48" height="24" viewBox="0,0,48,24"><g transform="translate(-296,-168)"><g stroke-miterlimit="10"><path d="" fill="#ff0000" stroke="none" stroke-width="0.5"/><g fill="#f30000" stroke="#ff0000" stroke-width="0"><path d="M296,180c0,-6.62741 5.37259,-12 12,-12c6.62741,0 12,5.37259 12,12c0,6.62741 -5.37259,12 -12,12c-6.62741,0 -12,-5.37259 -12,-12z"/><path d="M320,180c0,-6.62741 5.37259,-12 12,-12c6.62741,0 12,5.37259 12,12c0,6.62741 -5.37259,12 -12,12c-6.62741,0 -12,-5.37259 -12,-12z"/><path d="M308,192v-24h24v24z"/></g><path d="M320.68393,180c0,-6.2497 5.06638,-11.31607 11.31607,-11.31607c6.2497,0 11.31607,5.06638 11.31607,11.31607c0,6.2497 -5.06638,11.31607 -11.31607,11.31607c-6.2497,0 -11.31607,-5.06638 -11.31607,-11.31607z" fill="#f2f2f2" stroke="#ff0000" stroke-width="0"/></g></g></svg>