<svg version="1.1" xmlns="http://www.w3.org/2000/svg" xmlns:xlink="http://www.w3.org/1999/xlink" width="481" height="219.60647" viewBox="0,0,481,219.60647"><g transform="translate(0.5,-79.81226)"><g stroke-miterlimit="10"><path d="M4.02899,121.31539v-20.77392h339.82993v20.77392z" fill="#fd85aa" stroke="#000000" stroke-width="0.1" stroke-linecap="butt"/><text transform="translate(139.97622,93.34652) scale(0.31446,0.31446)" font-size="40" xml:space="preserve" fill="#ff0000" stroke="none" stroke-width="1" stroke-linecap="butt" font-family="Sans Serif" font-weight="normal" text-anchor="start"><tspan x="0" dy="0">score</tspan></text><path d="M327.79049,135.50515h-307" fill="none" stroke="#ff0000" stroke-width="3" stroke-linecap="round"/><path d="M459.97625,135.50515h-90" fill="none" stroke="#ff0000" stroke-width="3" stroke-linecap="round"/><text transform="translate(393.97624,93.34652) scale(0.31446,0.31446)" font-size="40" xml:space="preserve" fill="#ff0000" stroke="none" stroke-width="1" stroke-linecap="butt" font-family="Sans Serif" font-weight="normal" text-anchor="start"><tspan x="0" dy="0">at time</tspan></text><path d="M327.79049,158.95731h-307" fill="none" stroke="#ff0000" stroke-width="3" stroke-linecap="round"/><path d="M369.97625,158.95731h90" fill="none" stroke="#ff0000" stroke-width="3" stroke-linecap="round"/><path d="M327.79049,185.22373h-307" fill="none" stroke="#ff0000" stroke-width="3" stroke-linecap="round"/><path d="M369.97625,185.22373h90" fill="none" stroke="#ff0000" stroke-width="3" stroke-linecap="round"/><path d="M327.79049,207.7378h-307" fill="none" stroke="#ff0000" stroke-width="3" stroke-linecap="round"/><path d="M459.97625,207.7378h-90" fill="none" stroke="#ff0000" stroke-width="3" stroke-linecap="round"/><path d="M327.79049,231.18996h-307" fill="none" stroke="#ff0000" stroke-width="3" stroke-linecap="round"/><path d="M369.97625,231.18996h90" fill="none" stroke="#ff0000" stroke-width="3" stroke-linecap="round"/><path d="M327.79049,256.51829h-307" fill="none" stroke="#ff0000" stroke-width="3" stroke-linecap="round"/><path d="M459.97625,256.51829h-90" fill="none" stroke="#ff0000" stroke-width="3" stroke-linecap="round"/><path d="M20.7905,279.03236h307" fill="none" stroke="#ff0000" stroke-width="3" stroke-linecap="round"/><path d="M369.97625,279.03236h90" fill="none" stroke="#ff0000" stroke-width="3" stroke-linecap="round"/><path d="M348.06889,81.28699v216.16218" fill="none" stroke="#ff0000" stroke-width="1" stroke-linecap="round"/><path d="M0,98.15468h480" fill="none" stroke="#ff0000" stroke-width="1" stroke-linecap="round"/><path d="M0,298.91873h480" fill="none" stroke="#ff0000" stroke-width="1" stroke-linecap="round"/><path d="M0,81.201h480" fill="none" stroke="#ff0000" stroke-width="1" stroke-linecap="round"/><text transform="translate(66.20844,115.2367) scale(0.35902,0.35902)" font-size="40" xml:space="preserve" fill="#ff0000" stroke="none" stroke-width="1" stroke-linecap="butt" font-family="Sans Serif" font-weight="normal" text-anchor="start"><tspan x="0" dy="0">jouez pour afficher les score ici.</tspan></text><path d="M459.97625,111.32505h-90" fill="none" stroke="#ff0000" stroke-width="3" stroke-linecap="round"/></g></g></svg>