<svg version="1.1" xmlns="http://www.w3.org/2000/svg" xmlns:xlink="http://www.w3.org/1999/xlink" width="33.5831" height="41.80336" viewBox="0,0,33.5831,41.80336"><defs><linearGradient x1="349.32068" y1="265.17796" x2="349.32068" y2="275.12438" gradientUnits="userSpaceOnUse" id="color-1"><stop offset="0" stop-color="#ee2a7b"/><stop offset="1" stop-color="#811150"/></linearGradient></defs><g transform="translate(-302.69006,-150.32743)"><g stroke-miterlimit="10"><path d="M303.69006,191.13079v-39.80336h31.5831v39.80336z" fill="#fcb1e3" stroke="#ff0000" stroke-width="2"/><text transform="translate(307.45905,187.45992) scale(0.20722,0.20722)" font-size="40" xml:space="preserve" fill="#ff0000" stroke="#000000" stroke-width="1" font-family="Sans Serif" font-weight="400" text-anchor="start"><tspan x="0" dy="0">match</tspan></text><g><path d="M321.88439,171.06243v-9.94656h9.47292v9.94656z" fill="#ff0000" stroke="#000000" stroke-width="1"/><path d="M322.90904,167.19124c0,0 -5.04843,0.00214 -7.34126,0.00214c-0.6006,0 -1.08744,-0.48695 -1.08744,-1.08744c0,-0.6006 0.48684,-1.08735 1.08744,-1.08735c1.92228,0 7.33536,-0.00225 7.33536,-0.00225c0,0 -0.36341,-0.36777 -2.03994,-2.04419c-0.4247,-0.42472 -0.4247,-1.11316 0,-1.53777c0.42492,-0.42461 1.11327,-0.42472 1.53788,0c1.35942,1.35923 3.90131,3.9014 3.90131,3.9014c0.42461,0.42472 0.42461,1.11325 0,1.53777c0,0 -2.19358,2.19367 -3.87009,3.8702c-0.42492,0.42492 -1.11336,0.42492 -1.53788,0c-0.42472,-0.42463 -0.42472,-1.11327 0,-1.53758c1.35945,-1.35984 2.01462,-2.01493 2.01462,-2.01493z" fill="url(#color-1)" stroke="#ffffff" stroke-width="0.5"/><path d="M307.60591,171.22911v-9.94656h9.47291v9.94656z" fill="#ff0000" stroke="#000000" stroke-width="1"/></g></g></g></svg>