<svg version="1.1" xmlns="http://www.w3.org/2000/svg" xmlns:xlink="http://www.w3.org/1999/xlink" width="60.89814" height="58.0933" viewBox="0,0,60.89814,58.0933"><g transform="translate(-289.55093,-150.95335)"><g stroke-miterlimit="10"><path d="M291.82695,205.38464v-50.76923h58.07692v50.76923z" fill="#fcb1e3" fill-rule="nonzero" stroke="#ff0000" stroke-width="0" stroke-linecap="butt"/><g><g><path d="M321.68431,178.36817l-9.72302,-9.72302l-7.04345,7.04345l6.54582,6.54582h6.31614zM325.74196,176.9901c0.72732,0.76559 0.72732,1.99054 0,2.71786l-5.81851,5.78023c-0.34452,0.3828 -0.84214,0.57419 -1.33978,0.57419h-7.92388c-0.49764,0 -0.99527,-0.19139 -1.33979,-0.57419l-9.79959,-9.79959l-7.08174,-7.04345c-0.72732,-0.72732 -0.72732,-1.95227 0,-2.67958l9.76131,-9.7613c0.76559,-0.76559 1.99054,-0.76559 2.71786,0l7.04345,7.04345z" fill-opacity="0.66667" fill="#000000" fill-rule="evenodd" stroke="none" stroke-width="1" stroke-linecap="butt"/><path d="M290.55093,159.80203v-7.84868h7.97528" fill="none" fill-rule="nonzero" stroke-opacity="0.66667" stroke="#000000" stroke-width="2" stroke-linecap="round"/><path d="M298.52621,188.28514h-7.97528v-7.84868" fill="none" fill-rule="nonzero" stroke-opacity="0.66667" stroke="#000000" stroke-width="2" stroke-linecap="round"/><path d="M320.249,151.95335h7.97528v7.84868" fill="none" fill-rule="nonzero" stroke-opacity="0.66667" stroke="#000000" stroke-width="2" stroke-linecap="round"/></g><g><path d="M342.9091,198.12967l-9.72302,-9.72302l-7.04345,7.04345l6.54582,6.54582h6.31614zM346.96675,196.7516c0.72732,0.76559 0.72732,1.99054 0,2.71786l-5.81851,5.78023c-0.34452,0.3828 -0.84214,0.57419 -1.33978,0.57419h-7.92388c-0.49764,0 -0.99527,-0.19139 -1.33979,-0.57419l-9.79959,-9.79959l-7.08174,-7.04345c-0.72732,-0.72732 -0.72732,-1.95227 0,-2.67958l9.76131,-9.7613c0.76559,-0.76559 1.99054,-0.76559 2.71786,0l7.04345,7.04345z" fill="#000000" fill-rule="evenodd" stroke="none" stroke-width="1" stroke-linecap="butt"/><path d="M311.77572,179.56353v-7.84868h7.97528" fill="none" fill-rule="nonzero" stroke="#000000" stroke-width="2" stroke-linecap="round"/><path d="M319.751,208.04664h-7.97528v-7.84868" fill="none" fill-rule="nonzero" stroke="#000000" stroke-width="2" stroke-linecap="round"/><path d="M341.47379,171.71485h7.97528v7.84868" fill="none" fill-rule="nonzero" stroke="#000000" stroke-width="2" stroke-linecap="round"/><path d="M349.44907,200.19796v7.84869h-7.97528" fill="none" fill-rule="nonzero" stroke="#000000" stroke-width="2" stroke-linecap="round"/></g></g></g></g></svg>