<svg version="1.1" xmlns="http://www.w3.org/2000/svg" xmlns:xlink="http://www.w3.org/1999/xlink" width="113.53229" height="176.93997" viewBox="0,0,113.53229,176.93997"><g transform="translate(-310.06193,-113.5346)"><g stroke-miterlimit="10"><path d="M360.78227,289.47458v-99.65567h51.01421v99.65567z" fill="#fcb1e3" stroke="#ff0000" stroke-width="0" stroke-linecap="butt"/><text transform="translate(392.28937,283.30126) rotate(-90) scale(0.5,0.5)" font-size="40" xml:space="preserve" fill="#fcb1e3" stroke="none" stroke-width="1" stroke-linecap="butt" font-family="&quot;DS-DIGI1&quot;, Pixel" font-weight="normal" text-anchor="start"><tspan x="0" dy="0">ds-dijital</tspan></text><path d="M336.85046,180l-23.99133,-9.18386l24,-9.18717v18.34165z" fill="#ff0000" stroke="#ff0000" stroke-width="2" stroke-linecap="round"/><path d="M348.66223,289.47458v-116.20237l-10.26586,-0.04483v-3.74393h22.3859v119.99113z" fill="#ff0000" stroke="#ff0000" stroke-width="2" stroke-linecap="butt"/><path d="M366.6597,245.10177c0,13.93897 -2.29049,25.23875 -5.11596,25.23875c-2.82547,0 -5.11596,-11.29977 -5.11596,-25.23875c0,-13.93897 2.29049,-25.23875 5.11596,-25.23875c2.82547,0 5.11596,11.29977 5.11596,25.23875z" fill="#ff0000" stroke="#ff0000" stroke-width="2" stroke-linecap="butt"/><path d="M397.0144,270.68157l-33.08321,-33.08321" fill="none" stroke="#ff0000" stroke-width="2" stroke-linecap="round"/><path d="M395.99122,274.09223c0,-2.82547 2.29049,-5.11596 5.11596,-5.11596c2.82547,0 5.11596,2.29049 5.11596,5.11596c0,2.82547 -2.29049,5.11596 -5.11596,5.11596c-2.82547,0 -5.11596,-2.29049 -5.11596,-5.11596z" fill="#ff0000" stroke="#ff0000" stroke-width="2" stroke-linecap="butt"/><path d="M349.6065,178.02582l37.17599,-37.17599" fill="none" stroke="#ff0000" stroke-width="2" stroke-linecap="round"/><path d="M353.69927,141.1909v-23.87449h68.89495v23.87449z" fill="#ff0000" stroke="#ff0000" stroke-width="2" stroke-linecap="butt"/><path d="M357.79204,138.98242v-19.61963h62.07367v19.61963z" fill="#000000" stroke="#ff0000" stroke-width="2" stroke-linecap="butt"/><text transform="translate(362.56694,135.05445) scale(0.5,0.5)" font-size="40" xml:space="preserve" fill="#ffffff" stroke="none" stroke-width="1" stroke-linecap="butt" font-family="Sans Serif" font-weight="normal" text-anchor="start"><tspan x="0" dy="0">x</tspan></text></g></g></svg>