<svg version="1.1" xmlns="http://www.w3.org/2000/svg" xmlns:xlink="http://www.w3.org/1999/xlink" width="197" height="197" viewBox="0,0,197,197"><defs><radialGradient cx="233.33333" cy="93.33333" r="10.83333" gradientUnits="userSpaceOnUse" id="color-1"><stop offset="0" stop-color="#000000"/><stop offset="1" stop-color="#930000"/></radialGradient><radialGradient cx="233.33333" cy="93.33334" r="8.48484" gradientUnits="userSpaceOnUse" id="color-2"><stop offset="0" stop-color="#ff0000"/><stop offset="1" stop-color="#000000"/></radialGradient><radialGradient cx="255" cy="93.33333" r="10.83333" gradientUnits="userSpaceOnUse" id="color-3"><stop offset="0" stop-color="#000000"/><stop offset="1" stop-color="#930000"/></radialGradient><radialGradient cx="255" cy="93.33334" r="8.48484" gradientUnits="userSpaceOnUse" id="color-4"><stop offset="0" stop-color="#ff0000"/><stop offset="1" stop-color="#000000"/></radialGradient><radialGradient cx="233.33333" cy="115" r="10.83333" gradientUnits="userSpaceOnUse" id="color-5"><stop offset="0" stop-color="#000000"/><stop offset="1" stop-color="#930000"/></radialGradient><radialGradient cx="233.33333" cy="115.00001" r="8.48484" gradientUnits="userSpaceOnUse" id="color-6"><stop offset="0" stop-color="#ff0000"/><stop offset="1" stop-color="#000000"/></radialGradient><radialGradient cx="255" cy="115" r="10.83333" gradientUnits="userSpaceOnUse" id="color-7"><stop offset="0" stop-color="#000000"/><stop offset="1" stop-color="#930000"/></radialGradient><radialGradient cx="255" cy="115.00001" r="8.48484" gradientUnits="userSpaceOnUse" id="color-8"><stop offset="0" stop-color="#ff0000"/><stop offset="1" stop-color="#000000"/></radialGradient><radialGradient cx="276.66667" cy="93.33333" r="10.83333" gradientUnits="userSpaceOnUse" id="color-9"><stop offset="0" stop-color="#000000"/><stop offset="1" stop-color="#930000"/></radialGradient><radialGradient cx="276.66667" cy="93.33334" r="8.48484" gradientUnits="userSpaceOnUse" id="color-10"><stop offset="0" stop-color="#ff0000"/><stop offset="1" stop-color="#000000"/></radialGradient><radialGradient cx="298.33333" cy="93.33333" r="10.83333" gradientUnits="userSpaceOnUse" id="color-11"><stop offset="0" stop-color="#000000"/><stop offset="1" stop-color="#930000"/></radialGradient><radialGradient cx="298.33333" cy="93.33334" r="8.48484" gradientUnits="userSpaceOnUse" id="color-12"><stop offset="0" stop-color="#ff0000"/><stop offset="1" stop-color="#000000"/></radialGradient><radialGradient cx="276.66667" cy="115" r="10.83333" gradientUnits="userSpaceOnUse" id="color-13"><stop offset="0" stop-color="#000000"/><stop offset="1" stop-color="#930000"/></radialGradient><radialGradient cx="276.66667" cy="115.00001" r="8.48484" gradientUnits="userSpaceOnUse" id="color-14"><stop offset="0" stop-color="#ff0000"/><stop offset="1" stop-color="#000000"/></radialGradient><radialGradient cx="298.33333" cy="115" r="10.83333" gradientUnits="userSpaceOnUse" id="color-15"><stop offset="0" stop-color="#000000"/><stop offset="1" stop-color="#930000"/></radialGradient><radialGradient cx="298.33333" cy="115.00001" r="8.48484" gradientUnits="userSpaceOnUse" id="color-16"><stop offset="0" stop-color="#ff0000"/><stop offset="1" stop-color="#000000"/></radialGradient><radialGradient cx="233.33333" cy="136.66667" r="10.83333" gradientUnits="userSpaceOnUse" id="color-17"><stop offset="0" stop-color="#000000"/><stop offset="1" stop-color="#930000"/></radialGradient><radialGradient cx="233.33333" cy="136.66667" r="8.48484" gradientUnits="userSpaceOnUse" id="color-18"><stop offset="0" stop-color="#ff0000"/><stop offset="1" stop-color="#000000"/></radialGradient><radialGradient cx="255" cy="136.66667" r="10.83333" gradientUnits="userSpaceOnUse" id="color-19"><stop offset="0" stop-color="#000000"/><stop offset="1" stop-color="#930000"/></radialGradient><radialGradient cx="255" cy="136.66667" r="8.48484" gradientUnits="userSpaceOnUse" id="color-20"><stop offset="0" stop-color="#ff0000"/><stop offset="1" stop-color="#000000"/></radialGradient><radialGradient cx="233.33333" cy="158.33333" r="10.83333" gradientUnits="userSpaceOnUse" id="color-21"><stop offset="0" stop-color="#000000"/><stop offset="1" stop-color="#930000"/></radialGradient><radialGradient cx="233.33333" cy="158.33334" r="8.48484" gradientUnits="userSpaceOnUse" id="color-22"><stop offset="0" stop-color="#ff0000"/><stop offset="1" stop-color="#000000"/></radialGradient><radialGradient cx="255" cy="158.33333" r="10.83333" gradientUnits="userSpaceOnUse" id="color-23"><stop offset="0" stop-color="#000000"/><stop offset="1" stop-color="#930000"/></radialGradient><radialGradient cx="255" cy="158.33334" r="8.48484" gradientUnits="userSpaceOnUse" id="color-24"><stop offset="0" stop-color="#ff0000"/><stop offset="1" stop-color="#000000"/></radialGradient><radialGradient cx="276.66667" cy="136.66667" r="10.83333" gradientUnits="userSpaceOnUse" id="color-25"><stop offset="0" stop-color="#000000"/><stop offset="1" stop-color="#930000"/></radialGradient><radialGradient cx="276.66667" cy="136.66667" r="8.48484" gradientUnits="userSpaceOnUse" id="color-26"><stop offset="0" stop-color="#ff0000"/><stop offset="1" stop-color="#000000"/></radialGradient><radialGradient cx="298.33333" cy="136.66667" r="10.83333" gradientUnits="userSpaceOnUse" id="color-27"><stop offset="0" stop-color="#000000"/><stop offset="1" stop-color="#930000"/></radialGradient><radialGradient cx="298.33333" cy="136.66667" r="8.48484" gradientUnits="userSpaceOnUse" id="color-28"><stop offset="0" stop-color="#ff0000"/><stop offset="1" stop-color="#000000"/></radialGradient><radialGradient cx="276.66667" cy="158.33333" r="10.83333" gradientUnits="userSpaceOnUse" id="color-29"><stop offset="0" stop-color="#000000"/><stop offset="1" stop-color="#930000"/></radialGradient><radialGradient cx="276.66667" cy="158.33334" r="8.48484" gradientUnits="userSpaceOnUse" id="color-30"><stop offset="0" stop-color="#ff0000"/><stop offset="1" stop-color="#000000"/></radialGradient><radialGradient cx="298.33333" cy="158.33333" r="10.83333" gradientUnits="userSpaceOnUse" id="color-31"><stop offset="0" stop-color="#000000"/><stop offset="1" stop-color="#930000"/></radialGradient><radialGradient cx="298.33333" cy="158.33334" r="8.48484" gradientUnits="userSpaceOnUse" id="color-32"><stop offset="0" stop-color="#ff0000"/><stop offset="1" stop-color="#000000"/></radialGradient><radialGradient cx="320" cy="93.33333" r="10.83333" gradientUnits="userSpaceOnUse" id="color-33"><stop offset="0" stop-color="#000000"/><stop offset="1" stop-color="#930000"/></radialGradient><radialGradient cx="320" cy="93.33334" r="8.48484" gradientUnits="userSpaceOnUse" id="color-34"><stop offset="0" stop-color="#ff0000"/><stop offset="1" stop-color="#000000"/></radialGradient><radialGradient cx="341.66667" cy="93.33333" r="10.83333" gradientUnits="userSpaceOnUse" id="color-35"><stop offset="0" stop-color="#000000"/><stop offset="1" stop-color="#930000"/></radialGradient><radialGradient cx="341.66667" cy="93.33334" r="8.48484" gradientUnits="userSpaceOnUse" id="color-36"><stop offset="0" stop-color="#ff0000"/><stop offset="1" stop-color="#000000"/></radialGradient><radialGradient cx="320" cy="115" r="10.83333" gradientUnits="userSpaceOnUse" id="color-37"><stop offset="0" stop-color="#000000"/><stop offset="1" stop-color="#930000"/></radialGradient><radialGradient cx="320" cy="115.00001" r="8.48484" gradientUnits="userSpaceOnUse" id="color-38"><stop offset="0" stop-color="#ff0000"/><stop offset="1" stop-color="#000000"/></radialGradient><radialGradient cx="341.66667" cy="115" r="10.83333" gradientUnits="userSpaceOnUse" id="color-39"><stop offset="0" stop-color="#000000"/><stop offset="1" stop-color="#930000"/></radialGradient><radialGradient cx="341.66667" cy="115.00001" r="8.48484" gradientUnits="userSpaceOnUse" id="color-40"><stop offset="0" stop-color="#ff0000"/><stop offset="1" stop-color="#000000"/></radialGradient><radialGradient cx="363.33333" cy="93.33333" r="10.83333" gradientUnits="userSpaceOnUse" id="color-41"><stop offset="0" stop-color="#000000"/><stop offset="1" stop-color="#930000"/></radialGradient><radialGradient cx="363.33333" cy="93.33334" r="8.48484" gradientUnits="userSpaceOnUse" id="color-42"><stop offset="0" stop-color="#ff0000"/><stop offset="1" stop-color="#000000"/></radialGradient><radialGradient cx="385" cy="93.33333" r="10.83333" gradientUnits="userSpaceOnUse" id="color-43"><stop offset="0" stop-color="#000000"/><stop offset="1" stop-color="#930000"/></radialGradient><radialGradient cx="385" cy="93.33334" r="8.48484" gradientUnits="userSpaceOnUse" id="color-44"><stop offset="0" stop-color="#ff0000"/><stop offset="1" stop-color="#000000"/></radialGradient><radialGradient cx="363.33333" cy="115" r="10.83333" gradientUnits="userSpaceOnUse" id="color-45"><stop offset="0" stop-color="#000000"/><stop offset="1" stop-color="#930000"/></radialGradient><radialGradient cx="363.33333" cy="115.00001" r="8.48484" gradientUnits="userSpaceOnUse" id="color-46"><stop offset="0" stop-color="#ff0000"/><stop offset="1" stop-color="#000000"/></radialGradient><radialGradient cx="385" cy="115" r="10.83333" gradientUnits="userSpaceOnUse" id="color-47"><stop offset="0" stop-color="#000000"/><stop offset="1" stop-color="#930000"/></radialGradient><radialGradient cx="385" cy="115.00001" r="8.48484" gradientUnits="userSpaceOnUse" id="color-48"><stop offset="0" stop-color="#ff0000"/><stop offset="1" stop-color="#000000"/></radialGradient><radialGradient cx="320" cy="136.66667" r="10.83333" gradientUnits="userSpaceOnUse" id="color-49"><stop offset="0" stop-color="#000000"/><stop offset="1" stop-color="#930000"/></radialGradient><radialGradient cx="320" cy="136.66667" r="8.48484" gradientUnits="userSpaceOnUse" id="color-50"><stop offset="0" stop-color="#ff0000"/><stop offset="1" stop-color="#000000"/></radialGradient><radialGradient cx="341.66667" cy="136.66667" r="10.83333" gradientUnits="userSpaceOnUse" id="color-51"><stop offset="0" stop-color="#000000"/><stop offset="1" stop-color="#930000"/></radialGradient><radialGradient cx="341.66667" cy="136.66667" r="8.48484" gradientUnits="userSpaceOnUse" id="color-52"><stop offset="0" stop-color="#ff0000"/><stop offset="1" stop-color="#000000"/></radialGradient><radialGradient cx="320" cy="158.33333" r="10.83333" gradientUnits="userSpaceOnUse" id="color-53"><stop offset="0" stop-color="#000000"/><stop offset="1" stop-color="#930000"/></radialGradient><radialGradient cx="320" cy="158.33334" r="8.48484" gradientUnits="userSpaceOnUse" id="color-54"><stop offset="0" stop-color="#ff0000"/><stop offset="1" stop-color="#000000"/></radialGradient><radialGradient cx="341.66667" cy="158.33333" r="10.83333" gradientUnits="userSpaceOnUse" id="color-55"><stop offset="0" stop-color="#000000"/><stop offset="1" stop-color="#930000"/></radialGradient><radialGradient cx="341.66667" cy="158.33334" r="8.48484" gradientUnits="userSpaceOnUse" id="color-56"><stop offset="0" stop-color="#ff0000"/><stop offset="1" stop-color="#000000"/></radialGradient><radialGradient cx="363.33333" cy="136.66667" r="10.83333" gradientUnits="userSpaceOnUse" id="color-57"><stop offset="0" stop-color="#000000"/><stop offset="1" stop-color="#930000"/></radialGradient><radialGradient cx="363.33333" cy="136.66667" r="8.48484" gradientUnits="userSpaceOnUse" id="color-58"><stop offset="0" stop-color="#ff0000"/><stop offset="1" stop-color="#000000"/></radialGradient><radialGradient cx="385" cy="136.66667" r="10.83333" gradientUnits="userSpaceOnUse" id="color-59"><stop offset="0" stop-color="#000000"/><stop offset="1" stop-color="#930000"/></radialGradient><radialGradient cx="385" cy="136.66667" r="8.48484" gradientUnits="userSpaceOnUse" id="color-60"><stop offset="0" stop-color="#ff0000"/><stop offset="1" stop-color="#000000"/></radialGradient><radialGradient cx="363.33333" cy="158.33333" r="10.83333" gradientUnits="userSpaceOnUse" id="color-61"><stop offset="0" stop-color="#000000"/><stop offset="1" stop-color="#930000"/></radialGradient><radialGradient cx="363.33333" cy="158.33334" r="8.48484" gradientUnits="userSpaceOnUse" id="color-62"><stop offset="0" stop-color="#ff0000"/><stop offset="1" stop-color="#000000"/></radialGradient><radialGradient cx="385" cy="158.33333" r="10.83333" gradientUnits="userSpaceOnUse" id="color-63"><stop offset="0" stop-color="#000000"/><stop offset="1" stop-color="#930000"/></radialGradient><radialGradient cx="385" cy="158.33334" r="8.48484" gradientUnits="userSpaceOnUse" id="color-64"><stop offset="0" stop-color="#ff0000"/><stop offset="1" stop-color="#000000"/></radialGradient><radialGradient cx="233.33333" cy="180" r="10.83333" gradientUnits="userSpaceOnUse" id="color-65"><stop offset="0" stop-color="#000000"/><stop offset="1" stop-color="#930000"/></radialGradient><radialGradient cx="233.33333" cy="180.00001" r="8.48484" gradientUnits="userSpaceOnUse" id="color-66"><stop offset="0" stop-color="#ff0000"/><stop offset="1" stop-color="#000000"/></radialGradient><radialGradient cx="255" cy="180" r="10.83333" gradientUnits="userSpaceOnUse" id="color-67"><stop offset="0" stop-color="#000000"/><stop offset="1" stop-color="#930000"/></radialGradient><radialGradient cx="255" cy="180.00001" r="8.48484" gradientUnits="userSpaceOnUse" id="color-68"><stop offset="0" stop-color="#ff0000"/><stop offset="1" stop-color="#000000"/></radialGradient><radialGradient cx="233.33333" cy="201.66667" r="10.83333" gradientUnits="userSpaceOnUse" id="color-69"><stop offset="0" stop-color="#000000"/><stop offset="1" stop-color="#930000"/></radialGradient><radialGradient cx="233.33333" cy="201.66667" r="8.48484" gradientUnits="userSpaceOnUse" id="color-70"><stop offset="0" stop-color="#ff0000"/><stop offset="1" stop-color="#000000"/></radialGradient><radialGradient cx="255" cy="201.66667" r="10.83333" gradientUnits="userSpaceOnUse" id="color-71"><stop offset="0" stop-color="#000000"/><stop offset="1" stop-color="#930000"/></radialGradient><radialGradient cx="255" cy="201.66667" r="8.48484" gradientUnits="userSpaceOnUse" id="color-72"><stop offset="0" stop-color="#ff0000"/><stop offset="1" stop-color="#000000"/></radialGradient><radialGradient cx="276.66667" cy="180" r="10.83333" gradientUnits="userSpaceOnUse" id="color-73"><stop offset="0" stop-color="#000000"/><stop offset="1" stop-color="#930000"/></radialGradient><radialGradient cx="276.66667" cy="180.00001" r="8.48484" gradientUnits="userSpaceOnUse" id="color-74"><stop offset="0" stop-color="#ff0000"/><stop offset="1" stop-color="#000000"/></radialGradient><radialGradient cx="298.33333" cy="180" r="10.83333" gradientUnits="userSpaceOnUse" id="color-75"><stop offset="0" stop-color="#000000"/><stop offset="1" stop-color="#930000"/></radialGradient><radialGradient cx="298.33333" cy="180.00001" r="8.48484" gradientUnits="userSpaceOnUse" id="color-76"><stop offset="0" stop-color="#ff0000"/><stop offset="1" stop-color="#000000"/></radialGradient><radialGradient cx="276.66667" cy="201.66667" r="10.83333" gradientUnits="userSpaceOnUse" id="color-77"><stop offset="0" stop-color="#000000"/><stop offset="1" stop-color="#930000"/></radialGradient><radialGradient cx="276.66667" cy="201.66667" r="8.48484" gradientUnits="userSpaceOnUse" id="color-78"><stop offset="0" stop-color="#ff0000"/><stop offset="1" stop-color="#000000"/></radialGradient><radialGradient cx="298.33333" cy="201.66667" r="10.83333" gradientUnits="userSpaceOnUse" id="color-79"><stop offset="0" stop-color="#000000"/><stop offset="1" stop-color="#930000"/></radialGradient><radialGradient cx="298.33333" cy="201.66667" r="8.48484" gradientUnits="userSpaceOnUse" id="color-80"><stop offset="0" stop-color="#ff0000"/><stop offset="1" stop-color="#000000"/></radialGradient><radialGradient cx="233.33333" cy="223.33333" r="10.83333" gradientUnits="userSpaceOnUse" id="color-81"><stop offset="0" stop-color="#000000"/><stop offset="1" stop-color="#930000"/></radialGradient><radialGradient cx="233.33333" cy="223.33334" r="8.48484" gradientUnits="userSpaceOnUse" id="color-82"><stop offset="0" stop-color="#ff0000"/><stop offset="1" stop-color="#000000"/></radialGradient><radialGradient cx="255" cy="223.33333" r="10.83333" gradientUnits="userSpaceOnUse" id="color-83"><stop offset="0" stop-color="#000000"/><stop offset="1" stop-color="#930000"/></radialGradient><radialGradient cx="255" cy="223.33334" r="8.48484" gradientUnits="userSpaceOnUse" id="color-84"><stop offset="0" stop-color="#ff0000"/><stop offset="1" stop-color="#000000"/></radialGradient><radialGradient cx="233.33333" cy="245" r="10.83333" gradientUnits="userSpaceOnUse" id="color-85"><stop offset="0" stop-color="#000000"/><stop offset="1" stop-color="#930000"/></radialGradient><radialGradient cx="233.33333" cy="245.00001" r="8.48484" gradientUnits="userSpaceOnUse" id="color-86"><stop offset="0" stop-color="#ff0000"/><stop offset="1" stop-color="#000000"/></radialGradient><radialGradient cx="255" cy="245" r="10.83333" gradientUnits="userSpaceOnUse" id="color-87"><stop offset="0" stop-color="#000000"/><stop offset="1" stop-color="#930000"/></radialGradient><radialGradient cx="255" cy="245.00001" r="8.48484" gradientUnits="userSpaceOnUse" id="color-88"><stop offset="0" stop-color="#ff0000"/><stop offset="1" stop-color="#000000"/></radialGradient><radialGradient cx="276.66667" cy="223.33333" r="10.83333" gradientUnits="userSpaceOnUse" id="color-89"><stop offset="0" stop-color="#000000"/><stop offset="1" stop-color="#930000"/></radialGradient><radialGradient cx="276.66667" cy="223.33334" r="8.48484" gradientUnits="userSpaceOnUse" id="color-90"><stop offset="0" stop-color="#ff0000"/><stop offset="1" stop-color="#000000"/></radialGradient><radialGradient cx="298.33333" cy="223.33333" r="10.83333" gradientUnits="userSpaceOnUse" id="color-91"><stop offset="0" stop-color="#000000"/><stop offset="1" stop-color="#930000"/></radialGradient><radialGradient cx="298.33333" cy="223.33334" r="8.48484" gradientUnits="userSpaceOnUse" id="color-92"><stop offset="0" stop-color="#ff0000"/><stop offset="1" stop-color="#000000"/></radialGradient><radialGradient cx="276.66667" cy="245" r="10.83333" gradientUnits="userSpaceOnUse" id="color-93"><stop offset="0" stop-color="#000000"/><stop offset="1" stop-color="#930000"/></radialGradient><radialGradient cx="276.66667" cy="245.00001" r="8.48484" gradientUnits="userSpaceOnUse" id="color-94"><stop offset="0" stop-color="#ff0000"/><stop offset="1" stop-color="#000000"/></radialGradient><radialGradient cx="298.33333" cy="245" r="10.83333" gradientUnits="userSpaceOnUse" id="color-95"><stop offset="0" stop-color="#000000"/><stop offset="1" stop-color="#930000"/></radialGradient><radialGradient cx="298.33333" cy="245.00001" r="8.48484" gradientUnits="userSpaceOnUse" id="color-96"><stop offset="0" stop-color="#ff0000"/><stop offset="1" stop-color="#000000"/></radialGradient><radialGradient cx="320" cy="180" r="10.83333" gradientUnits="userSpaceOnUse" id="color-97"><stop offset="0" stop-color="#000000"/><stop offset="1" stop-color="#930000"/></radialGradient><radialGradient cx="320" cy="180.00001" r="8.48484" gradientUnits="userSpaceOnUse" id="color-98"><stop offset="0" stop-color="#ff0000"/><stop offset="1" stop-color="#000000"/></radialGradient><radialGradient cx="341.66667" cy="180" r="10.83333" gradientUnits="userSpaceOnUse" id="color-99"><stop offset="0" stop-color="#000000"/><stop offset="1" stop-color="#930000"/></radialGradient><radialGradient cx="341.66667" cy="180.00001" r="8.48484" gradientUnits="userSpaceOnUse" id="color-100"><stop offset="0" stop-color="#ff0000"/><stop offset="1" stop-color="#000000"/></radialGradient><radialGradient cx="320" cy="201.66667" r="10.83333" gradientUnits="userSpaceOnUse" id="color-101"><stop offset="0" stop-color="#000000"/><stop offset="1" stop-color="#930000"/></radialGradient><radialGradient cx="320" cy="201.66667" r="8.48484" gradientUnits="userSpaceOnUse" id="color-102"><stop offset="0" stop-color="#ff0000"/><stop offset="1" stop-color="#000000"/></radialGradient><radialGradient cx="341.66667" cy="201.66667" r="10.83333" gradientUnits="userSpaceOnUse" id="color-103"><stop offset="0" stop-color="#000000"/><stop offset="1" stop-color="#930000"/></radialGradient><radialGradient cx="341.66667" cy="201.66667" r="8.48484" gradientUnits="userSpaceOnUse" id="color-104"><stop offset="0" stop-color="#ff0000"/><stop offset="1" stop-color="#000000"/></radialGradient><radialGradient cx="363.33333" cy="180" r="10.83333" gradientUnits="userSpaceOnUse" id="color-105"><stop offset="0" stop-color="#000000"/><stop offset="1" stop-color="#930000"/></radialGradient><radialGradient cx="363.33333" cy="180.00001" r="8.48484" gradientUnits="userSpaceOnUse" id="color-106"><stop offset="0" stop-color="#ff0000"/><stop offset="1" stop-color="#000000"/></radialGradient><radialGradient cx="385" cy="180" r="10.83333" gradientUnits="userSpaceOnUse" id="color-107"><stop offset="0" stop-color="#000000"/><stop offset="1" stop-color="#930000"/></radialGradient><radialGradient cx="385" cy="180.00001" r="8.48484" gradientUnits="userSpaceOnUse" id="color-108"><stop offset="0" stop-color="#ff0000"/><stop offset="1" stop-color="#000000"/></radialGradient><radialGradient cx="363.33333" cy="201.66667" r="10.83333" gradientUnits="userSpaceOnUse" id="color-109"><stop offset="0" stop-color="#000000"/><stop offset="1" stop-color="#930000"/></radialGradient><radialGradient cx="363.33333" cy="201.66667" r="8.48484" gradientUnits="userSpaceOnUse" id="color-110"><stop offset="0" stop-color="#ff0000"/><stop offset="1" stop-color="#000000"/></radialGradient><radialGradient cx="385" cy="201.66667" r="10.83333" gradientUnits="userSpaceOnUse" id="color-111"><stop offset="0" stop-color="#000000"/><stop offset="1" stop-color="#930000"/></radialGradient><radialGradient cx="385" cy="201.66667" r="8.48484" gradientUnits="userSpaceOnUse" id="color-112"><stop offset="0" stop-color="#ff0000"/><stop offset="1" stop-color="#000000"/></radialGradient><radialGradient cx="320" cy="223.33333" r="10.83333" gradientUnits="userSpaceOnUse" id="color-113"><stop offset="0" stop-color="#000000"/><stop offset="1" stop-color="#930000"/></radialGradient><radialGradient cx="320" cy="223.33334" r="8.48484" gradientUnits="userSpaceOnUse" id="color-114"><stop offset="0" stop-color="#ff0000"/><stop offset="1" stop-color="#000000"/></radialGradient><radialGradient cx="341.66667" cy="223.33333" r="10.83333" gradientUnits="userSpaceOnUse" id="color-115"><stop offset="0" stop-color="#000000"/><stop offset="1" stop-color="#930000"/></radialGradient><radialGradient cx="341.66667" cy="223.33334" r="8.48484" gradientUnits="userSpaceOnUse" id="color-116"><stop offset="0" stop-color="#ff0000"/><stop offset="1" stop-color="#000000"/></radialGradient><radialGradient cx="320" cy="245" r="10.83333" gradientUnits="userSpaceOnUse" id="color-117"><stop offset="0" stop-color="#000000"/><stop offset="1" stop-color="#930000"/></radialGradient><radialGradient cx="320" cy="245.00001" r="8.48484" gradientUnits="userSpaceOnUse" id="color-118"><stop offset="0" stop-color="#ff0000"/><stop offset="1" stop-color="#000000"/></radialGradient><radialGradient cx="341.66667" cy="245" r="10.83333" gradientUnits="userSpaceOnUse" id="color-119"><stop offset="0" stop-color="#000000"/><stop offset="1" stop-color="#930000"/></radialGradient><radialGradient cx="341.66667" cy="245.00001" r="8.48484" gradientUnits="userSpaceOnUse" id="color-120"><stop offset="0" stop-color="#ff0000"/><stop offset="1" stop-color="#000000"/></radialGradient><radialGradient cx="363.33333" cy="223.33333" r="10.83333" gradientUnits="userSpaceOnUse" id="color-121"><stop offset="0" stop-color="#000000"/><stop offset="1" stop-color="#930000"/></radialGradient><radialGradient cx="363.33333" cy="223.33334" r="8.48484" gradientUnits="userSpaceOnUse" id="color-122"><stop offset="0" stop-color="#ff0000"/><stop offset="1" stop-color="#000000"/></radialGradient><radialGradient cx="385" cy="223.33333" r="10.83333" gradientUnits="userSpaceOnUse" id="color-123"><stop offset="0" stop-color="#000000"/><stop offset="1" stop-color="#930000"/></radialGradient><radialGradient cx="385" cy="223.33334" r="8.48484" gradientUnits="userSpaceOnUse" id="color-124"><stop offset="0" stop-color="#ff0000"/><stop offset="1" stop-color="#000000"/></radialGradient><radialGradient cx="363.33333" cy="245" r="10.83333" gradientUnits="userSpaceOnUse" id="color-125"><stop offset="0" stop-color="#000000"/><stop offset="1" stop-color="#930000"/></radialGradient><radialGradient cx="363.33333" cy="245.00001" r="8.48484" gradientUnits="userSpaceOnUse" id="color-126"><stop offset="0" stop-color="#ff0000"/><stop offset="1" stop-color="#000000"/></radialGradient><radialGradient cx="385" cy="245" r="10.83333" gradientUnits="userSpaceOnUse" id="color-127"><stop offset="0" stop-color="#000000"/><stop offset="1" stop-color="#930000"/></radialGradient><radialGradient cx="385" cy="245.00001" r="8.48484" gradientUnits="userSpaceOnUse" id="color-128"><stop offset="0" stop-color="#ff0000"/><stop offset="1" stop-color="#000000"/></radialGradient><radialGradient cx="406.66667" cy="93.33333" r="10.83333" gradientUnits="userSpaceOnUse" id="color-129"><stop offset="0" stop-color="#000000"/><stop offset="1" stop-color="#930000"/></radialGradient><radialGradient cx="406.66667" cy="93.33334" r="8.48484" gradientUnits="userSpaceOnUse" id="color-130"><stop offset="0" stop-color="#ff0000"/><stop offset="1" stop-color="#000000"/></radialGradient><radialGradient cx="406.66667" cy="115" r="10.83333" gradientUnits="userSpaceOnUse" id="color-131"><stop offset="0" stop-color="#000000"/><stop offset="1" stop-color="#930000"/></radialGradient><radialGradient cx="406.66667" cy="115.00001" r="8.48484" gradientUnits="userSpaceOnUse" id="color-132"><stop offset="0" stop-color="#ff0000"/><stop offset="1" stop-color="#000000"/></radialGradient><radialGradient cx="406.66667" cy="136.66667" r="10.83333" gradientUnits="userSpaceOnUse" id="color-133"><stop offset="0" stop-color="#000000"/><stop offset="1" stop-color="#930000"/></radialGradient><radialGradient cx="406.66667" cy="136.66667" r="8.48484" gradientUnits="userSpaceOnUse" id="color-134"><stop offset="0" stop-color="#ff0000"/><stop offset="1" stop-color="#000000"/></radialGradient><radialGradient cx="406.66667" cy="158.33333" r="10.83333" gradientUnits="userSpaceOnUse" id="color-135"><stop offset="0" stop-color="#000000"/><stop offset="1" stop-color="#930000"/></radialGradient><radialGradient cx="406.66667" cy="158.33334" r="8.48484" gradientUnits="userSpaceOnUse" id="color-136"><stop offset="0" stop-color="#ff0000"/><stop offset="1" stop-color="#000000"/></radialGradient><radialGradient cx="406.66667" cy="180" r="10.83333" gradientUnits="userSpaceOnUse" id="color-137"><stop offset="0" stop-color="#000000"/><stop offset="1" stop-color="#930000"/></radialGradient><radialGradient cx="406.66667" cy="180.00001" r="8.48484" gradientUnits="userSpaceOnUse" id="color-138"><stop offset="0" stop-color="#ff0000"/><stop offset="1" stop-color="#000000"/></radialGradient><radialGradient cx="406.66667" cy="201.66667" r="10.83333" gradientUnits="userSpaceOnUse" id="color-139"><stop offset="0" stop-color="#000000"/><stop offset="1" stop-color="#930000"/></radialGradient><radialGradient cx="406.66667" cy="201.66667" r="8.48484" gradientUnits="userSpaceOnUse" id="color-140"><stop offset="0" stop-color="#ff0000"/><stop offset="1" stop-color="#000000"/></radialGradient><radialGradient cx="406.66667" cy="223.33333" r="10.83333" gradientUnits="userSpaceOnUse" id="color-141"><stop offset="0" stop-color="#000000"/><stop offset="1" stop-color="#930000"/></radialGradient><radialGradient cx="406.66667" cy="223.33334" r="8.48484" gradientUnits="userSpaceOnUse" id="color-142"><stop offset="0" stop-color="#ff0000"/><stop offset="1" stop-color="#000000"/></radialGradient><radialGradient cx="406.66667" cy="245" r="10.83333" gradientUnits="userSpaceOnUse" id="color-143"><stop offset="0" stop-color="#000000"/><stop offset="1" stop-color="#930000"/></radialGradient><radialGradient cx="406.66667" cy="245.00001" r="8.48484" gradientUnits="userSpaceOnUse" id="color-144"><stop offset="0" stop-color="#ff0000"/><stop offset="1" stop-color="#000000"/></radialGradient><radialGradient cx="233.33333" cy="266.66667" r="10.83333" gradientUnits="userSpaceOnUse" id="color-145"><stop offset="0" stop-color="#000000"/><stop offset="1" stop-color="#930000"/></radialGradient><radialGradient cx="233.33333" cy="266.66667" r="8.48484" gradientUnits="userSpaceOnUse" id="color-146"><stop offset="0" stop-color="#ff0000"/><stop offset="1" stop-color="#000000"/></radialGradient><radialGradient cx="255" cy="266.66667" r="10.83333" gradientUnits="userSpaceOnUse" id="color-147"><stop offset="0" stop-color="#000000"/><stop offset="1" stop-color="#930000"/></radialGradient><radialGradient cx="255" cy="266.66667" r="8.48484" gradientUnits="userSpaceOnUse" id="color-148"><stop offset="0" stop-color="#ff0000"/><stop offset="1" stop-color="#000000"/></radialGradient><radialGradient cx="276.66667" cy="266.66667" r="10.83333" gradientUnits="userSpaceOnUse" id="color-149"><stop offset="0" stop-color="#000000"/><stop offset="1" stop-color="#930000"/></radialGradient><radialGradient cx="276.66667" cy="266.66667" r="8.48484" gradientUnits="userSpaceOnUse" id="color-150"><stop offset="0" stop-color="#ff0000"/><stop offset="1" stop-color="#000000"/></radialGradient><radialGradient cx="298.33333" cy="266.66667" r="10.83333" gradientUnits="userSpaceOnUse" id="color-151"><stop offset="0" stop-color="#000000"/><stop offset="1" stop-color="#930000"/></radialGradient><radialGradient cx="298.33333" cy="266.66667" r="8.48484" gradientUnits="userSpaceOnUse" id="color-152"><stop offset="0" stop-color="#ff0000"/><stop offset="1" stop-color="#000000"/></radialGradient><radialGradient cx="320" cy="266.66667" r="10.83333" gradientUnits="userSpaceOnUse" id="color-153"><stop offset="0" stop-color="#000000"/><stop offset="1" stop-color="#930000"/></radialGradient><radialGradient cx="320" cy="266.66667" r="8.48484" gradientUnits="userSpaceOnUse" id="color-154"><stop offset="0" stop-color="#ff0000"/><stop offset="1" stop-color="#000000"/></radialGradient><radialGradient cx="341.66667" cy="266.66667" r="10.83333" gradientUnits="userSpaceOnUse" id="color-155"><stop offset="0" stop-color="#000000"/><stop offset="1" stop-color="#930000"/></radialGradient><radialGradient cx="341.66667" cy="266.66667" r="8.48484" gradientUnits="userSpaceOnUse" id="color-156"><stop offset="0" stop-color="#ff0000"/><stop offset="1" stop-color="#000000"/></radialGradient><radialGradient cx="363.33333" cy="266.66667" r="10.83333" gradientUnits="userSpaceOnUse" id="color-157"><stop offset="0" stop-color="#000000"/><stop offset="1" stop-color="#930000"/></radialGradient><radialGradient cx="363.33333" cy="266.66667" r="8.48484" gradientUnits="userSpaceOnUse" id="color-158"><stop offset="0" stop-color="#ff0000"/><stop offset="1" stop-color="#000000"/></radialGradient><radialGradient cx="385" cy="266.66667" r="10.83333" gradientUnits="userSpaceOnUse" id="color-159"><stop offset="0" stop-color="#000000"/><stop offset="1" stop-color="#930000"/></radialGradient><radialGradient cx="385" cy="266.66667" r="8.48484" gradientUnits="userSpaceOnUse" id="color-160"><stop offset="0" stop-color="#ff0000"/><stop offset="1" stop-color="#000000"/></radialGradient><radialGradient cx="406.66667" cy="266.66667" r="10.83333" gradientUnits="userSpaceOnUse" id="color-161"><stop offset="0" stop-color="#000000"/><stop offset="1" stop-color="#930000"/></radialGradient><radialGradient cx="406.66667" cy="266.66667" r="8.48484" gradientUnits="userSpaceOnUse" id="color-162"><stop offset="0" stop-color="#ff0000"/><stop offset="1" stop-color="#000000"/></radialGradient></defs><g transform="translate(-221.5,-81.5)"><g stroke="#ff0000" stroke-miterlimit="10"><path d="M222.5,104.16667v-21.66667h21.66667v21.66667z" fill="url(#color-1)" stroke-width="2"/><path d="M224.84848,101.81818v-16.96969h16.96969v16.96969z" fill="url(#color-2)" stroke-width="0"/><path d="M244.16667,104.16667v-21.66667h21.66667v21.66667z" fill="url(#color-3)" stroke-width="2"/><path d="M246.51515,101.81818v-16.96969h16.96969v16.96969z" fill="url(#color-4)" stroke-width="0"/><path d="M222.5,125.83333v-21.66667h21.66667v21.66667z" fill="url(#color-5)" stroke-width="2"/><path d="M224.84848,123.48485v-16.96969h16.96969v16.96969z" fill="url(#color-6)" stroke-width="0"/><path d="M244.16667,125.83333v-21.66667h21.66667v21.66667z" fill="url(#color-7)" stroke-width="2"/><path d="M246.51515,123.48485v-16.96969h16.96969v16.96969z" fill="url(#color-8)" stroke-width="0"/><path d="M265.83333,104.16667v-21.66667h21.66667v21.66667z" fill="url(#color-9)" stroke-width="2"/><path d="M268.18182,101.81818v-16.96969h16.96969v16.96969z" fill="url(#color-10)" stroke-width="0"/><path d="M287.5,104.16667v-21.66667h21.66667v21.66667z" fill="url(#color-11)" stroke-width="2"/><path d="M289.84848,101.81818v-16.96969h16.96969v16.96969z" fill="url(#color-12)" stroke-width="0"/><path d="M265.83333,125.83333v-21.66667h21.66667v21.66667z" fill="url(#color-13)" stroke-width="2"/><path d="M268.18182,123.48485v-16.96969h16.96969v16.96969z" fill="url(#color-14)" stroke-width="0"/><path d="M287.5,125.83333v-21.66667h21.66667v21.66667z" fill="url(#color-15)" stroke-width="2"/><path d="M289.84848,123.48485v-16.96969h16.96969v16.96969z" fill="url(#color-16)" stroke-width="0"/><path d="M222.5,147.5v-21.66667h21.66667v21.66667z" fill="url(#color-17)" stroke-width="2"/><path d="M224.84848,145.15152v-16.96969h16.96969v16.96969z" fill="url(#color-18)" stroke-width="0"/><path d="M244.16667,147.5v-21.66667h21.66667v21.66667z" fill="url(#color-19)" stroke-width="2"/><path d="M246.51515,145.15152v-16.96969h16.96969v16.96969z" fill="url(#color-20)" stroke-width="0"/><path d="M222.5,169.16667v-21.66667h21.66667v21.66667z" fill="url(#color-21)" stroke-width="2"/><path d="M224.84848,166.81818v-16.96969h16.96969v16.96969z" fill="url(#color-22)" stroke-width="0"/><path d="M244.16667,169.16667v-21.66667h21.66667v21.66667z" fill="url(#color-23)" stroke-width="2"/><path d="M246.51515,166.81818v-16.96969h16.96969v16.96969z" fill="url(#color-24)" stroke-width="0"/><path d="M265.83333,147.5v-21.66667h21.66667v21.66667z" fill="url(#color-25)" stroke-width="2"/><path d="M268.18182,145.15152v-16.96969h16.96969v16.96969z" fill="url(#color-26)" stroke-width="0"/><path d="M287.5,147.5v-21.66667h21.66667v21.66667z" fill="url(#color-27)" stroke-width="2"/><path d="M289.84848,145.15152v-16.96969h16.96969v16.96969z" fill="url(#color-28)" stroke-width="0"/><path d="M265.83333,169.16667v-21.66667h21.66667v21.66667z" fill="url(#color-29)" stroke-width="2"/><path d="M268.18182,166.81818v-16.96969h16.96969v16.96969z" fill="url(#color-30)" stroke-width="0"/><path d="M287.5,169.16667v-21.66667h21.66667v21.66667z" fill="url(#color-31)" stroke-width="2"/><path d="M289.84848,166.81818v-16.96969h16.96969v16.96969z" fill="url(#color-32)" stroke-width="0"/><path d="M309.16667,104.16667v-21.66667h21.66667v21.66667z" fill="url(#color-33)" stroke-width="2"/><path d="M311.51515,101.81818v-16.96969h16.96969v16.96969z" fill="url(#color-34)" stroke-width="0"/><path d="M330.83333,104.16667v-21.66667h21.66667v21.66667z" fill="url(#color-35)" stroke-width="2"/><path d="M333.18182,101.81818v-16.96969h16.96969v16.96969z" fill="url(#color-36)" stroke-width="0"/><path d="M309.16667,125.83333v-21.66667h21.66667v21.66667z" fill="url(#color-37)" stroke-width="2"/><path d="M311.51515,123.48485v-16.96969h16.96969v16.96969z" fill="url(#color-38)" stroke-width="0"/><path d="M330.83333,125.83333v-21.66667h21.66667v21.66667z" fill="url(#color-39)" stroke-width="2"/><path d="M333.18182,123.48485v-16.96969h16.96969v16.96969z" fill="url(#color-40)" stroke-width="0"/><path d="M352.5,104.16667v-21.66667h21.66667v21.66667z" fill="url(#color-41)" stroke-width="2"/><path d="M354.84848,101.81818v-16.96969h16.96969v16.96969z" fill="url(#color-42)" stroke-width="0"/><path d="M374.16667,104.16667v-21.66667h21.66667v21.66667z" fill="url(#color-43)" stroke-width="2"/><path d="M376.51515,101.81818v-16.96969h16.96969v16.96969z" fill="url(#color-44)" stroke-width="0"/><path d="M352.5,125.83333v-21.66667h21.66667v21.66667z" fill="url(#color-45)" stroke-width="2"/><path d="M354.84848,123.48485v-16.96969h16.96969v16.96969z" fill="url(#color-46)" stroke-width="0"/><path d="M374.16667,125.83333v-21.66667h21.66667v21.66667z" fill="url(#color-47)" stroke-width="2"/><path d="M376.51515,123.48485v-16.96969h16.96969v16.96969z" fill="url(#color-48)" stroke-width="0"/><path d="M309.16667,147.5v-21.66667h21.66667v21.66667z" fill="url(#color-49)" stroke-width="2"/><path d="M311.51515,145.15152v-16.96969h16.96969v16.96969z" fill="url(#color-50)" stroke-width="0"/><path d="M330.83333,147.5v-21.66667h21.66667v21.66667z" fill="url(#color-51)" stroke-width="2"/><path d="M333.18182,145.15152v-16.96969h16.96969v16.96969z" fill="url(#color-52)" stroke-width="0"/><path d="M309.16667,169.16667v-21.66667h21.66667v21.66667z" fill="url(#color-53)" stroke-width="2"/><path d="M311.51515,166.81818v-16.96969h16.96969v16.96969z" fill="url(#color-54)" stroke-width="0"/><path d="M330.83333,169.16667v-21.66667h21.66667v21.66667z" fill="url(#color-55)" stroke-width="2"/><path d="M333.18182,166.81818v-16.96969h16.96969v16.96969z" fill="url(#color-56)" stroke-width="0"/><path d="M352.5,147.5v-21.66667h21.66667v21.66667z" fill="url(#color-57)" stroke-width="2"/><path d="M354.84848,145.15152v-16.96969h16.96969v16.96969z" fill="url(#color-58)" stroke-width="0"/><path d="M374.16667,147.5v-21.66667h21.66667v21.66667z" fill="url(#color-59)" stroke-width="2"/><path d="M376.51515,145.15152v-16.96969h16.96969v16.96969z" fill="url(#color-60)" stroke-width="0"/><path d="M352.5,169.16667v-21.66667h21.66667v21.66667z" fill="url(#color-61)" stroke-width="2"/><path d="M354.84848,166.81818v-16.96969h16.96969v16.96969z" fill="url(#color-62)" stroke-width="0"/><path d="M374.16667,169.16667v-21.66667h21.66667v21.66667z" fill="url(#color-63)" stroke-width="2"/><path d="M376.51515,166.81818v-16.96969h16.96969v16.96969z" fill="url(#color-64)" stroke-width="0"/><path d="M222.5,190.83333v-21.66667h21.66667v21.66667z" fill="url(#color-65)" stroke-width="2"/><path d="M224.84848,188.48485v-16.96969h16.96969v16.96969z" fill="url(#color-66)" stroke-width="0"/><path d="M244.16667,190.83333v-21.66667h21.66667v21.66667z" fill="url(#color-67)" stroke-width="2"/><path d="M246.51515,188.48485v-16.96969h16.96969v16.96969z" fill="url(#color-68)" stroke-width="0"/><path d="M222.5,212.5v-21.66667h21.66667v21.66667z" fill="url(#color-69)" stroke-width="2"/><path d="M224.84848,210.15152v-16.96969h16.96969v16.96969z" fill="url(#color-70)" stroke-width="0"/><path d="M244.16667,212.5v-21.66667h21.66667v21.66667z" fill="url(#color-71)" stroke-width="2"/><path d="M246.51515,210.15152v-16.96969h16.96969v16.96969z" fill="url(#color-72)" stroke-width="0"/><path d="M265.83333,190.83333v-21.66667h21.66667v21.66667z" fill="url(#color-73)" stroke-width="2"/><path d="M268.18182,188.48485v-16.96969h16.96969v16.96969z" fill="url(#color-74)" stroke-width="0"/><path d="M287.5,190.83333v-21.66667h21.66667v21.66667z" fill="url(#color-75)" stroke-width="2"/><path d="M289.84848,188.48485v-16.96969h16.96969v16.96969z" fill="url(#color-76)" stroke-width="0"/><path d="M265.83333,212.5v-21.66667h21.66667v21.66667z" fill="url(#color-77)" stroke-width="2"/><path d="M268.18182,210.15152v-16.96969h16.96969v16.96969z" fill="url(#color-78)" stroke-width="0"/><path d="M287.5,212.5v-21.66667h21.66667v21.66667z" fill="url(#color-79)" stroke-width="2"/><path d="M289.84848,210.15152v-16.96969h16.96969v16.96969z" fill="url(#color-80)" stroke-width="0"/><path d="M222.5,234.16667v-21.66667h21.66667v21.66667z" fill="url(#color-81)" stroke-width="2"/><path d="M224.84848,231.81818v-16.96969h16.96969v16.96969z" fill="url(#color-82)" stroke-width="0"/><path d="M244.16667,234.16667v-21.66667h21.66667v21.66667z" fill="url(#color-83)" stroke-width="2"/><path d="M246.51515,231.81818v-16.96969h16.96969v16.96969z" fill="url(#color-84)" stroke-width="0"/><path d="M222.5,255.83333v-21.66667h21.66667v21.66667z" fill="url(#color-85)" stroke-width="2"/><path d="M224.84848,253.48485v-16.96969h16.96969v16.96969z" fill="url(#color-86)" stroke-width="0"/><path d="M244.16667,255.83333v-21.66667h21.66667v21.66667z" fill="url(#color-87)" stroke-width="2"/><path d="M246.51515,253.48485v-16.96969h16.96969v16.96969z" fill="url(#color-88)" stroke-width="0"/><path d="M265.83333,234.16667v-21.66667h21.66667v21.66667z" fill="url(#color-89)" stroke-width="2"/><path d="M268.18182,231.81818v-16.96969h16.96969v16.96969z" fill="url(#color-90)" stroke-width="0"/><path d="M287.5,234.16667v-21.66667h21.66667v21.66667z" fill="url(#color-91)" stroke-width="2"/><path d="M289.84848,231.81818v-16.96969h16.96969v16.96969z" fill="url(#color-92)" stroke-width="0"/><path d="M265.83333,255.83333v-21.66667h21.66667v21.66667z" fill="url(#color-93)" stroke-width="2"/><path d="M268.18182,253.48485v-16.96969h16.96969v16.96969z" fill="url(#color-94)" stroke-width="0"/><path d="M287.5,255.83333v-21.66667h21.66667v21.66667z" fill="url(#color-95)" stroke-width="2"/><path d="M289.84848,253.48485v-16.96969h16.96969v16.96969z" fill="url(#color-96)" stroke-width="0"/><path d="M309.16667,190.83333v-21.66667h21.66667v21.66667z" fill="url(#color-97)" stroke-width="2"/><path d="M311.51515,188.48485v-16.96969h16.96969v16.96969z" fill="url(#color-98)" stroke-width="0"/><path d="M330.83333,190.83333v-21.66667h21.66667v21.66667z" fill="url(#color-99)" stroke-width="2"/><path d="M333.18182,188.48485v-16.96969h16.96969v16.96969z" fill="url(#color-100)" stroke-width="0"/><path d="M309.16667,212.5v-21.66667h21.66667v21.66667z" fill="url(#color-101)" stroke-width="2"/><path d="M311.51515,210.15152v-16.96969h16.96969v16.96969z" fill="url(#color-102)" stroke-width="0"/><path d="M330.83333,212.5v-21.66667h21.66667v21.66667z" fill="url(#color-103)" stroke-width="2"/><path d="M333.18182,210.15152v-16.96969h16.96969v16.96969z" fill="url(#color-104)" stroke-width="0"/><path d="M352.5,190.83333v-21.66667h21.66667v21.66667z" fill="url(#color-105)" stroke-width="2"/><path d="M354.84848,188.48485v-16.96969h16.96969v16.96969z" fill="url(#color-106)" stroke-width="0"/><path d="M374.16667,190.83333v-21.66667h21.66667v21.66667z" fill="url(#color-107)" stroke-width="2"/><path d="M376.51515,188.48485v-16.96969h16.96969v16.96969z" fill="url(#color-108)" stroke-width="0"/><path d="M352.5,212.5v-21.66667h21.66667v21.66667z" fill="url(#color-109)" stroke-width="2"/><path d="M354.84848,210.15152v-16.96969h16.96969v16.96969z" fill="url(#color-110)" stroke-width="0"/><path d="M374.16667,212.5v-21.66667h21.66667v21.66667z" fill="url(#color-111)" stroke-width="2"/><path d="M376.51515,210.15152v-16.96969h16.96969v16.96969z" fill="url(#color-112)" stroke-width="0"/><path d="M309.16667,234.16667v-21.66667h21.66667v21.66667z" fill="url(#color-113)" stroke-width="2"/><path d="M311.51515,231.81818v-16.96969h16.96969v16.96969z" fill="url(#color-114)" stroke-width="0"/><path d="M330.83333,234.16667v-21.66667h21.66667v21.66667z" fill="url(#color-115)" stroke-width="2"/><path d="M333.18182,231.81818v-16.96969h16.96969v16.96969z" fill="url(#color-116)" stroke-width="0"/><path d="M309.16667,255.83333v-21.66667h21.66667v21.66667z" fill="url(#color-117)" stroke-width="2"/><path d="M311.51515,253.48485v-16.96969h16.96969v16.96969z" fill="url(#color-118)" stroke-width="0"/><path d="M330.83333,255.83333v-21.66667h21.66667v21.66667z" fill="url(#color-119)" stroke-width="2"/><path d="M333.18182,253.48485v-16.96969h16.96969v16.96969z" fill="url(#color-120)" stroke-width="0"/><path d="M352.5,234.16667v-21.66667h21.66667v21.66667z" fill="url(#color-121)" stroke-width="2"/><path d="M354.84848,231.81818v-16.96969h16.96969v16.96969z" fill="url(#color-122)" stroke-width="0"/><path d="M374.16667,234.16667v-21.66667h21.66667v21.66667z" fill="url(#color-123)" stroke-width="2"/><path d="M376.51515,231.81818v-16.96969h16.96969v16.96969z" fill="url(#color-124)" stroke-width="0"/><path d="M352.5,255.83333v-21.66667h21.66667v21.66667z" fill="url(#color-125)" stroke-width="2"/><path d="M354.84848,253.48485v-16.96969h16.96969v16.96969z" fill="url(#color-126)" stroke-width="0"/><path d="M374.16667,255.83333v-21.66667h21.66667v21.66667z" fill="url(#color-127)" stroke-width="2"/><path d="M376.51515,253.48485v-16.96969h16.96969v16.96969z" fill="url(#color-128)" stroke-width="0"/><path d="M395.83333,104.16667v-21.66667h21.66667v21.66667z" fill="url(#color-129)" stroke-width="2"/><path d="M398.18182,101.81818v-16.96969h16.96969v16.96969z" fill="url(#color-130)" stroke-width="0"/><path d="M395.83333,125.83333v-21.66667h21.66667v21.66667z" fill="url(#color-131)" stroke-width="2"/><path d="M398.18182,123.48485v-16.96969h16.96969v16.96969z" fill="url(#color-132)" stroke-width="0"/><path d="M395.83333,147.5v-21.66667h21.66667v21.66667z" fill="url(#color-133)" stroke-width="2"/><path d="M398.18182,145.15152v-16.96969h16.96969v16.96969z" fill="url(#color-134)" stroke-width="0"/><path d="M395.83333,169.16667v-21.66667h21.66667v21.66667z" fill="url(#color-135)" stroke-width="2"/><path d="M398.18182,166.81818v-16.96969h16.96969v16.96969z" fill="url(#color-136)" stroke-width="0"/><path d="M395.83333,190.83333v-21.66667h21.66667v21.66667z" fill="url(#color-137)" stroke-width="2"/><path d="M398.18182,188.48485v-16.96969h16.96969v16.96969z" fill="url(#color-138)" stroke-width="0"/><path d="M395.83333,212.5v-21.66667h21.66667v21.66667z" fill="url(#color-139)" stroke-width="2"/><path d="M398.18182,210.15152v-16.96969h16.96969v16.96969z" fill="url(#color-140)" stroke-width="0"/><path d="M395.83333,234.16667v-21.66667h21.66667v21.66667z" fill="url(#color-141)" stroke-width="2"/><path d="M398.18182,231.81818v-16.96969h16.96969v16.96969z" fill="url(#color-142)" stroke-width="0"/><path d="M395.83333,255.83333v-21.66667h21.66667v21.66667z" fill="url(#color-143)" stroke-width="2"/><path d="M398.18182,253.48485v-16.96969h16.96969v16.96969z" fill="url(#color-144)" stroke-width="0"/><path d="M222.5,277.5v-21.66667h21.66667v21.66667z" fill="url(#color-145)" stroke-width="2"/><path d="M224.84848,275.15152v-16.96969h16.96969v16.96969z" fill="url(#color-146)" stroke-width="0"/><path d="M244.16667,277.5v-21.66667h21.66667v21.66667z" fill="url(#color-147)" stroke-width="2"/><path d="M246.51515,275.15152v-16.96969h16.96969v16.96969z" fill="url(#color-148)" stroke-width="0"/><path d="M265.83333,277.5v-21.66667h21.66667v21.66667z" fill="url(#color-149)" stroke-width="2"/><path d="M268.18182,275.15152v-16.96969h16.96969v16.96969z" fill="url(#color-150)" stroke-width="0"/><path d="M287.5,277.5v-21.66667h21.66667v21.66667z" fill="url(#color-151)" stroke-width="2"/><path d="M289.84848,275.15152v-16.96969h16.96969v16.96969z" fill="url(#color-152)" stroke-width="0"/><path d="M309.16667,277.5v-21.66667h21.66667v21.66667z" fill="url(#color-153)" stroke-width="2"/><path d="M311.51515,275.15152v-16.96969h16.96969v16.96969z" fill="url(#color-154)" stroke-width="0"/><path d="M330.83333,277.5v-21.66667h21.66667v21.66667z" fill="url(#color-155)" stroke-width="2"/><path d="M333.18182,275.15152v-16.96969h16.96969v16.96969z" fill="url(#color-156)" stroke-width="0"/><path d="M352.5,277.5v-21.66667h21.66667v21.66667z" fill="url(#color-157)" stroke-width="2"/><path d="M354.84848,275.15152v-16.96969h16.96969v16.96969z" fill="url(#color-158)" stroke-width="0"/><path d="M374.16667,277.5v-21.66667h21.66667v21.66667z" fill="url(#color-159)" stroke-width="2"/><path d="M376.51515,275.15152v-16.96969h16.96969v16.96969z" fill="url(#color-160)" stroke-width="0"/><path d="M395.83333,277.5v-21.66667h21.66667v21.66667z" fill="url(#color-161)" stroke-width="2"/><path d="M398.18182,275.15152v-16.96969h16.96969v16.96969z" fill="url(#color-162)" stroke-width="0"/></g></g></svg>