<svg version="1.1" xmlns="http://www.w3.org/2000/svg" xmlns:xlink="http://www.w3.org/1999/xlink" width="642.44055" height="363.95748" viewBox="0,0,642.44055,363.95748"><g transform="translate(0.71972,1.47774)"><g fill="#fcb1e3" stroke="#ff0000" stroke-width="2" stroke-miterlimit="10"><path d="M119.16682,299.47873l25.98111,12.11291l69.83622,5.84317l13.23191,-3.03752l14.8133,-2.84189l13.46502,-4.69828l31.31229,-16.17325l5.03386,-2.69783l4.14721,-12.04611l-8.20893,-4.62453l-28.6771,-10.83225l-15.88297,4.44127l-12.72369,5.53496l-9.48834,-1.98979l-2.84551,0.02394l-3.85599,-1.53885l-14.55874,-3.58195l-17.55924,-5.471l-3.59735,-1.58888l-0.48833,-2.06096l-0.9003,-15.30104l-0.03228,-8.59954l1,-3l0.1196,-13.23316l2.80188,-7.43128l0.71017,-2.6876l7.86155,-9.49769l2.69951,-3.68179l11.56607,-7.01532l19.52428,-11.30472l8.09098,-4.19488l8.00066,-1.79734l29.15758,-3.05669l16.69455,-0.01873l7.99075,1.99885l3.14017,0.03459l-0.17293,0.49047l85.22908,10.97047l2.88207,-2.89956l30.13214,-72.91633l23.06192,-9.93963h35.29411l6.42726,0.42908l6.78979,4.11718l8.39738,5.01219l5.07536,14.21972l0.88235,14.79661l-2.70126,11.85057l0.12912,4.57465v10.58823v50.29412l-0.12912,5.13124l-2.51793,12.51583l-0.12912,14.83712l-3.52941,10.58823l0.0542,8.44353l-7.11839,17.28933l-9.64329,15.49986l-2.85703,3.9424l-1.77106,0.76358l-0.62666,2.2968l0.91968,6.2113l14.8644,-13.79008l2.44855,-4.81053l4.27477,-6.82562l1.5883,-4.91643l4.33107,-8.75216l0.36777,-4.44497l1.70268,-8.91139l-0.01355,-14.905l1.03228,-13.40045l0.01952,-26.16788l1.9482,-9.43167l0.03439,-16.42725l0.98938,-9.76701l0.00851,-12.2062v-35v-10l-0.1903,-4.95671l-8.06592,-6.21193l-3.39595,-2.16532l-4.66818,-0.87023l-1.71787,-1.82391l-4.88739,-2.40502l-2.84992,0.04039l-3,-2l-5.72446,-0.10727l-16.34818,0.03206l-4.89817,0.98011l-9.10299,0.02001l-14.46238,2.67215l-12.50261,3.66905l-7.71985,11.60758l-8.32997,21.70613l-2.01651,9.0497l-4.29582,8.71724l-3.70898,9.18369l-5.14366,8.77719l-1.20815,4.84103l-2.48102,4.09114l-1.30775,2.82692l-13.76489,-3.64466l-18.28384,-0.35798l-14.18886,-4.73591l-17.90453,-0.27839l-8.84039,-2.4792l-0.05832,-4.60348l2,-4l0.04814,-3.26892l0.98636,-25.65669l-0.97979,-4.89511l-0.36554,-9.07498l-9.96784,-4.89616l-17.68168,-8.2374l-15.67897,0.9634l-7.09926,0.01022l-8,2l-10.89339,-0.01081l-12.97861,1.99838l-13.11028,0.29789l-18.71227,1.6958l-10.30545,0.01873l-4,1l-9.04028,0.00529l-25.00878,7.00124l-25.64549,0.97474l-2.5,2.5l2.5,2.5l26.35452,-1.02526l12.25432,-4.05001l4.8613,-0.68659l7.87561,-2.26216l8.95972,0.0053l4,-1l9.69454,0.01873l19.18723,-1.71841l12.99023,-0.28789l13.02139,-2.00162l11.10662,-0.01081l8,-2l6.90074,0.01021l14.32103,-1.03659l16.31832,7.76259l8.03217,3.10384l-0.37772,1.67867l1.00002,13.00783l0.01871,17.6867l-1,4l0.04815,2.73108l-2,4l-0.0346,5.17393l-0.01038,0.08203l-4.2072,-0.02676l-8.00925,-2.00116l-17.30546,-0.01873l-30.26424,3.1807l-8.57752,1.96528l-8.7469,4.484l-19.95834,11.56341l-12.11343,7.43767l-3.30049,4.31821l-8.38541,10.311l-1.04287,3.50372l-2.91203,7.85349l-0.16649,13.48208l-1,3l-0.03228,9.40045l1.0997,16.69897l1.51166,3.93904l14.11946,5.74073l19.12858,5.0378l9.18064,3.04079l3.15449,0.02394l16.07584,1.05196l21.82916,-9.06551l27.32932,10.41159l4.49709,2.14018l1.28756,-0.00854l-1.41495,2.88497l-1.69867,3.60757l-3.87973,1.83513l-4.38734,2.53505l-26.27546,13.34354l-13.32974,4.6504l-14.24243,2.68597l-12.76809,2.96248l-67.56172,-5.57425l-25.45377,-11.88608zM155.4688,77.0147l-1.51573,-41.11141l-30.58077,0.7147l0.35035,39.96468zM397.71309,330.31217l-43.05284,0.56288c0,0 -12.48247,-1.24781 -12.61589,11.59011c-0.11165,10.74262 11.41057,12.66149 11.41057,12.66149l43.94857,-0.53172c0,0 7.99486,-2.37455 8.65566,-12.7909c0.34724,-7.67976 -8.34606,-11.49185 -8.34606,-11.49185zM449.65608,2.37858l-138.51903,-0.06934l0.06933,29.12067l138.21341,-1.52361zM84.48807,36.65707l-0.03777,40.62684l33.98173,-0.6723l-0.06079,-40.15606zM550.18938,331.45869l-66.21035,-0.80499c0,0 -8.1001,2.70835 -7.83299,11.68975c0.28212,9.48617 9.8664,11.37014 9.8664,11.37014l62.68949,0.64128c0,0 10.9266,-0.56395 10.68316,-11.22003c-0.24766,-10.84107 -9.19571,-11.67615 -9.19571,-11.67615zM111.66799,4.19794l0.62153,26.30063l62.93069,-0.50446l-0.0018,-25.52095zM81.39353,324.14315l479.52874,-2.60103l0.11181,-238.40333l-480.80664,-0.84919zM305.4083,30.02191l0.00517,-25.47118l-124.00042,-0.04447l0.08535,25.49182zM187.3865,330.45755l-32.64249,0.52027c0,0 -8.84504,-0.67813 -8.44574,12.79315c0.35458,11.96242 7.84795,9.88779 7.84795,9.88779l34.34966,0.51576c0,0 10.4205,0.06831 10.59299,-12.93077c0.15493,-11.67625 -11.70236,-10.78618 -11.70236,-10.78618zM212.03021,354.70561l45.49902,0.06051c0,0 9.81529,-0.25677 9.49493,-12.63214c-0.31538,-12.18293 -9.41877,-11.10123 -9.41877,-11.10123l-45.39321,0.35372c0,0 -7.74084,1.25588 -7.26952,12.05242c0.35171,8.05669 7.08756,11.26671 7.08756,11.26671zM523.89892,242.86854l1.40429,-45.26731l-47.65304,0.82715l-0.25,45.26732zM195.60014,35.2347l1.7515,40.41554l30.28003,1.6265l1.2515,-41.22114zM150.893,90.82257l-61.31156,-0.25l0.25,57.30706l61.31157,0.25zM228.14482,204.01692l1.50104,-55.29588l-62.30212,1.50105l-1.50104,55.29587zM157.03158,34.49621l-0.07944,46.99978l37.55313,-1.01709l-0.01559,-46.10648zM231.82977,76.27863l32.03153,-1.5015l-1.00921,-38.31987l-30.77232,1.03233zM99.5775,330.21952c0,0 -13.19595,-0.33019 -13.05554,12.33008c0.1357,12.23563 11.80404,11.44394 11.80404,11.44394l33.28303,0.25c0,0 8.83801,-0.63325 8.54897,-10.6399c-0.41795,-14.46975 -10.30047,-13.13413 -10.30047,-13.13413zM500.58761,314.86008l0.25,-41.80444l-46.49875,-0.32715l-0.25,42.38159zM421.59956,340.64143l-4.38612,14.78389l-0.49086,-10.56012l-5.58371,-0.36879l1.11026,-13.21291l4.51218,-1.10162l-0.92428,10.31548zM411.7557,195.87006l1.40429,-46.99875l-55.15592,-0.32715l-0.82715,46.42161zM322.36201,136.16956l0.25,-51.54274l-59.80004,0.25l-0.25,51.54275zM434.70912,347.31783l-10.51321,-6.92548zM309.63259,313.76862l-1.00104,-61.55108l-57.29795,0.25l-0.25,60.30005zM426.03015,349.62865l6.28157,-11.4873zM146.28654,318.39304l-1.00104,-46.53857l-44.78753,0.25l1.00105,46.53857zM524.90162,159.68573l0.25,-45.84446l-47.65304,-0.90429l0.32714,46.42161zM329.84936,353.21148c0,0 7.5476,-2.51207 7.51403,-11.94869c-0.0274,-7.70227 -10.19945,-9.50157 -10.19945,-9.50157l-41.49821,-2.35926c0,0 -11.74838,1.02463 -11.63079,12.41177c0.1252,12.12394 11.05463,12.95239 11.05463,12.95239zM640.31999,361.47775l-640.03949,-1.27473l-0.00022,-360.22055l640.43944,-0.45949z"/></g></g></svg>