<svg version="1.1" xmlns="http://www.w3.org/2000/svg" xmlns:xlink="http://www.w3.org/1999/xlink" width="30.29724" height="16.66858" viewBox="0,0,30.29724,16.66858"><g transform="translate(-304.60642,-171.66571)"><g stroke-miterlimit="10"><path d="M313.43062,188.3343v-16.66858h13.13876v16.66858z" fill="#000000" stroke="#000000" stroke-width="0"/><path d="M305.09632,180.00001c0,-4.6029 3.73139,-8.33429 8.33429,-8.33429c4.6029,0 8.33429,3.73139 8.33429,8.33429c0,4.6029 -3.73139,8.33429 -8.33429,8.33429c-4.6029,0 -8.33429,-3.73139 -8.33429,-8.33429z" fill="#000000" stroke="none" stroke-width="0"/><path d="M318.23509,180.00001c0,-4.6029 3.73139,-8.33429 8.33429,-8.33429c4.6029,0 8.33429,3.73139 8.33429,8.33429c0,4.6029 -3.73139,8.33429 -8.33429,8.33429c-4.6029,0 -8.33429,-3.73139 -8.33429,-8.33429z" fill="#000000" stroke="none" stroke-width="0"/><text transform="translate(328.05875,186.36616) rotate(-89.90363) scale(0.54489,0.54489)" font-size="40" xml:space="preserve" fill="#ffffff" stroke="none" stroke-width="1" font-family="Sans Serif" font-weight="normal" text-anchor="start"><tspan x="0" dy="0">8</tspan></text></g></g></svg>