<svg version="1.1" xmlns="http://www.w3.org/2000/svg" xmlns:xlink="http://www.w3.org/1999/xlink" width="65.72201" height="78.48668" viewBox="0,0,65.72201,78.48668"><defs><linearGradient x1="320.00147" y1="147.45425" x2="320.00147" y2="212.54728" gradientTransform="translate(-204.57639,-139.15542) scale(0.70899,0.70899)" gradientUnits="userSpaceOnUse" id="color-1"><stop offset="0" stop-color="#1a1a1a" stop-opacity="0.33333"/><stop offset="1" stop-color="#ffffff" stop-opacity="0.33333"/></linearGradient><linearGradient x1="320.26289" y1="154.9737" x2="320.26289" y2="186.09876" gradientUnits="userSpaceOnUse" id="color-2"><stop offset="0" stop-color="#ff0000"/><stop offset="1" stop-color="#cc00ff"/></linearGradient><linearGradient x1="294.01668" y1="160.35518" x2="305.01779" y2="160.35518" gradientUnits="userSpaceOnUse" id="color-3"><stop offset="0" stop-color="#ff0000"/><stop offset="1" stop-color="#cc00ff"/></linearGradient><linearGradient x1="299.51724" y1="194.23157" x2="299.51724" y2="205.05804" gradientUnits="userSpaceOnUse" id="color-4"><stop offset="0" stop-color="#cc00ff"/><stop offset="1" stop-color="#ff0000"/></linearGradient><linearGradient x1="340.48278" y1="154.94194" x2="340.48278" y2="165.76842" gradientUnits="userSpaceOnUse" id="color-5"><stop offset="0" stop-color="#ff0000"/><stop offset="1" stop-color="#cc00ff"/></linearGradient><linearGradient x1="334.98223" y1="199.64482" x2="345.98334" y2="199.64482" gradientUnits="userSpaceOnUse" id="color-6"><stop offset="0" stop-color="#cc00ff"/><stop offset="1" stop-color="#ff0000"/></linearGradient><linearGradient x1="320.00006" y1="186.04607" x2="320.00006" y2="202.92772" gradientTransform="translate(-578.72217,-543.21378) scale(1.92957,2.73373)" gradientUnits="userSpaceOnUse" id="color-7"><stop offset="0" stop-color="#ff0000"/><stop offset="1" stop-color="#cc00ff"/></linearGradient></defs><g transform="translate(-287.84158,-135.15683)"><g stroke-miterlimit="10"><path d="M291.82694,205.38463v-50.76923h58.07692v50.76923z" fill="#fcb1e3" fill-rule="nonzero" stroke="#ff0000" stroke-width="0" stroke-linecap="butt"/><text transform="translate(288.54681,196.27315) scale(1.41046,1.41046)" font-size="40" xml:space="preserve" fill="url(#color-1)" fill-rule="nonzero" stroke-opacity="0.33333" stroke="#000000" stroke-width="1" stroke-linecap="butt" font-family="Sans Serif" font-weight="normal" text-anchor="start"><tspan x="0" dy="0">x3</tspan></text><g><path d="M333.14357,178.2294l-9.94435,-9.94435l-7.20378,7.20378l6.69483,6.69483h6.45991zM337.29359,176.81996c0.74388,0.78302 0.74388,2.03586 0,2.77973l-5.95096,5.91181c-0.35237,0.39152 -0.86131,0.58727 -1.37028,0.58727h-8.10426c-0.50897,0 -1.01793,-0.19575 -1.37028,-0.58727l-10.02267,-10.02267l-7.24294,-7.20378c-0.74388,-0.74388 -0.74388,-1.99671 0,-2.74058l9.98351,-9.98351c0.78302,-0.78302 2.03586,-0.78302 2.77973,0l7.20378,7.20378z" fill="url(#color-2)" fill-rule="evenodd" stroke="none" stroke-width="1" stroke-linecap="butt"/><path d="M294.01668,165.76842v-10.82648h11.00111" fill="none" fill-rule="nonzero" stroke="url(#color-3)" stroke-width="2" stroke-linecap="round"/><path d="M305.01779,205.05804h-11.00111v-10.82648" fill="none" fill-rule="nonzero" stroke="url(#color-4)" stroke-width="2" stroke-linecap="round"/><path d="M334.98223,154.94194h11.00111v10.82648" fill="none" fill-rule="nonzero" stroke="url(#color-5)" stroke-width="2" stroke-linecap="round"/><path d="M345.98334,194.23157v10.82649h-11.00111" fill="none" fill-rule="nonzero" stroke="url(#color-6)" stroke-width="2" stroke-linecap="round"/><text transform="translate(299.92277,198.7076) scale(0.51825,0.3658)" font-size="40" xml:space="preserve" fill="url(#color-7)" fill-rule="nonzero" stroke="#000000" stroke-width="0.5" stroke-linecap="butt" font-family="Sans Serif" font-weight="normal" text-anchor="start"><tspan x="0" dy="0">grid</tspan></text></g></g></g></svg>