<svg version="1.1" xmlns="http://www.w3.org/2000/svg" xmlns:xlink="http://www.w3.org/1999/xlink" width="475.43769" height="273.54562" viewBox="0,0,475.43769,273.54562"><g transform="translate(-85.65991,-32.7269)"><g stroke-miterlimit="10"><path d="M404.90997,86.78139v-17.73195h153.61191v17.73195z" fill="#fcb1e3" stroke="none" stroke-width="0" stroke-linecap="butt"/><path d="M87.40991,304.52252v-216.01201h449.54867v216.01201z" fill="none" stroke="#ff0000" stroke-width="3.5" stroke-linecap="butt"/><path d="M403.41732,80.92094c11.69532,-0.01819 10.96576,-11.4093 10.96576,-11.4093v-28.54989c0,0 -0.71867,-2.20094 1.72145,-5.32008c2.11839,-2.46837 6.5072,-1.84441 6.5072,-1.84441h137.48587" fill="none" stroke="#ff0000" stroke-width="2" stroke-linecap="round"/><path d="M120.44295,304.52252v-216.01201h416.51563v216.01201z" fill="none" stroke="#ff0000" stroke-width="3.5" stroke-linecap="butt"/><path d="M157.98048,304.52252v-216.01201h378.97809v216.01201z" fill="none" stroke="#ff0000" stroke-width="3.5" stroke-linecap="butt"/><path d="M197.01953,304.52252v-216.01201h339.93905v216.01201z" fill="none" stroke="#ff0000" stroke-width="3.5" stroke-linecap="butt"/><path d="M236.05857,304.52252v-216.01201h300.90001v216.01201z" fill="none" stroke="#ff0000" stroke-width="3.5" stroke-linecap="butt"/><path d="M316.997,304.52252v-216.01201h219.96158v216.01201z" fill="none" stroke="#ff0000" stroke-width="3.5" stroke-linecap="butt"/><path d="M275.09761,304.52252v-216.01201h261.86097v216.01201z" fill="none" stroke="#ff0000" stroke-width="3.5" stroke-linecap="butt"/><path d="M358.28829,304.52252v-216.01201h178.67028v216.01201z" fill="none" stroke="#ff0000" stroke-width="3.5" stroke-linecap="butt"/><path d="M400.33033,304.52252v-216.01201h136.62825v216.01201z" fill="none" stroke="#ff0000" stroke-width="3.5" stroke-linecap="butt"/><path d="M443.87388,304.52252v-216.01201h93.0847v216.01201z" fill="none" stroke="#ff0000" stroke-width="3.5" stroke-linecap="butt"/><path d="M491.92193,304.52252v-216.01201h45.03665v216.01201z" fill="none" stroke="#ff0000" stroke-width="3.5" stroke-linecap="butt"/><path d="M87.40991,304.52252v-178.47447h449.54867v178.47447z" fill="none" stroke="#ff0000" stroke-width="3.5" stroke-linecap="butt"/><path d="M120.44295,304.52252v-178.47447h416.51563v178.47447z" fill="none" stroke="#ff0000" stroke-width="3.5" stroke-linecap="butt"/><path d="M157.98048,304.52252v-178.47447h378.97809v178.47447z" fill="none" stroke="#ff0000" stroke-width="3.5" stroke-linecap="butt"/><path d="M197.01953,304.52252v-178.47447h339.93905v178.47447z" fill="none" stroke="#ff0000" stroke-width="3.5" stroke-linecap="butt"/><path d="M236.05857,304.52252v-178.47447h300.90001v178.47447z" fill="none" stroke="#ff0000" stroke-width="3.5" stroke-linecap="butt"/><path d="M316.997,304.52252v-178.47447h219.96158v178.47447z" fill="none" stroke="#ff0000" stroke-width="3.5" stroke-linecap="butt"/><path d="M275.09761,304.52252v-178.47447h261.86097v178.47447z" fill="none" stroke="#ff0000" stroke-width="3.5" stroke-linecap="butt"/><path d="M358.28829,304.52252v-178.47447h178.67028v178.47447z" fill="none" stroke="#ff0000" stroke-width="3.5" stroke-linecap="butt"/><path d="M400.33033,304.52252v-178.47447h136.62825v178.47447z" fill="none" stroke="#ff0000" stroke-width="3.5" stroke-linecap="butt"/><path d="M443.87388,304.52252v-178.47447h93.0847v178.47447z" fill="none" stroke="#ff0000" stroke-width="3.5" stroke-linecap="butt"/><path d="M491.92193,304.52252v-178.47447h45.03665v178.47447z" fill="none" stroke="#ff0000" stroke-width="3.5" stroke-linecap="butt"/><path d="M87.40991,304.52252v-137.93393h449.54867v137.93393z" fill="none" stroke="#ff0000" stroke-width="3.5" stroke-linecap="butt"/><path d="M120.44295,304.52252v-137.93393h416.51563v137.93393z" fill="none" stroke="#ff0000" stroke-width="3.5" stroke-linecap="butt"/><path d="M157.98048,304.52252v-137.93393h378.97809v137.93393z" fill="none" stroke="#ff0000" stroke-width="3.5" stroke-linecap="butt"/><path d="M197.01953,304.52252v-137.93393h339.93905v137.93393z" fill="none" stroke="#ff0000" stroke-width="3.5" stroke-linecap="butt"/><path d="M236.05857,304.52252v-137.93393h300.90001v137.93393z" fill="none" stroke="#ff0000" stroke-width="3.5" stroke-linecap="butt"/><path d="M316.997,304.52252v-137.93393h219.96158v137.93393z" fill="none" stroke="#ff0000" stroke-width="3.5" stroke-linecap="butt"/><path d="M275.09761,304.52252v-137.93393h261.86097v137.93393z" fill="none" stroke="#ff0000" stroke-width="3.5" stroke-linecap="butt"/><path d="M358.28829,304.52252v-137.93393h178.67028v137.93393z" fill="none" stroke="#ff0000" stroke-width="3.5" stroke-linecap="butt"/><path d="M400.33033,304.52252v-137.93393h136.62825v137.93393z" fill="none" stroke="#ff0000" stroke-width="3.5" stroke-linecap="butt"/><path d="M443.87388,304.52252v-137.93393h93.0847v137.93393z" fill="none" stroke="#ff0000" stroke-width="3.5" stroke-linecap="butt"/><path d="M491.92193,304.52252v-137.93393h45.03665v137.93393z" fill="none" stroke="#ff0000" stroke-width="3.5" stroke-linecap="butt"/><path d="M87.40991,304.52252v-95.89189h449.54867v95.89189z" fill="none" stroke="#ff0000" stroke-width="3.5" stroke-linecap="butt"/><path d="M120.44295,304.52252v-95.89189h416.51563v95.89189z" fill="none" stroke="#ff0000" stroke-width="3.5" stroke-linecap="butt"/><path d="M157.98048,304.52252v-95.89189h378.97809v95.89189z" fill="none" stroke="#ff0000" stroke-width="3.5" stroke-linecap="butt"/><path d="M197.01953,304.52252v-95.89189h339.93905v95.89189z" fill="none" stroke="#ff0000" stroke-width="3.5" stroke-linecap="butt"/><path d="M236.05857,304.52252v-95.89189h300.90001v95.89189z" fill="none" stroke="#ff0000" stroke-width="3.5" stroke-linecap="butt"/><path d="M316.997,304.52252v-95.89189h219.96158v95.89189z" fill="none" stroke="#ff0000" stroke-width="3.5" stroke-linecap="butt"/><path d="M275.09761,304.52252v-95.89189h261.86097v95.89189z" fill="none" stroke="#ff0000" stroke-width="3.5" stroke-linecap="butt"/><path d="M358.28829,304.52252v-95.89189h178.67028v95.89189z" fill="none" stroke="#ff0000" stroke-width="3.5" stroke-linecap="butt"/><path d="M400.33033,304.52252v-95.89189h136.62825v95.89189z" fill="none" stroke="#ff0000" stroke-width="3.5" stroke-linecap="butt"/><path d="M443.87388,304.52252v-95.89189h93.0847v95.89189z" fill="none" stroke="#ff0000" stroke-width="3.5" stroke-linecap="butt"/><path d="M491.92193,304.52252v-95.89189h45.03665v95.89189z" fill="none" stroke="#ff0000" stroke-width="3.5" stroke-linecap="butt"/><path d="M87.40991,304.52252v-53.84985h449.54867v53.84985z" fill="none" stroke="#ff0000" stroke-width="3.5" stroke-linecap="butt"/><path d="M120.44295,304.52252v-53.84985h416.51563v53.84985z" fill="none" stroke="#ff0000" stroke-width="3.5" stroke-linecap="butt"/><path d="M157.98048,304.52252v-53.84985h378.97809v53.84985z" fill="none" stroke="#ff0000" stroke-width="3.5" stroke-linecap="butt"/><path d="M197.01953,304.52252v-53.84985h339.93905v53.84985z" fill="none" stroke="#ff0000" stroke-width="3.5" stroke-linecap="butt"/><path d="M236.05857,304.52252v-53.84985h300.90001v53.84985z" fill="none" stroke="#ff0000" stroke-width="3.5" stroke-linecap="butt"/><path d="M316.997,304.52252v-53.84985h219.96158v53.84985z" fill="none" stroke="#ff0000" stroke-width="3.5" stroke-linecap="butt"/><path d="M275.09761,304.52252v-53.84985h261.86097v53.84985z" fill="none" stroke="#ff0000" stroke-width="3.5" stroke-linecap="butt"/><path d="M358.28829,304.52252v-53.84985h178.67028v53.84985z" fill="none" stroke="#ff0000" stroke-width="3.5" stroke-linecap="butt"/><path d="M400.33033,304.52252v-53.84985h136.62825v53.84985z" fill="none" stroke="#ff0000" stroke-width="3.5" stroke-linecap="butt"/><path d="M443.87388,304.52252v-53.84985h93.0847v53.84985z" fill="none" stroke="#ff0000" stroke-width="3.5" stroke-linecap="butt"/><path d="M491.92193,304.52252v-53.84985h45.03665v53.84985z" fill="none" stroke="#ff0000" stroke-width="3.5" stroke-linecap="butt"/><path d="M87.40991,304.52252v-14.81081h449.54867v14.81081z" fill="#ff0000" stroke="#ff0000" stroke-width="3.5" stroke-linecap="butt"/><path d="M120.44295,304.52252v-14.81081h416.51563v14.81081z" fill="#ff0000" stroke="#ff0000" stroke-width="3.5" stroke-linecap="butt"/><path d="M157.98048,304.52252v-14.81081h378.97809v14.81081z" fill="#ff0000" stroke="#ff0000" stroke-width="3.5" stroke-linecap="butt"/><path d="M197.01953,304.52252v-14.81081h339.93905v14.81081z" fill="#ff0000" stroke="#ff0000" stroke-width="3.5" stroke-linecap="butt"/><path d="M236.05857,304.52252v-14.81081h300.90001v14.81081z" fill="#ff0000" stroke="#ff0000" stroke-width="3.5" stroke-linecap="butt"/><path d="M316.997,304.52252v-14.81081h219.96158v14.81081z" fill="#ff0000" stroke="#ff0000" stroke-width="3.5" stroke-linecap="butt"/><path d="M275.09761,304.52252v-14.81081h261.86097v14.81081z" fill="#ff0000" stroke="#ff0000" stroke-width="3.5" stroke-linecap="butt"/><path d="M358.28829,304.52252v-14.81081h178.67028v14.81081z" fill="#ff0000" stroke="#ff0000" stroke-width="3.5" stroke-linecap="butt"/><path d="M400.33033,304.52252v-14.81081h136.62825v14.81081z" fill="#ff0000" stroke="#ff0000" stroke-width="3.5" stroke-linecap="butt"/><path d="M443.87388,304.52252v-14.81081h93.0847v14.81081z" fill="#ff0000" stroke="#ff0000" stroke-width="3.5" stroke-linecap="butt"/><path d="M491.92193,304.52252v-14.81081h45.03665v14.81081z" fill="#ff0000" stroke="#ff0000" stroke-width="3.5" stroke-linecap="butt"/><g stroke-width="1" stroke-linecap="butt"><text transform="translate(274.79783,301.08766) scale(0.37599,0.37599)" font-size="40" xml:space="preserve" fill="#000000" stroke="none" font-family="Sans Serif" font-weight="normal" text-anchor="start"><tspan x="0" dy="0">c  le pripri</tspan></text><path d="M273.09802,296.89853c0,-3.37513 2.73608,-6.11121 6.11121,-6.11121c3.37513,0 6.11121,2.73608 6.11121,6.11121c0,3.37513 -2.73608,6.11121 -6.11121,6.11121c-3.37513,0 -6.11121,-2.73608 -6.11121,-6.11121z" fill="none" stroke="#000000"/></g><path d="M185.68425,292.08695v-193.07043h253v193.07043z" fill="#fcb1e3" stroke="#ff0000" stroke-width="2" stroke-linecap="butt"/><text transform="translate(189.01953,118.2793) scale(0.5,0.5)" font-size="40" xml:space="preserve" fill="#ff0000" stroke="none" stroke-width="1" stroke-linecap="butt" font-family="Sans Serif" font-weight="normal" text-anchor="start"><tspan x="0" dy="0">plus d'énergie !</tspan></text><path d="M185.24766,126.02287h255.78948" fill="none" stroke="#ff0000" stroke-width="2" stroke-linecap="round"/><path d="M438.09932,171.43477h-251.84211" fill="none" stroke="#ff0000" stroke-width="1" stroke-linecap="round"/><text transform="translate(190.99405,163.27988) scale(0.3724,0.3724)" font-size="40" xml:space="preserve" fill="#ff0000" stroke="none" stroke-width="1" stroke-linecap="butt" font-family="Sans Serif" font-weight="normal" text-anchor="start"><tspan x="0" dy="0">jouer au jeux</tspan></text><path d="M186.25721,147.30433h251.84211" fill="none" stroke="#ff0000" stroke-width="1" stroke-linecap="round"/><text transform="translate(190.99405,141.10596) scale(0.3724,0.3724)" font-size="40" xml:space="preserve" fill="#ff0000" stroke="none" stroke-width="1" stroke-linecap="butt" font-family="Sans Serif" font-weight="normal" text-anchor="start"><tspan x="0" dy="0">trouver de l'énergie :</tspan></text><path d="M186.25721,194.91303h251.84211" fill="none" stroke="#ff0000" stroke-width="1" stroke-linecap="round"/><text transform="translate(190.99405,186.75814) scale(0.3724,0.3724)" font-size="40" xml:space="preserve" fill="#ff0000" stroke="none" stroke-width="1" stroke-linecap="butt" font-family="Sans Serif" font-weight="normal" text-anchor="start"><tspan x="0" dy="0">autres récomp.</tspan></text><path d="M438.09932,219.69564h-251.84211" fill="none" stroke="#ff0000" stroke-width="1" stroke-linecap="round"/><text transform="translate(190.99405,211.54075) scale(0.3724,0.3724)" font-size="40" xml:space="preserve" fill="#ff0000" stroke="none" stroke-width="1" stroke-linecap="butt" font-family="Sans Serif" font-weight="normal" text-anchor="start"><tspan x="0" dy="0">demande +1</tspan></text><path d="M186.25721,243.82608h251.84211" fill="none" stroke="#ff0000" stroke-width="1" stroke-linecap="round"/><text transform="translate(190.99405,235.67118) scale(0.3724,0.3724)" font-size="40" xml:space="preserve" fill="#ff0000" stroke="none" stroke-width="1" stroke-linecap="butt" font-family="Sans Serif" font-weight="normal" text-anchor="start"><tspan x="0" dy="0">demande +2</tspan></text><path d="M186.25721,267.95651h251.84211" fill="none" stroke="#ff0000" stroke-width="1" stroke-linecap="round"/><text transform="translate(190.99405,259.80162) scale(0.3724,0.3724)" font-size="40" xml:space="preserve" fill="#ff0000" stroke="none" stroke-width="1" stroke-linecap="butt" font-family="Sans Serif" font-weight="normal" text-anchor="start"><tspan x="0" dy="0">demande +5</tspan></text><path d="M438.09932,292.08695h-251.84211" fill="none" stroke="#ff0000" stroke-width="1" stroke-linecap="round"/><text transform="translate(190.99405,283.93205) scale(0.3724,0.3724)" font-size="40" xml:space="preserve" fill="#ff0000" stroke="none" stroke-width="1" stroke-linecap="butt" font-family="Sans Serif" font-weight="normal" text-anchor="start"><tspan x="0" dy="0">demande +10</tspan></text><path d="M312.17826,147.95651v144.13044" fill="none" stroke="#ff0000" stroke-width="1" stroke-linecap="round"/><text transform="translate(316.997,164.24855) scale(0.3724,0.3724)" font-size="40" xml:space="preserve" fill="#ff0000" stroke="none" stroke-width="1" stroke-linecap="butt" font-family="Sans Serif" font-weight="normal" text-anchor="start"><tspan x="0" dy="0">tetris  bk. puzzle</tspan></text><text transform="translate(326.64623,187.41031) scale(0.3724,0.3724)" font-size="40" xml:space="preserve" fill="#ff0000" stroke="none" stroke-width="1" stroke-linecap="butt" font-family="Sans Serif" font-weight="normal" text-anchor="start"><tspan x="0" dy="0">sous-onglets</tspan></text><text transform="translate(316.03573,211.54075) scale(0.3724,0.3724)" font-size="40" xml:space="preserve" fill="#ff0000" stroke="none" stroke-width="1" stroke-linecap="butt" font-family="Sans Serif" font-weight="normal" text-anchor="start"><tspan x="0" dy="0">demander 100</tspan></text><g stroke-width="1" stroke-linecap="butt"><path d="M421.97612,206.93284c0,-3.704 3.00268,-6.70668 6.70668,-6.70668c3.704,0 6.70668,3.00268 6.70668,6.70668c0,3.704 -3.00268,6.70668 -6.70668,6.70668c-3.704,0 -6.70668,-3.00268 -6.70668,-6.70668z" fill="#ffff00" stroke="#000000"/><text transform="translate(426.77186,210.17118) scale(0.26126,0.26126)" font-size="40" xml:space="preserve" fill="#000000" stroke="none" font-family="Sans Serif" font-weight="normal" text-anchor="start"><tspan x="0" dy="0">I</tspan></text></g><text transform="translate(316.03573,236.04892) scale(0.3724,0.3724)" font-size="40" xml:space="preserve" fill="#ff0000" stroke="none" stroke-width="1" stroke-linecap="butt" font-family="Sans Serif" font-weight="normal" text-anchor="start"><tspan x="0" dy="0">demander 200</tspan></text><g stroke-width="1" stroke-linecap="butt"><path d="M421.97613,231.44101c0,-3.70399 3.00268,-6.70667 6.70667,-6.70667c3.704,0 6.70668,3.00268 6.70668,6.70667c0,3.70399 -3.00268,6.70668 -6.70668,6.70668c-3.704,0 -6.70667,-3.00269 -6.70667,-6.70668z" fill="#ffff00" stroke="#000000"/><text transform="translate(426.77187,234.67935) scale(0.26126,0.26126)" font-size="40" xml:space="preserve" fill="#000000" stroke="none" font-family="Sans Serif" font-weight="normal" text-anchor="start"><tspan x="0" dy="0">I</tspan></text></g><text transform="translate(316.03573,261.05726) scale(0.3724,0.3724)" font-size="40" xml:space="preserve" fill="#ff0000" stroke="none" stroke-width="1" stroke-linecap="butt" font-family="Sans Serif" font-weight="normal" text-anchor="start"><tspan x="0" dy="0">demander 500</tspan></text><g stroke-width="1" stroke-linecap="butt"><path d="M421.97613,256.44935c0,-3.70399 3.00268,-6.70667 6.70667,-6.70667c3.704,0 6.70668,3.00268 6.70668,6.70667c0,3.704 -3.00268,6.70668 -6.70668,6.70668c-3.704,0 -6.70667,-3.00268 -6.70667,-6.70668z" fill="#ffff00" stroke="#000000"/><text transform="translate(426.77187,259.68769) scale(0.26126,0.26126)" font-size="40" xml:space="preserve" fill="#000000" stroke="none" font-family="Sans Serif" font-weight="normal" text-anchor="start"><tspan x="0" dy="0">I</tspan></text></g><text transform="translate(316.03573,284.56509) scale(0.3724,0.3724)" font-size="40" xml:space="preserve" fill="#ff0000" stroke="none" stroke-width="1" stroke-linecap="butt" font-family="Sans Serif" font-weight="normal" text-anchor="start"><tspan x="0" dy="0">demander   1k</tspan></text><g stroke-width="1" stroke-linecap="butt"><path d="M421.97613,279.95718c0,-3.704 3.00268,-6.70667 6.70667,-6.70667c3.704,0 6.70668,3.00268 6.70668,6.70667c0,3.70399 -3.00268,6.70668 -6.70668,6.70668c-3.704,0 -6.70667,-3.00268 -6.70667,-6.70668z" fill="#ffff00" stroke="#000000"/><text transform="translate(426.77187,283.19552) scale(0.26126,0.26126)" font-size="40" xml:space="preserve" fill="#000000" stroke="none" font-family="Sans Serif" font-weight="normal" text-anchor="start"><tspan x="0" dy="0">I</tspan></text></g><path d="M408.39803,99.54047v25.63568" fill="none" stroke="#ff0000" stroke-width="2" stroke-linecap="round"/><text transform="translate(417.77693,118.30076) scale(0.5,0.5)" font-size="40" xml:space="preserve" fill="#ff0000" stroke="none" stroke-width="1" stroke-linecap="butt" font-family="Sans Serif" font-weight="normal" text-anchor="start"><tspan x="0" dy="0">x</tspan></text></g></g></svg>