<svg version="1.1" xmlns="http://www.w3.org/2000/svg" xmlns:xlink="http://www.w3.org/1999/xlink" width="271.4334" height="274.87337" viewBox="0,0,271.4334,274.87337"><defs><radialGradient cx="242" cy="102" r="19.5" gradientUnits="userSpaceOnUse" id="color-1"><stop offset="0" stop-color="#b100cc"/><stop offset="1" stop-color="#00cb00"/></radialGradient><radialGradient cx="242" cy="102.00001" r="15.27272" gradientUnits="userSpaceOnUse" id="color-2"><stop offset="0" stop-color="#dd00ff"/><stop offset="1" stop-color="#00ff00"/></radialGradient><radialGradient cx="294.37475" cy="102" r="19.5" gradientUnits="userSpaceOnUse" id="color-3"><stop offset="0" stop-color="#b100cc"/><stop offset="1" stop-color="#00cb00"/></radialGradient><radialGradient cx="294.37475" cy="102.00001" r="15.27273" gradientUnits="userSpaceOnUse" id="color-4"><stop offset="0" stop-color="#dd00ff"/><stop offset="1" stop-color="#00ff00"/></radialGradient><radialGradient cx="356.05368" cy="102" r="19.5" gradientUnits="userSpaceOnUse" id="color-5"><stop offset="0" stop-color="#b100cc"/><stop offset="1" stop-color="#00cb00"/></radialGradient><radialGradient cx="356.05368" cy="102.00001" r="15.27273" gradientUnits="userSpaceOnUse" id="color-6"><stop offset="0" stop-color="#dd00ff"/><stop offset="1" stop-color="#00ff00"/></radialGradient><radialGradient cx="242" cy="160.94318" r="19.5" gradientUnits="userSpaceOnUse" id="color-7"><stop offset="0" stop-color="#b100cc"/><stop offset="1" stop-color="#00cb00"/></radialGradient><radialGradient cx="242" cy="160.94319" r="15.27272" gradientUnits="userSpaceOnUse" id="color-8"><stop offset="0" stop-color="#dd00ff"/><stop offset="1" stop-color="#00ff00"/></radialGradient><radialGradient cx="294.37475" cy="160.94318" r="19.5" gradientUnits="userSpaceOnUse" id="color-9"><stop offset="0" stop-color="#b100cc"/><stop offset="1" stop-color="#00cb00"/></radialGradient><radialGradient cx="294.37475" cy="160.94319" r="15.27273" gradientUnits="userSpaceOnUse" id="color-10"><stop offset="0" stop-color="#dd00ff"/><stop offset="1" stop-color="#00ff00"/></radialGradient><radialGradient cx="356.05368" cy="160.94318" r="19.5" gradientUnits="userSpaceOnUse" id="color-11"><stop offset="0" stop-color="#b100cc"/><stop offset="1" stop-color="#00cb00"/></radialGradient><radialGradient cx="356.05368" cy="160.94319" r="15.27273" gradientUnits="userSpaceOnUse" id="color-12"><stop offset="0" stop-color="#dd00ff"/><stop offset="1" stop-color="#00ff00"/></radialGradient><radialGradient cx="242" cy="222.73538" r="19.5" gradientUnits="userSpaceOnUse" id="color-13"><stop offset="0" stop-color="#b100cc"/><stop offset="1" stop-color="#00cb00"/></radialGradient><radialGradient cx="242" cy="222.73539" r="15.27273" gradientUnits="userSpaceOnUse" id="color-14"><stop offset="0" stop-color="#dd00ff"/><stop offset="1" stop-color="#00ff00"/></radialGradient><radialGradient cx="294.37475" cy="222.73538" r="19.5" gradientUnits="userSpaceOnUse" id="color-15"><stop offset="0" stop-color="#b100cc"/><stop offset="1" stop-color="#00cb00"/></radialGradient><radialGradient cx="294.37475" cy="222.73539" r="15.27273" gradientUnits="userSpaceOnUse" id="color-16"><stop offset="0" stop-color="#dd00ff"/><stop offset="1" stop-color="#00ff00"/></radialGradient><radialGradient cx="356.05368" cy="222.73538" r="19.5" gradientUnits="userSpaceOnUse" id="color-17"><stop offset="0" stop-color="#b100cc"/><stop offset="1" stop-color="#00cb00"/></radialGradient><radialGradient cx="356.05368" cy="222.73539" r="15.27273" gradientUnits="userSpaceOnUse" id="color-18"><stop offset="0" stop-color="#dd00ff"/><stop offset="1" stop-color="#00ff00"/></radialGradient><radialGradient cx="242" cy="281.67856" r="19.5" gradientUnits="userSpaceOnUse" id="color-19"><stop offset="0" stop-color="#b100cc"/><stop offset="1" stop-color="#00cb00"/></radialGradient><radialGradient cx="242" cy="281.67857" r="15.27272" gradientUnits="userSpaceOnUse" id="color-20"><stop offset="0" stop-color="#dd00ff"/><stop offset="1" stop-color="#00ff00"/></radialGradient><radialGradient cx="294.37475" cy="281.67856" r="19.5" gradientUnits="userSpaceOnUse" id="color-21"><stop offset="0" stop-color="#b100cc"/><stop offset="1" stop-color="#00cb00"/></radialGradient><radialGradient cx="294.37475" cy="281.67857" r="15.27273" gradientUnits="userSpaceOnUse" id="color-22"><stop offset="0" stop-color="#dd00ff"/><stop offset="1" stop-color="#00ff00"/></radialGradient><radialGradient cx="356.05368" cy="281.67856" r="19.5" gradientUnits="userSpaceOnUse" id="color-23"><stop offset="0" stop-color="#b100cc"/><stop offset="1" stop-color="#00cb00"/></radialGradient><radialGradient cx="356.05368" cy="281.67857" r="15.27273" gradientUnits="userSpaceOnUse" id="color-24"><stop offset="0" stop-color="#dd00ff"/><stop offset="1" stop-color="#00ff00"/></radialGradient><radialGradient cx="242" cy="335.87337" r="19.5" gradientUnits="userSpaceOnUse" id="color-25"><stop offset="0" stop-color="#b100cc"/><stop offset="1" stop-color="#00cb00"/></radialGradient><radialGradient cx="242" cy="335.87338" r="15.27273" gradientUnits="userSpaceOnUse" id="color-26"><stop offset="0" stop-color="#dd00ff"/><stop offset="1" stop-color="#00ff00"/></radialGradient><radialGradient cx="294.37475" cy="335.87337" r="19.5" gradientUnits="userSpaceOnUse" id="color-27"><stop offset="0" stop-color="#b100cc"/><stop offset="1" stop-color="#00cb00"/></radialGradient><radialGradient cx="294.37475" cy="335.87338" r="15.27273" gradientUnits="userSpaceOnUse" id="color-28"><stop offset="0" stop-color="#dd00ff"/><stop offset="1" stop-color="#00ff00"/></radialGradient><radialGradient cx="356.05368" cy="335.87337" r="19.5" gradientUnits="userSpaceOnUse" id="color-29"><stop offset="0" stop-color="#b100cc"/><stop offset="1" stop-color="#00cb00"/></radialGradient><radialGradient cx="356.05368" cy="335.87338" r="15.27273" gradientUnits="userSpaceOnUse" id="color-30"><stop offset="0" stop-color="#dd00ff"/><stop offset="1" stop-color="#00ff00"/></radialGradient><radialGradient cx="416.56958" cy="102" r="19.5" gradientUnits="userSpaceOnUse" id="color-31"><stop offset="0" stop-color="#b100cc"/><stop offset="1" stop-color="#00cb00"/></radialGradient><radialGradient cx="416.56958" cy="102.00001" r="15.27273" gradientUnits="userSpaceOnUse" id="color-32"><stop offset="0" stop-color="#dd00ff"/><stop offset="1" stop-color="#00ff00"/></radialGradient><radialGradient cx="472.4334" cy="102" r="19.5" gradientUnits="userSpaceOnUse" id="color-33"><stop offset="0" stop-color="#b100cc"/><stop offset="1" stop-color="#00cb00"/></radialGradient><radialGradient cx="472.4334" cy="102.00001" r="15.27273" gradientUnits="userSpaceOnUse" id="color-34"><stop offset="0" stop-color="#dd00ff"/><stop offset="1" stop-color="#00ff00"/></radialGradient><radialGradient cx="416.56958" cy="160.94318" r="19.5" gradientUnits="userSpaceOnUse" id="color-35"><stop offset="0" stop-color="#b100cc"/><stop offset="1" stop-color="#00cb00"/></radialGradient><radialGradient cx="416.56958" cy="160.94319" r="15.27273" gradientUnits="userSpaceOnUse" id="color-36"><stop offset="0" stop-color="#dd00ff"/><stop offset="1" stop-color="#00ff00"/></radialGradient><radialGradient cx="472.4334" cy="160.94318" r="19.5" gradientUnits="userSpaceOnUse" id="color-37"><stop offset="0" stop-color="#b100cc"/><stop offset="1" stop-color="#00cb00"/></radialGradient><radialGradient cx="472.4334" cy="160.94319" r="15.27273" gradientUnits="userSpaceOnUse" id="color-38"><stop offset="0" stop-color="#dd00ff"/><stop offset="1" stop-color="#00ff00"/></radialGradient><radialGradient cx="416.56958" cy="222.73538" r="19.5" gradientUnits="userSpaceOnUse" id="color-39"><stop offset="0" stop-color="#b100cc"/><stop offset="1" stop-color="#00cb00"/></radialGradient><radialGradient cx="416.56958" cy="222.73539" r="15.27273" gradientUnits="userSpaceOnUse" id="color-40"><stop offset="0" stop-color="#dd00ff"/><stop offset="1" stop-color="#00ff00"/></radialGradient><radialGradient cx="472.4334" cy="222.73538" r="19.5" gradientUnits="userSpaceOnUse" id="color-41"><stop offset="0" stop-color="#b100cc"/><stop offset="1" stop-color="#00cb00"/></radialGradient><radialGradient cx="472.4334" cy="222.73539" r="15.27273" gradientUnits="userSpaceOnUse" id="color-42"><stop offset="0" stop-color="#dd00ff"/><stop offset="1" stop-color="#00ff00"/></radialGradient><radialGradient cx="416.56958" cy="281.67856" r="19.5" gradientUnits="userSpaceOnUse" id="color-43"><stop offset="0" stop-color="#b100cc"/><stop offset="1" stop-color="#00cb00"/></radialGradient><radialGradient cx="416.56958" cy="281.67857" r="15.27273" gradientUnits="userSpaceOnUse" id="color-44"><stop offset="0" stop-color="#dd00ff"/><stop offset="1" stop-color="#00ff00"/></radialGradient><radialGradient cx="472.4334" cy="281.67856" r="19.5" gradientUnits="userSpaceOnUse" id="color-45"><stop offset="0" stop-color="#b100cc"/><stop offset="1" stop-color="#00cb00"/></radialGradient><radialGradient cx="472.4334" cy="281.67857" r="15.27273" gradientUnits="userSpaceOnUse" id="color-46"><stop offset="0" stop-color="#dd00ff"/><stop offset="1" stop-color="#00ff00"/></radialGradient><radialGradient cx="416.56958" cy="335.87337" r="19.5" gradientUnits="userSpaceOnUse" id="color-47"><stop offset="0" stop-color="#b100cc"/><stop offset="1" stop-color="#00cb00"/></radialGradient><radialGradient cx="416.56958" cy="335.87338" r="15.27273" gradientUnits="userSpaceOnUse" id="color-48"><stop offset="0" stop-color="#dd00ff"/><stop offset="1" stop-color="#00ff00"/></radialGradient><radialGradient cx="472.4334" cy="335.87337" r="19.5" gradientUnits="userSpaceOnUse" id="color-49"><stop offset="0" stop-color="#b100cc"/><stop offset="1" stop-color="#00cb00"/></radialGradient><radialGradient cx="472.4334" cy="335.87338" r="15.27273" gradientUnits="userSpaceOnUse" id="color-50"><stop offset="0" stop-color="#dd00ff"/><stop offset="1" stop-color="#00ff00"/></radialGradient></defs><g transform="translate(-221.5,-81.5)"><g stroke="#ff0000" stroke-miterlimit="10"><path d="M222.5,121.5v-39h39v39z" fill="url(#color-1)" stroke-width="2"/><path d="M226.72727,117.27273v-30.54545h30.54545v30.54545z" fill="url(#color-2)" stroke-width="0"/><path d="M274.87475,121.5v-39h39v39z" fill="url(#color-3)" stroke-width="2"/><path d="M279.10202,117.27273v-30.54545h30.54545v30.54545z" fill="url(#color-4)" stroke-width="0"/><path d="M336.55368,121.5v-39h39v39z" fill="url(#color-5)" stroke-width="2"/><path d="M340.78095,117.27273v-30.54545h30.54545v30.54545z" fill="url(#color-6)" stroke-width="0"/><path d="M222.5,180.44318v-39h39v39z" fill="url(#color-7)" stroke-width="2"/><path d="M226.72727,176.21591v-30.54545h30.54545v30.54545z" fill="url(#color-8)" stroke-width="0"/><path d="M274.87475,180.44318v-39h39v39z" fill="url(#color-9)" stroke-width="2"/><path d="M279.10202,176.21591v-30.54545h30.54545v30.54545z" fill="url(#color-10)" stroke-width="0"/><path d="M336.55368,180.44318v-39h39v39z" fill="url(#color-11)" stroke-width="2"/><path d="M340.78095,176.21591v-30.54545h30.54545v30.54545z" fill="url(#color-12)" stroke-width="0"/><path d="M222.5,242.23538v-39h39v39z" fill="url(#color-13)" stroke-width="2"/><path d="M226.72727,238.00811v-30.54545h30.54545v30.54545z" fill="url(#color-14)" stroke-width="0"/><path d="M274.87475,242.23538v-39h39v39z" fill="url(#color-15)" stroke-width="2"/><path d="M279.10202,238.00811v-30.54545h30.54545v30.54545z" fill="url(#color-16)" stroke-width="0"/><path d="M336.55368,242.23538v-39h39v39z" fill="url(#color-17)" stroke-width="2"/><path d="M340.78095,238.00811v-30.54545h30.54545v30.54545z" fill="url(#color-18)" stroke-width="0"/><path d="M222.5,301.17856v-39h39v39z" fill="url(#color-19)" stroke-width="2"/><path d="M226.72727,296.95129v-30.54545h30.54545v30.54545z" fill="url(#color-20)" stroke-width="0"/><path d="M274.87475,301.17856v-39h39v39z" fill="url(#color-21)" stroke-width="2"/><path d="M279.10202,296.95129v-30.54545h30.54545v30.54545z" fill="url(#color-22)" stroke-width="0"/><path d="M336.55368,301.17856v-39h39v39z" fill="url(#color-23)" stroke-width="2"/><path d="M340.78095,296.95129v-30.54545h30.54545v30.54545z" fill="url(#color-24)" stroke-width="0"/><path d="M222.5,355.37337v-39h39v39z" fill="url(#color-25)" stroke-width="2"/><path d="M226.72727,351.1461v-30.54545h30.54545v30.54545z" fill="url(#color-26)" stroke-width="0"/><path d="M274.87475,355.37337v-39h39v39z" fill="url(#color-27)" stroke-width="2"/><path d="M279.10202,351.1461v-30.54545h30.54545v30.54545z" fill="url(#color-28)" stroke-width="0"/><path d="M336.55368,355.37337v-39h39v39z" fill="url(#color-29)" stroke-width="2"/><path d="M340.78095,351.1461v-30.54545h30.54545v30.54545z" fill="url(#color-30)" stroke-width="0"/><path d="M397.06958,121.5v-39h39v39z" fill="url(#color-31)" stroke-width="2"/><path d="M401.29685,117.27273v-30.54545h30.54545v30.54545z" fill="url(#color-32)" stroke-width="0"/><path d="M452.9334,121.5v-39h39v39z" fill="url(#color-33)" stroke-width="2"/><path d="M457.16067,117.27273v-30.54545h30.54545v30.54545z" fill="url(#color-34)" stroke-width="0"/><path d="M397.06958,180.44318v-39h39v39z" fill="url(#color-35)" stroke-width="2"/><path d="M401.29685,176.21591v-30.54545h30.54545v30.54545z" fill="url(#color-36)" stroke-width="0"/><path d="M452.9334,180.44318v-39h39v39z" fill="url(#color-37)" stroke-width="2"/><path d="M457.16067,176.21591v-30.54545h30.54545v30.54545z" fill="url(#color-38)" stroke-width="0"/><path d="M397.06958,242.23538v-39h39v39z" fill="url(#color-39)" stroke-width="2"/><path d="M401.29685,238.00811v-30.54545h30.54545v30.54545z" fill="url(#color-40)" stroke-width="0"/><path d="M452.9334,242.23538v-39h39v39z" fill="url(#color-41)" stroke-width="2"/><path d="M457.16067,238.00811v-30.54545h30.54545v30.54545z" fill="url(#color-42)" stroke-width="0"/><path d="M397.06958,301.17856v-39h39v39z" fill="url(#color-43)" stroke-width="2"/><path d="M401.29685,296.95129v-30.54545h30.54545v30.54545z" fill="url(#color-44)" stroke-width="0"/><path d="M452.9334,301.17856v-39h39v39z" fill="url(#color-45)" stroke-width="2"/><path d="M457.16067,296.95129v-30.54545h30.54545v30.54545z" fill="url(#color-46)" stroke-width="0"/><path d="M397.06958,355.37337v-39h39v39z" fill="url(#color-47)" stroke-width="2"/><path d="M401.29685,351.1461v-30.54545h30.54545v30.54545z" fill="url(#color-48)" stroke-width="0"/><path d="M452.9334,355.37337v-39h39v39z" fill="url(#color-49)" stroke-width="2"/><path d="M457.16067,351.1461v-30.54545h30.54545v30.54545z" fill="url(#color-50)" stroke-width="0"/></g></g></svg>