<svg version="1.1" xmlns="http://www.w3.org/2000/svg" xmlns:xlink="http://www.w3.org/1999/xlink" width="59" height="59" viewBox="0,0,59,59"><g transform="translate(-290.5,-150.5)"><g stroke-miterlimit="10"><path d="M291.5,180c0,-15.74012 12.75988,-28.5 28.5,-28.5c15.74012,0 28.5,12.75988 28.5,28.5c0,15.74012 -12.75988,28.5 -28.5,28.5c-15.74012,0 -28.5,-12.75988 -28.5,-28.5z" fill="#fcb1e3" stroke="#ff0000" stroke-width="2"/><path d="M302.05509,166.73523l31.72213,-0.2194l-2.60401,-2.53294l2.50579,-2.54779l6.9629,6.77285l-6.77285,6.9629l-2.54741,-2.47788l2.50502,-2.60362l-31.72213,0.2194zM299.35811,191.79204l6.80038,-6.9912l2.54779,2.50579l-2.53294,2.60402l31.72213,-0.2194l0.04944,3.57352l-31.72213,0.2194l2.60401,2.53294l-2.50579,2.54779z" fill="#ff0000" stroke="none" stroke-width="1"/></g></g></svg>