<svg version="1.1" xmlns="http://www.w3.org/2000/svg" xmlns:xlink="http://www.w3.org/1999/xlink" width="480.97898" height="280.88619" viewBox="0,0,480.97898,280.88619"><g transform="translate(-79.51051,-80.11381)"><g stroke="#ff0000" stroke-miterlimit="10"><path d="M80.51051,360v-278.88619h478.97898v278.88619zM558.30382,344.75664c0.12895,-0.71996 0.19625,-1.4613 0.19625,-2.21835c0,-6.90356 -13.32168,-12.47995 -13.72457,-12.44078c-0.73058,-0.18265 0.68043,1.07668 -0.50249,1.03164c-6.24475,-0.23777 -20.65329,-0.18316 -32.89934,0.13288c-11.06509,0.28556 -22.74576,-1.33821 -28.00305,-0.04046c-9.7774,2.41354 -8.65698,18.50171 -0.7137,22.49705c4.54872,2.28794 19.21149,1.02204 21.74846,1.04691c5.65143,0.05541 10.8799,0.69664 16.77425,0.5455c5.39824,-0.13842 10.68221,-1.27763 16.16871,-1.22738c2.1482,0.01968 4.12171,0.42668 6.07529,0.68882c0.83143,0.17422 1.69324,0.26581 2.57644,0.26581c0.78012,0 1.54355,-0.07146 2.2841,-0.2082c1.14223,-0.18901 2.31856,-0.56315 3.55677,-1.21792c3.89865,-2.0616 5.96207,-5.36457 6.46288,-8.85552zM402.59256,349.31979c1.26391,-1.95336 1.9977,-4.28174 1.9977,-6.78151c0,-2.29924 -0.62078,-4.45348 -1.70386,-6.30428c-0.59964,-2.21866 -2.62434,-3.7626 -4.98104,-4.7636c-1.72779,-0.90966 -3.69455,-1.4266 -5.78154,-1.43208c-0.5458,-0.05264 -1.05712,-0.07792 -1.51681,-0.07792c-5.32452,0 -17.85641,-0.63814 -22.99625,0.50405c-5.13213,1.14047 -10.71193,-0.85032 -16.49219,0.54318c-4.86526,1.17291 -10.13687,6.56274 -9.16809,11.66702c0.4653,2.45151 0.71512,5.06005 1.95313,7.22656c0.93894,1.64315 2.83511,2.50893 4.29688,3.71094c2.86673,2.35731 9.19584,1.34874 12.5233,1.42612c8.66145,0.20143 17.90475,1.02 26.59332,0.27275c1.80446,-0.15519 3.7136,-0.12597 5.58983,-0.299c0.54694,-0.03528 1.08431,-0.10573 1.60986,-0.20911c1.32923,-0.23161 2.62086,-0.62587 3.82348,-1.32714c2.28611,-1.33309 3.48146,-2.61932 4.2523,-4.15599zM471.0927,349.59255c1.26391,-1.95336 1.99769,-4.28174 1.99769,-6.78151c0,-2.29924 -0.62078,-4.45349 -1.70386,-6.30428c-1.03499,-3.82948 -3.86286,-5.20455 -7.14554,-5.65423c-1.15483,-0.35209 -2.38059,-0.54149 -3.6506,-0.54149c-1.12454,0 -2.21439,0.1485 -3.25103,0.42695c-1.253,0.03893 -21.39155,0.07569 -26.26624,0.11856c-5.18631,0.04561 -9.01047,-1.59584 -14.23615,1.017c-4.32956,2.16478 -6.25,6.07304 -6.25,10.9375c0,4.86446 1.92044,8.77272 6.25,10.9375c0.5681,0.28405 -2.35009,-1.4966 -1.60674,-1.25032c10.05637,3.33183 41.13262,2.09633 52.24174,-0.10932c1.33144,-0.26435 -1.35722,1.78278 -0.63158,1.35964c2.28611,-1.33309 3.48147,-2.61932 4.25231,-4.15599zM275.03917,336.02953c-1.26391,1.95336 -1.99769,4.28174 -1.99769,6.7815c0,2.29924 0.62078,4.45349 1.70386,6.30428c0.71363,2.64044 2.85452,4.13903 5.44547,4.99588c1.62203,0.76939 3.43608,1.19984 5.35067,1.19984c0.53963,0 1.07126,-0.03419 1.59287,-0.10053c1.51631,0.07393 2.90992,0.07634 3.99855,0.10053c8.30989,0.18466 17.66875,1.25231 25.87155,-0.27046c4.2194,-0.78329 7.77162,0.49007 12.15407,-1.70117c4.32956,-2.16478 6.25,-6.07304 6.25,-10.9375c0,-8.25396 -5.36446,-11.36183 -12.5,-12.5c-3.78965,-0.60447 -7.78357,0.58392 -11.57885,0.68188c-6.96845,0.17987 -13.96254,-0.3778 -20.92945,-0.27276c-1.46323,0.02206 -2.98987,-0.03948 -4.51177,0.00473c-0.11527,-0.00314 -0.23093,-0.00473 -0.34697,-0.00473c-0.95843,0 -1.89166,0.10787 -2.78823,0.31212c-1.2,0.22807 -2.36597,0.61139 -3.46177,1.25038c-2.28611,1.33309 -3.48147,2.61933 -4.25231,4.156zM205.29761,340.22218c-0.12447,0.70785 -0.18939,1.43621 -0.18939,2.17973c0,6.02838 4.26744,11.06005 9.94622,12.23892c0.82443,0.17115 1.6786,0.26108 2.55378,0.26108c1.78779,0 3.48791,-0.37532 5.02588,-1.05145c0.74153,-0.09353 1.45095,-0.16132 2.11166,-0.17593c3.17345,-0.0702 5.72872,0.73968 8.76999,1.29481c4.86542,0.8881 21.31143,0.4781 26.07299,-1.90268c4.32956,-2.16478 6.25,-6.07304 6.25,-10.9375c0,-4.86446 -1.92044,-8.77272 -6.25,-10.9375c-5.90165,-2.95083 -13.51074,-0.86099 -19.75123,-1.017c-10.16108,-0.25403 -28.24371,-5.58298 -33.9886,7.20943c-0.39711,0.88426 -0.49108,1.85575 -0.5513,2.83808zM87.69778,335.64866c-1.26391,1.95336 -1.99769,4.28174 -1.99769,6.78151c0,2.29924 0.62077,4.45349 1.70386,6.30428c0.85995,3.18182 4.97404,5.012 7.87149,6.00418c7.55599,2.5874 17.58799,-1.04398 25.872,-0.34424c4.58531,0.38732 8.24306,1.32627 12.94905,-1.02672c4.32955,-2.16478 6.25,-6.07304 6.25,-10.9375c0,-4.86446 -1.92045,-8.77272 -6.25,-10.9375c-6.35196,-3.17598 -14.08726,-1.74663 -20.71601,-1.5625c-4.00069,0.11113 -7.75985,-0.60383 -11.6305,0.18409c-0.27648,0.05628 -0.53591,0.0965 -0.78106,0.12363c-0.89062,-0.2014 -1.8173,-0.30772 -2.76882,-0.30772c-0.24295,0 -0.48427,0.00693 -0.72379,0.0206c-1.3071,-0.17086 -2.75875,-0.07188 -5.52621,1.5419c-2.28611,1.33309 -3.48147,2.61932 -4.25231,4.15599zM146.50949,335.75678c-1.26391,1.95336 -1.99769,4.28174 -1.99769,6.7815c0,2.29924 0.62077,4.45349 1.70386,6.30428c0.74617,2.76083 2.99896,4.29012 5.75239,5.13639c1.54267,0.6811 3.24904,1.05933 5.04376,1.05933c0.48771,0 0.96889,-0.02793 1.44204,-0.08228c2.47999,0.11654 4.79054,0.03487 6.3314,0.08228c5.51967,0.16983 9.79884,0.34431 15.13774,-0.5455c1.09273,-0.18212 2.08692,0.48701 3.15354,0.48701c7.88463,0 14.93788,-3.55447 14.93788,-12.57788c0,-4.86446 -1.92045,-8.77272 -6.25,-10.9375c-6.89676,-3.44838 -11.51824,-1.16149 -17.97834,-0.88062c-3.3299,0.14478 -5.62931,-0.45838 -8.59169,-0.54551c-2.11171,-0.06211 -5.27402,-0.24478 -8.29174,0.00047c-1.30357,0.01115 -2.55954,0.22185 -3.73885,0.60303c-0.88875,0.23915 -1.70412,0.55208 -2.40197,0.95901c-2.28611,1.33309 -3.48147,2.61933 -4.25231,4.156z" fill-opacity="0.50196" fill="#000000" stroke-width="2"/><text transform="translate(130.27721,126.8963) scale(1.02057,1.02057)" font-size="40" xml:space="preserve" fill="#ffffff" stroke-width="0.5" font-family="Sans Serif" font-weight="normal" text-anchor="start"><tspan x="0" dy="0">vos réccompences :</tspan></text><text transform="translate(207.00003,313.39638) scale(0.5,0.5)" font-size="40" xml:space="preserve" fill="#ffffff" stroke-width="0.5" font-family="Sans Serif" font-weight="normal" text-anchor="start"><tspan x="0" dy="0">cliquez pour continuer !</tspan></text></g></g></svg>