<svg version="1.1" xmlns="http://www.w3.org/2000/svg" xmlns:xlink="http://www.w3.org/1999/xlink" width="99.00332" height="6.02777" viewBox="0,0,99.00332,6.02777"><defs><linearGradient x1="273.51223" y1="180" x2="352.48038" y2="180" gradientUnits="userSpaceOnUse" id="color-1"><stop offset="0" stop-color="#ff0000"/><stop offset="1" stop-color="#ff006d"/></linearGradient><linearGradient x1="349.71649" y1="180" x2="355.24426" y2="180" gradientUnits="userSpaceOnUse" id="color-2"><stop offset="0" stop-color="#ff0000"/><stop offset="1" stop-color="#ff006d"/></linearGradient><linearGradient x1="270.74834" y1="180" x2="276.27611" y2="180" gradientUnits="userSpaceOnUse" id="color-3"><stop offset="0" stop-color="#ff0000"/><stop offset="1" stop-color="#ff006d"/></linearGradient></defs><g transform="translate(-270.49834,-176.98611)"><g stroke-miterlimit="10"><g stroke="#ff0000" stroke-width="0.5" stroke-linecap="butt"><path d="M273.51223,182.76389v-5.52777h92.97555v5.52777z" fill="url(#color-1)"/><path d="M363.72389,180c0,-1.52645 1.23744,-2.76388 2.76389,-2.76388c1.52645,0 2.76388,1.23743 2.76388,2.76388c0,1.52645 -1.23743,2.76388 -2.76388,2.76388c-1.52645,0 -2.76389,-1.23743 -2.76389,-2.76388z" fill="url(#color-2)"/><path d="M270.74834,180c0,-1.52645 1.23743,-2.76388 2.76388,-2.76388c1.52645,0 2.76389,1.23743 2.76389,2.76388c0,1.52645 -1.23744,2.76388 -2.76389,2.76388c-1.52645,0 -2.76388,-1.23743 -2.76388,-2.76388z" fill="url(#color-3)"/></g><path d="M321.23801,179.36995" fill="none" stroke="none" stroke-width="0" stroke-linecap="round"/></g></g></svg>