<svg version="1.1" xmlns="http://www.w3.org/2000/svg" xmlns:xlink="http://www.w3.org/1999/xlink" width="155.39164" height="152.31629" viewBox="0,0,155.39164,152.31629"><g transform="translate(-242.30418,-103.84185)"><g stroke="#ff0000" stroke-miterlimit="10"><path d="M243.81673,143.84185v-39h39v39z" fill="#4e4e4e" stroke-width="2"/><path d="M248.044,139.61458v-30.54545h30.54545v30.54545z" fill="#8d8d8d" stroke-width="0"/><path d="M300.24372,143.84185v-39h39v39z" fill="#4e4e4e" stroke-width="2"/><path d="M304.47099,139.61458v-30.54545h30.54545v30.54545z" fill="#8d8d8d" stroke-width="0"/><path d="M244.81907,200.78139v-39h39v39z" fill="#4e4e4e" stroke-width="2"/><path d="M249.04634,196.55412v-30.54545h30.54545v30.54545z" fill="#8d8d8d" stroke-width="0"/><path d="M303.31907,200.78139v-39h39v39z" fill="#4e4e4e" stroke-width="2"/><path d="M307.54634,196.55412v-30.54545h30.54545v30.54545z" fill="#8d8d8d" stroke-width="0"/><path d="M356.15815,143.84185v-39h39v39z" fill="#4e4e4e" stroke-width="2"/><path d="M360.38542,139.61458v-30.54545h30.54545v30.54545z" fill="#8d8d8d" stroke-width="0"/><path d="M357.67304,200.78139v-39h39v39z" fill="#4e4e4e" stroke-width="2"/><path d="M361.90031,196.55412v-30.54545h30.54545v30.54545z" fill="#8d8d8d" stroke-width="0"/><path d="M243.30418,255.15815v-39h39v39z" fill="#4e4e4e" stroke-width="2"/><path d="M247.53145,250.93088v-30.54545h30.54545v30.54545z" fill="#8d8d8d" stroke-width="0"/><path d="M303.31907,255.15815v-39h39v39z" fill="#4e4e4e" stroke-width="2"/><path d="M307.54634,250.93088v-30.54545h30.54545v30.54545z" fill="#8d8d8d" stroke-width="0"/><path d="M357.69582,255.15815v-39h39v39z" fill="#4e4e4e" stroke-width="2"/><path d="M361.92309,250.93088v-30.54545h30.54545v30.54545z" fill="#8d8d8d" stroke-width="0"/></g></g></svg>