<svg version="1.1" xmlns="http://www.w3.org/2000/svg" xmlns:xlink="http://www.w3.org/1999/xlink" width="153.13992" height="33" viewBox="0,0,153.13992,33"><g transform="translate(-163.43004,-163.50001)"><g stroke-miterlimit="10"><path d="M164.43004,195.50001v-31h151.13992v31z" fill-opacity="0.25098" fill="#ff0000" stroke="#ff0000" stroke-width="2"/><path d="M164.43004,195.50001v-31h80.40867v31z" fill="none" stroke="#ff0000" stroke-width="2"/><text transform="translate(170.33438,186.00001) scale(0.5,0.5)" font-size="40" xml:space="preserve" fill="#ff0000" stroke="none" stroke-width="1" font-family="Sans Serif" font-weight="400" text-anchor="start"><tspan x="0" dy="0">restore</tspan></text><path d="M267.42269,171.60001h4.10625c0.09547,-0.01549 0.19281,-0.01549 0.28828,0h1.95352c0.32457,-0.00459 0.62647,0.16594 0.7901,0.44628c0.16363,0.28035 0.16363,0.62708 0,0.90743c-0.16363,0.28035 -0.46552,0.45088 -0.7901,0.44629h-1.28321l-1.51172,15.61758c-0.16258,1.68412 -1.59323,2.98242 -3.28476,2.98242h-8.8418c-1.69145,0 -3.12212,-1.29844 -3.28477,-2.98242l-1.51054,-15.61758h-1.28321c-0.32457,0.00459 -0.62647,-0.16594 -0.7901,-0.44629c-0.16363,-0.28035 -0.16363,-0.62708 0,-0.90743c0.16363,-0.28035 0.46552,-0.45087 0.7901,-0.44628h1.95469c0.04415,-0.00762 0.0888,-0.01192 0.13359,-0.01289c0.05184,-0.00017 0.10359,0.00415 0.15469,0.01289h4.10508c0.29419,-2.02714 2.04696,-3.6 4.15195,-3.6c2.10499,0 3.85776,1.57286 4.15195,3.6zM260.95394,171.60001h4.63359c-0.26434,-1.0391 -1.1893,-1.8 -2.3168,-1.8c-1.12749,0 -2.05246,0.7609 -2.3168,1.8zM257.35629,188.84415c0.07495,0.77602 0.71362,1.35586 1.49297,1.35586h8.8418c0.78046,0 1.41795,-0.57878 1.49297,-1.35586l1.49531,-15.44414h-14.81836zM261.80679,176.65023c0.17222,0.17199 0.26744,0.40641 0.26395,0.64978v9c0.00459,0.32457 -0.16594,0.62647 -0.44629,0.7901c-0.28035,0.16363 -0.62708,0.16363 -0.90743,0c-0.28035,-0.16363 -0.45087,-0.46553 -0.44628,-0.7901v-9c-0.00712,-0.49661 0.38934,-0.90513 0.88594,-0.91289c0.24337,-0.0038 0.47789,0.09112 0.65011,0.26311zM266.00679,176.65023c0.17222,0.17199 0.26744,0.40641 0.26395,0.64978v9c0.00459,0.32457 -0.16594,0.62647 -0.44628,0.7901c-0.28035,0.16363 -0.62708,0.16363 -0.90743,0c-0.28035,-0.16363 -0.45088,-0.46553 -0.44629,-0.7901v-9c-0.00712,-0.49661 0.38934,-0.90513 0.88594,-0.91289c0.24337,-0.0038 0.47789,0.09112 0.65011,0.26311z" fill="#ff0000" stroke="none" stroke-width="1"/><text transform="translate(275.90075,188.04149) scale(0.5,0.5)" font-size="40" xml:space="preserve" fill="#ff0000" stroke="none" stroke-width="1" font-family="Sans Serif" font-weight="normal" text-anchor="start"><tspan x="0" dy="0">del.</tspan></text></g></g></svg>