<svg version="1.1" xmlns="http://www.w3.org/2000/svg" xmlns:xlink="http://www.w3.org/1999/xlink" width="89.1733" height="86.15821" viewBox="0,0,89.1733,86.15821"><g transform="translate(-275.41335,-136.92089)"><g stroke-miterlimit="10"><path d="M347.63765,198.53997l-21.85315,-21.85315l-15.83063,15.83063l14.71217,14.71217h14.19595zM356.7574,195.44271c1.6347,1.72072 1.6347,4.47387 0,6.10857l-13.0775,12.99146c-0.77433,0.86037 -1.89277,1.29053 -3.01125,1.29053h-17.80946c-1.11848,0 -2.23694,-0.43016 -3.01127,-1.29053l-22.02524,-22.02524l-15.91669,-15.83063c-1.6347,-1.6347 -1.6347,-4.38786 0,-6.02254l21.93921,-21.93918c1.72072,-1.72072 4.47387,-1.72072 6.10857,0l15.83063,15.83063z" fill="#ffffff" fill-rule="evenodd" stroke="none" stroke-width="1" stroke-linecap="butt"/><path d="M277.66337,156.81134v-17.64044h17.92498" fill="none" fill-rule="nonzero" stroke="#ffffff" stroke-width="4.5" stroke-linecap="round"/><path d="M295.58833,220.82908h-17.92498v-17.64044" fill="none" fill-rule="nonzero" stroke="#ffffff" stroke-width="4.5" stroke-linecap="round"/><path d="M344.41164,139.17089h17.92498v17.64044" fill="none" fill-rule="nonzero" stroke="#ffffff" stroke-width="4.5" stroke-linecap="round"/><path d="M362.33665,203.18864v17.64046h-17.92498" fill="none" fill-rule="nonzero" stroke="#ffffff" stroke-width="4.5" stroke-linecap="round"/></g></g></svg>