<svg version="1.1" xmlns="http://www.w3.org/2000/svg" xmlns:xlink="http://www.w3.org/1999/xlink" width="119" height="80" viewBox="0,0,119,80"><g transform="translate(-260.5,-140)"><g stroke="#ff0000" stroke-miterlimit="10"><path d="M261.5,180v-39h39v39z" fill="#8d8d8d" stroke-width="2"/><path d="M265.72727,175.77273v-30.54545h30.54545v30.54545z" fill="#c0c0c0" stroke-width="0"/><path d="M300.5,180v-39h39v39z" fill="#8d8d8d" stroke-width="2"/><path d="M304.72727,175.77273v-30.54545h30.54545v30.54545z" fill="#c0c0c0" stroke-width="0"/><path d="M339.5,180v-39h39v39z" fill="#8d8d8d" stroke-width="2"/><path d="M343.72727,175.77273v-30.54545h30.54545v30.54545z" fill="#c0c0c0" stroke-width="0"/><path d="M261.5,219v-39h39v39z" fill="#8d8d8d" stroke-width="2"/><path d="M265.72727,214.77273v-30.54545h30.54545v30.54545z" fill="#c0c0c0" stroke-width="0"/><path d="M300.5,219v-39h39v39z" fill="#8d8d8d" stroke-width="2"/><path d="M304.72727,214.77273v-30.54545h30.54545v30.54545z" fill="#c0c0c0" stroke-width="0"/><path d="M339.5,219v-39h39v39z" fill="#8d8d8d" stroke-width="2"/><path d="M343.72727,214.77273v-30.54545h30.54545v30.54545z" fill="#c0c0c0" stroke-width="0"/></g></g></svg>