<svg version="1.1" xmlns="http://www.w3.org/2000/svg" xmlns:xlink="http://www.w3.org/1999/xlink" width="59" height="59" viewBox="0,0,59,59"><g transform="translate(-210.5,-150.5)"><g stroke-miterlimit="10"><path d="M211.5,180c0,-15.74012 12.75988,-28.5 28.5,-28.5c15.74012,0 28.5,12.75988 28.5,28.5c0,15.74012 -12.75988,28.5 -28.5,28.5c-15.74012,0 -28.5,-12.75988 -28.5,-28.5z" fill="#fcb1e3" stroke="#ff0000" stroke-width="2"/><path d="M258.22256,178.475h4.65244l-6.1,9.15l-6.1,-9.15h4.50054c-0.76278,-7.71966 -7.25078,-13.725 -15.17554,-13.725c-3.78718,0 -7.23754,1.37264 -9.90356,3.65166c-0.41095,0.37685 -0.99479,0.49942 -1.52259,0.31962c-0.5278,-0.17979 -0.91542,-0.63328 -1.01086,-1.18263c-0.09544,-0.54935 0.11651,-1.107 0.55274,-1.45428c3.19608,-2.73213 7.35716,-4.38438 11.88428,-4.38438c9.5737,0 17.44283,7.39878 18.22256,16.775zM229.325,181.525h-4.50054c0.76278,7.71966 7.25078,13.725 15.17554,13.725c3.78718,0 7.23754,-1.37264 9.90356,-3.65166c0.41095,-0.37686 0.99479,-0.49942 1.52259,-0.31963c0.5278,0.17979 0.91542,0.63328 1.01086,1.18263c0.09544,0.54935 -0.11651,1.107 -0.55274,1.45428c-3.19608,2.73213 -7.35716,4.38438 -11.88428,4.38438c-9.5737,0 -17.44283,-7.39878 -18.22256,-16.775h-4.65244l6.1,-9.15z" fill="#ff0000" stroke="none" stroke-width="1"/></g></g></svg>