<svg version="1.1" xmlns="http://www.w3.org/2000/svg" xmlns:xlink="http://www.w3.org/1999/xlink" width="59" height="59" viewBox="0,0,59,59"><g transform="translate(-210.5,-150.5)"><g stroke-miterlimit="10"><path d="M211.5,180c0,-15.74012 12.75988,-28.5 28.5,-28.5c15.74012,0 28.5,12.75988 28.5,28.5c0,15.74012 -12.75988,28.5 -28.5,28.5c-15.74012,0 -28.5,-12.75988 -28.5,-28.5z" fill="#fcb1e3" fill-rule="nonzero" stroke="#ff0000" stroke-width="2" stroke-linecap="butt"/><path d="M252.594,187.52195l-9.72302,-9.72302l-7.04345,7.04345l6.54582,6.54582h6.31614zM256.65165,186.14388c0.72732,0.76559 0.72732,1.99054 0,2.71786l-5.81851,5.78023c-0.34452,0.3828 -0.84214,0.57419 -1.33978,0.57419h-7.92388c-0.49764,0 -0.99527,-0.19139 -1.33979,-0.57419l-9.79959,-9.79959l-7.08174,-7.04345c-0.72732,-0.72732 -0.72732,-1.95227 0,-2.67958l9.76131,-9.7613c0.76559,-0.76559 1.99054,-0.76559 2.71786,0l7.04345,7.04345z" fill="#000000" fill-rule="evenodd" stroke="none" stroke-width="1" stroke-linecap="butt"/><path d="M221.46062,168.95581v-7.84868h7.97528" fill="none" fill-rule="nonzero" stroke="#000000" stroke-width="2" stroke-linecap="round"/><path d="M221.46062,189.59024v7.84868h7.97528" fill="none" fill-rule="nonzero" stroke="#000000" stroke-width="2" stroke-linecap="round"/><path d="M259.13397,168.95581v-7.84868h-7.97528" fill="none" fill-rule="nonzero" stroke="#000000" stroke-width="2" stroke-linecap="round"/><path d="M259.13397,189.59024v7.84869h-7.97528" fill="none" fill-rule="nonzero" stroke="#000000" stroke-width="2" stroke-linecap="round"/></g></g></svg>