<svg version="1.1" xmlns="http://www.w3.org/2000/svg" xmlns:xlink="http://www.w3.org/1999/xlink" width="4.81304" height="20.565" viewBox="0,0,4.81304,20.565"><g transform="translate(-317.59348,-169.7175)"><g stroke-miterlimit="10"><path d="M321.23801,179.36995" fill="none" stroke="none" stroke-width="0" stroke-linecap="round"/><g fill="#ff0000" stroke-width="0.5" stroke-linecap="butt"><path d="M317.84348,187.87598v-15.75197h4.31304v15.75197z" stroke="#ff7f7f"/><g stroke="#ff8080"><path d="M317.84348,172.12402c0,-1.19101 0.96551,-2.15652 2.15652,-2.15652c1.19101,0 2.15652,0.96551 2.15652,2.15652c0,1.19101 -0.96551,2.15652 -2.15652,2.15652c-1.19101,0 -2.15652,-0.96551 -2.15652,-2.15652z"/><path d="M317.84348,187.87598c0,-1.19101 0.96551,-2.15652 2.15652,-2.15652c1.19101,0 2.15652,0.96551 2.15652,2.15652c0,1.19101 -0.96551,2.15652 -2.15652,2.15652c-1.19101,0 -2.15652,-0.96551 -2.15652,-2.15652z"/></g></g></g></g></svg>