<svg version="1.1" xmlns="http://www.w3.org/2000/svg" xmlns:xlink="http://www.w3.org/1999/xlink" width="48" height="24" viewBox="0,0,48,24"><g transform="translate(-296,-168)"><g stroke-miterlimit="10"><g fill="#c00000" stroke="#ff0000" stroke-width="0"><path d="M332,192c-6.62741,0 -12,-5.37259 -12,-12c0,-6.62741 5.37259,-12 12,-12c6.62741,0 12,5.37259 12,12c0,6.62741 -5.37259,12 -12,12z"/><path d="M308,192c-6.62741,0 -12,-5.37259 -12,-12c0,-6.62741 5.37259,-12 12,-12c6.62741,0 12,5.37259 12,12c0,6.62741 -5.37259,12 -12,12z"/><path d="M308,192v-24h24v24z"/></g><path d="" fill="#ff0000" stroke="none" stroke-width="0.5"/><path d="M320,190.55263c-5.82805,0 -10.55263,-4.72457 -10.55263,-10.55263c0,-5.82805 4.72457,-10.55263 10.55263,-10.55263c5.82805,0 10.55263,4.72457 10.55263,10.55263c0,5.82805 -4.72457,10.55263 -10.55263,10.55263z" fill="#ffffff" stroke="#ff0000" stroke-width="0"/></g></g></svg>