<svg version="1.1" xmlns="http://www.w3.org/2000/svg" xmlns:xlink="http://www.w3.org/1999/xlink" width="39.444" height="40.03741" viewBox="0,0,39.444,40.03741"><g transform="translate(-300.306,-160.08538)"><g stroke-miterlimit="10"><path d="M300.806,199.41462v-38.82924h38.388v38.82924z" fill="#fcb1e3" stroke="#ff0000" stroke-width="1" stroke-linecap="butt"/><g stroke-width="0.5"><path d="M312.07654,184.95727v-8.35963h11.99058v8.35963z" fill="#fe8a00" stroke="#000000" stroke-linecap="butt"/><path d="M315.92089,180.77745c0,-1.18794 0.96301,-2.15094 2.15094,-2.15094c1.18793,0 2.15095,0.96301 2.15095,2.15094c0,1.18794 -0.96302,2.15095 -2.15095,2.15095c-1.18793,0 -2.15094,-0.96302 -2.15094,-2.15095z" fill="none" stroke="#000000" stroke-linecap="butt"/><path d="M316.9349,180.77745c0,-0.6279 0.50902,-1.13692 1.13692,-1.13692c0.6279,0 1.13693,0.50902 1.13693,1.13692c0,0.6279 -0.50902,1.13693 -1.13693,1.13693c-0.6279,0 -1.13692,-0.50902 -1.13692,-1.13693z" fill="none" stroke="#000000" stroke-linecap="butt"/><path d="M312.54701,178.14924c0,-0.6279 0.50902,-1.13693 1.13693,-1.13693c0.62791,0 1.13693,0.50902 1.13693,1.13693c0,0.6279 -0.50902,1.13693 -1.13693,1.13693c-0.62791,0 -1.13693,-0.50902 -1.13693,-1.13693z" fill="#ffffff" stroke="#000000" stroke-linecap="butt"/><path d="M313.12114,178.14924c0,-0.31082 0.25197,-0.5628 0.5628,-0.5628c0.31083,0 0.5628,0.25197 0.5628,0.5628c0,0.31082 -0.25197,0.56279 -0.5628,0.56279c-0.31083,0 -0.5628,-0.25197 -0.5628,-0.56279z" fill="#000000" stroke="none" stroke-linecap="butt"/><path d="M321.43223,178.14924c0,-0.6279 0.50902,-1.13693 1.13693,-1.13693c0.62791,0 1.13692,0.50902 1.13692,1.13693c0,0.6279 -0.50901,1.13693 -1.13692,1.13693c-0.62791,0 -1.13693,-0.50902 -1.13693,-1.13693z" fill="#ffffff" stroke="#000000" stroke-linecap="butt"/><path d="M322.00636,178.14924c0,-0.31082 0.25198,-0.56279 0.5628,-0.56279c0.31083,0 0.5628,0.25197 0.5628,0.56279c0,0.31082 -0.25197,0.5628 -0.5628,0.5628c-0.31083,0 -0.5628,-0.25197 -0.5628,-0.5628z" fill="#000000" stroke="none" stroke-linecap="butt"/><path d="M317.72915,189.30271h-2.93494v-4.3019" fill="none" stroke="#000000" stroke-linecap="round"/><path d="M323.15676,189.30271h-2.93493v-4.3019" fill="none" stroke="#000000" stroke-linecap="round"/></g><g stroke-width="0.5"><path d="M303.51193,192.65393v-8.35963h11.99058v8.35963z" fill="#ffffff" stroke="#000000" stroke-linecap="butt"/><path d="M307.35627,188.47411c0,-1.18794 0.96301,-2.15095 2.15095,-2.15095c1.18793,0 2.15095,0.96301 2.15095,2.15095c0,1.18794 -0.96301,2.15095 -2.15095,2.15095c-1.18793,0 -2.15095,-0.96301 -2.15095,-2.15095z" fill="none" stroke="#000000" stroke-linecap="butt"/><path d="M308.37029,188.47411c0,-0.6279 0.50902,-1.13693 1.13692,-1.13693c0.6279,0 1.13693,0.50902 1.13693,1.13693c0,0.6279 -0.50902,1.13693 -1.13693,1.13693c-0.6279,0 -1.13692,-0.50902 -1.13692,-1.13693z" fill="none" stroke="#000000" stroke-linecap="butt"/><path d="M303.9824,185.8459c0,-0.6279 0.50902,-1.13693 1.13693,-1.13693c0.62791,0 1.13693,0.50902 1.13693,1.13693c0,0.6279 -0.50902,1.13693 -1.13693,1.13693c-0.62791,0 -1.13693,-0.50902 -1.13693,-1.13693z" fill="none" stroke="#000000" stroke-linecap="butt"/><path d="M304.55653,185.8459c0,-0.31082 0.25198,-0.5628 0.5628,-0.5628c0.31082,0 0.5628,0.25197 0.5628,0.5628c0,0.31082 -0.25198,0.5628 -0.5628,0.5628c-0.31082,0 -0.5628,-0.25197 -0.5628,-0.5628z" fill="#000000" stroke="none" stroke-linecap="butt"/><path d="M312.86762,185.8459c0,-0.6279 0.50902,-1.13693 1.13693,-1.13693c0.62791,0 1.13693,0.50902 1.13693,1.13693c0,0.6279 -0.50902,1.13693 -1.13693,1.13693c-0.62791,0 -1.13693,-0.50902 -1.13693,-1.13693z" fill="none" stroke="#000000" stroke-linecap="butt"/><path d="M313.44174,185.8459c0,-0.31082 0.25198,-0.5628 0.5628,-0.5628c0.31082,0 0.5628,0.25197 0.5628,0.5628c0,0.31082 -0.25198,0.5628 -0.5628,0.5628c-0.31082,0 -0.5628,-0.25197 -0.5628,-0.5628z" fill="#000000" stroke="none" stroke-linecap="butt"/><path d="M309.16453,196.99937h-2.93494v-4.3019" fill="none" stroke="#000000" stroke-linecap="round"/><path d="M314.59215,196.99937h-2.93494v-4.3019" fill="none" stroke="#000000" stroke-linecap="round"/></g><g stroke-width="0.5"><g><g><path d="M302.43385,175.9043v-13.69185h35.09643v13.69185z" fill="#ff0000" stroke="#000000" stroke-linecap="butt"/><path d="M307.65231,169.64997c0,-2.75234 2.23122,-4.98355 4.98355,-4.98355c2.75233,0 4.98356,2.23121 4.98356,4.98355c0,2.75234 -2.23122,4.98355 -4.98356,4.98355c-2.75233,0 -4.98355,-2.23122 -4.98355,-4.98355z" fill="none" stroke="#000000" stroke-linecap="butt"/><path d="M303.58702,165.34535c0,-1.02842 0.8337,-1.86212 1.86212,-1.86212c1.02842,0 1.86212,0.8337 1.86212,1.86212c0,1.02842 -0.8337,1.86212 -1.86212,1.86212c-1.02842,0 -1.86212,-0.8337 -1.86212,-1.86212z" fill="#ffffff" stroke="#000000" stroke-linecap="butt"/><path d="M304.52736,165.34535c0,-0.50908 0.4127,-0.92178 0.92178,-0.92178c0.50908,0 0.92178,0.41269 0.92178,0.92178c0,0.50908 -0.4127,0.92178 -0.92178,0.92178c-0.50908,0 -0.92178,-0.41269 -0.92178,-0.92178z" fill="#000000" stroke="none" stroke-linecap="butt"/><path d="M332.2728,165.34535c0,-1.02842 0.8337,-1.86212 1.86212,-1.86212c1.02842,0 1.86212,0.8337 1.86212,1.86212c0,1.02842 -0.8337,1.86212 -1.86212,1.86212c-1.02842,0 -1.86212,-0.8337 -1.86212,-1.86212z" fill="#ffffff" stroke="#000000" stroke-linecap="butt"/><path d="M333.21314,165.34535c0,-0.50908 0.4127,-0.92178 0.92178,-0.92178c0.50908,0 0.92178,0.41269 0.92178,0.92178c0,0.50908 -0.4127,0.92178 -0.92178,0.92178c-0.50908,0 -0.92178,-0.41269 -0.92178,-0.92178z" fill="#000000" stroke="none" stroke-linecap="butt"/><path d="M314.47296,182.95017h-4.80699v-7.04587" fill="none" stroke="#000000" stroke-linecap="round"/><path d="M335.20626,182.95017h-4.80699v-7.04587" fill="none" stroke="#000000" stroke-linecap="round"/><path d="M308.93004,170.04555c0,-0.46509 0.37703,-0.84212 0.84212,-0.84212c0.46509,0 0.84212,0.37703 0.84212,0.84212c0,0.46509 -0.37703,0.84212 -0.84212,0.84212c-0.46509,0 -0.84212,-0.37703 -0.84212,-0.84212z" fill="#000000" stroke="none" stroke-linecap="butt"/><path d="M315.02391,170.04555c0,-0.46509 0.37703,-0.84212 0.84212,-0.84212c0.46509,0 0.84212,0.37703 0.84212,0.84212c0,0.46509 -0.37703,0.84212 -0.84212,0.84212c-0.46509,0 -0.84212,-0.37703 -0.84212,-0.84212z" fill="#000000" stroke="none" stroke-linecap="butt"/><path d="M321.92089,169.64997c0,-2.75234 2.23122,-4.98355 4.98355,-4.98355c2.75233,0 4.98356,2.23121 4.98356,4.98355c0,2.75234 -2.23122,4.98355 -4.98356,4.98355c-2.75233,0 -4.98355,-2.23122 -4.98355,-4.98355z" fill="none" stroke="#000000" stroke-linecap="butt"/><path d="M337.56615,166.9243h-11.14732" fill="none" stroke="#000000" stroke-linecap="round"/><path d="M323.19861,170.04555c0,-0.46509 0.37703,-0.84212 0.84212,-0.84212c0.26893,0 0.50841,0.12605 0.66258,0.3223c0.11246,0.14315 0.17954,0.32365 0.17954,0.51982c0,0.46509 -0.37703,0.84212 -0.84212,0.84212c-0.46509,0 -0.84212,-0.37703 -0.84212,-0.84212z" fill="#000000" stroke="none" stroke-linecap="butt"/><path d="M329.29249,170.04555c0,-0.46509 0.37703,-0.84212 0.84212,-0.84212c0.46509,0 0.84212,0.37703 0.84212,0.84212c0,0.46509 -0.37703,0.84212 -0.84212,0.84212c-0.46509,0 -0.84212,-0.37703 -0.84212,-0.84212z" fill="#000000" stroke="none" stroke-linecap="butt"/><path d="M312.15025,166.9243h11.14732" fill="none" stroke="#000000" stroke-linecap="round"/></g><path d="M320.30836,162.29245v13.559" fill="none" stroke="#000000" stroke-linecap="round"/><path d="M311.81494,172.49771c0,-0.46509 0.37703,-0.84212 0.84212,-0.84212c0.46509,0 0.84212,0.37703 0.84212,0.84212c0,0.46509 -0.37703,0.84212 -0.84212,0.84212c-0.46509,0 -0.84212,-0.37703 -0.84212,-0.84212z" fill="#000000" stroke="none" stroke-linecap="butt"/><path d="M326.09515,172.49771c0,-0.46509 0.37703,-0.84212 0.84212,-0.84212c0.46509,0 0.84212,0.37703 0.84212,0.84212c0,0.46509 -0.37703,0.84212 -0.84212,0.84212c-0.46509,0 -0.84212,-0.37703 -0.84212,-0.84212z" fill="#000000" stroke="none" stroke-linecap="butt"/></g><path d="M321.77567,170.11261c0,1.19894 -0.83108,2.17087 -1.85625,2.17087c-1.02518,0 -1.85625,-0.97193 -1.85625,-2.17087c0,-0.60643 0.13176,-0.27357 1.95148,-0.26985c1.73526,0.00354 1.76102,-0.32267 1.76102,0.26985z" fill="#ff0000" stroke="#000000" stroke-linecap="butt"/></g><path d="M305.57405,183.02312l2.37819,1.4635l0.18294,-3.10995l-0.18294,2.6526l-1.37203,-2.83554l0.27441,-3.10995l2.6526,-3.01848" fill="none" stroke="#000000" stroke-width="1" stroke-linecap="round"/><g stroke-width="0.5"><path d="M303.51193,192.65393v-8.35963h11.99058v8.35963z" fill="#ffffff" stroke="#000000" stroke-linecap="butt"/><path d="M307.35627,188.47411c0,-1.18794 0.96301,-2.15095 2.15095,-2.15095c1.18793,0 2.15095,0.96301 2.15095,2.15095c0,1.18794 -0.96301,2.15095 -2.15095,2.15095c-1.18793,0 -2.15095,-0.96301 -2.15095,-2.15095z" fill="none" stroke="#000000" stroke-linecap="butt"/><path d="M308.37029,188.47411c0,-0.6279 0.50902,-1.13693 1.13692,-1.13693c0.6279,0 1.13693,0.50902 1.13693,1.13693c0,0.6279 -0.50902,1.13693 -1.13693,1.13693c-0.6279,0 -1.13692,-0.50902 -1.13692,-1.13693z" fill="none" stroke="#000000" stroke-linecap="butt"/><path d="M303.9824,185.8459c0,-0.6279 0.50902,-1.13693 1.13693,-1.13693c0.62791,0 1.13693,0.50902 1.13693,1.13693c0,0.6279 -0.50902,1.13693 -1.13693,1.13693c-0.62791,0 -1.13693,-0.50902 -1.13693,-1.13693z" fill="none" stroke="#000000" stroke-linecap="butt"/><path d="M304.55653,185.8459c0,-0.31082 0.25198,-0.5628 0.5628,-0.5628c0.31082,0 0.5628,0.25197 0.5628,0.5628c0,0.31082 -0.25198,0.5628 -0.5628,0.5628c-0.31082,0 -0.5628,-0.25197 -0.5628,-0.5628z" fill="#000000" stroke="none" stroke-linecap="butt"/><path d="M312.86762,185.8459c0,-0.6279 0.50902,-1.13693 1.13693,-1.13693c0.62791,0 1.13693,0.50902 1.13693,1.13693c0,0.6279 -0.50902,1.13693 -1.13693,1.13693c-0.62791,0 -1.13693,-0.50902 -1.13693,-1.13693z" fill="none" stroke="#000000" stroke-linecap="butt"/><path d="M313.44174,185.8459c0,-0.31082 0.25198,-0.5628 0.5628,-0.5628c0.31082,0 0.5628,0.25197 0.5628,0.5628c0,0.31082 -0.25198,0.5628 -0.5628,0.5628c-0.31082,0 -0.5628,-0.25197 -0.5628,-0.5628z" fill="#000000" stroke="none" stroke-linecap="butt"/><path d="M309.16453,196.99937h-2.93494v-4.3019" fill="none" stroke="#000000" stroke-linecap="round"/><path d="M314.59215,196.99937h-2.93494v-4.3019" fill="none" stroke="#000000" stroke-linecap="round"/></g><g stroke-width="0.5"><path d="M316.72559,192.65393v-8.35963h11.99058v8.35963z" fill="#00ffeb" stroke="#000000" stroke-linecap="butt"/><path d="M320.56992,188.47411c0,-1.18794 0.96301,-2.15095 2.15095,-2.15095c1.18793,0 2.15095,0.96301 2.15095,2.15095c0,1.18794 -0.96301,2.15095 -2.15095,2.15095c-1.18793,0 -2.15095,-0.96301 -2.15095,-2.15095z" fill="#00ffeb" stroke="#000000" stroke-linecap="butt"/><path d="M321.58395,188.47411c0,-0.6279 0.50902,-1.13693 1.13692,-1.13693c0.6279,0 1.13693,0.50902 1.13693,1.13693c0,0.6279 -0.50902,1.13693 -1.13693,1.13693c-0.6279,0 -1.13692,-0.50902 -1.13692,-1.13693z" fill="#00ffeb" stroke="#000000" stroke-linecap="butt"/><path d="M317.19606,185.8459c0,-0.6279 0.50902,-1.13693 1.13693,-1.13693c0.62791,0 1.13693,0.50902 1.13693,1.13693c0,0.6279 -0.50902,1.13693 -1.13693,1.13693c-0.62791,0 -1.13693,-0.50902 -1.13693,-1.13693z" fill="#ffffff" stroke="#000000" stroke-linecap="butt"/><path d="M317.77019,185.8459c0,-0.31082 0.25198,-0.5628 0.5628,-0.5628c0.31082,0 0.5628,0.25197 0.5628,0.5628c0,0.31082 -0.25198,0.5628 -0.5628,0.5628c-0.31082,0 -0.5628,-0.25197 -0.5628,-0.5628z" fill="#000000" stroke="none" stroke-linecap="butt"/><path d="M326.08128,185.8459c0,-0.6279 0.50902,-1.13693 1.13693,-1.13693c0.62791,0 1.13693,0.50902 1.13693,1.13693c0,0.6279 -0.50902,1.13693 -1.13693,1.13693c-0.62791,0 -1.13693,-0.50902 -1.13693,-1.13693z" fill="none" stroke="#000000" stroke-linecap="butt"/><path d="M326.6554,185.8459c0,-0.31082 0.25198,-0.5628 0.5628,-0.5628c0.31082,0 0.5628,0.25197 0.5628,0.5628c0,0.31082 -0.25198,0.5628 -0.5628,0.5628c-0.31082,0 -0.5628,-0.25197 -0.5628,-0.5628z" fill="#000000" stroke="none" stroke-linecap="butt"/><path d="M322.37819,196.99937h-2.93494v-4.3019" fill="none" stroke="#000000" stroke-linecap="round"/><path d="M327.80581,196.99937h-2.93494v-4.3019" fill="none" stroke="#000000" stroke-linecap="round"/></g><path d="M332.89819,185.45765l6.29581,0.07585l-12.51577,13.88112l0.83439,-11.52968l-5.9924,-0.07585l12.36407,-13.80527z" fill="#ffff00" stroke="#ff0000" stroke-width="0.5" stroke-linecap="round"/><path d="M302.43385,197.53549v-8.88463l2.06473,4.75224l2.36584,-5.21714l2.15076,4.95886l1.89267,-5.21714l2.06473,5.3721l1.76362,-5.57872v9.86607z" fill="#ffde00" stroke="#000000" stroke-width="0.5" stroke-linecap="round"/><text transform="translate(304.83941,196.439) scale(0.09503,0.09503)" font-size="40" xml:space="preserve" fill="#000000" stroke="none" stroke-width="1" stroke-linecap="butt" font-family="Sans Serif" font-weight="normal" text-anchor="start"><tspan x="0" dy="0">max</tspan></text></g></g></svg>