<svg version="1.1" xmlns="http://www.w3.org/2000/svg" xmlns:xlink="http://www.w3.org/1999/xlink" width="340.01802" height="289.14201" viewBox="0,0,340.01802,289.14201"><g transform="translate(-293.4745,-64.35049)"><g stroke-miterlimit="10"><path d="M294.4745,352.4925v-287.14201h338.01802v287.14201z" fill="#fcb1e3" fill-rule="nonzero" stroke="#000000" stroke-width="2" stroke-linecap="butt"/><g><path d="M346.14268,322.08378v-226.32459h234.68163v226.32459z" fill="#ffffff" fill-rule="nonzero" stroke="none" stroke-width="0" stroke-linecap="butt"/><g fill="none" fill-rule="nonzero" stroke="#000000" stroke-width="6" stroke-linecap="round"><path d="M346.14268,144.65163v-48.89243h49.68105"/><path d="M395.82376,322.08374h-49.68105v-48.89243"/><path d="M531.14325,95.75923h49.68105v48.89243"/><path d="M580.82436,273.19131v48.89248h-49.68105"/></g><path d="M540.08435,260.30715l-60.56837,-60.56837l-43.87632,43.87632l40.77639,40.77639h39.34562zM565.36101,251.72264c4.53075,4.76913 4.53075,12.39983 0,16.93058l-36.24572,36.00724c-2.14615,2.3846 -5.24602,3.57684 -8.346,3.57684h-49.36088c-3.1,0 -6.19993,-1.19224 -8.34608,-3.57684l-61.04539,-61.04539l-44.11485,-43.87632c-4.53075,-4.53075 -4.53075,-12.16145 0,-16.6921l60.8069,-60.80685c4.76913,-4.76913 12.39983,-4.76913 16.93058,0l43.87632,43.87632z" fill="#000000" fill-rule="evenodd" stroke="none" stroke-width="1" stroke-linecap="butt"/></g><text transform="translate(343.14356,344.29462) scale(0.5,0.5)" font-size="40" xml:space="preserve" fill="#00ffad" fill-rule="nonzero" stroke="#000000" stroke-width="1" stroke-linecap="butt" font-family="Sans Serif" font-weight="normal" text-anchor="start"><tspan x="0" dy="0">il vous reste 4 utilisations</tspan></text></g></g></svg>