<svg version="1.1" xmlns="http://www.w3.org/2000/svg" xmlns:xlink="http://www.w3.org/1999/xlink" width="84.99592" height="6.02777" viewBox="0,0,84.99592,6.02777"><defs><linearGradient x1="280.51593" y1="180.00001" x2="359.48408" y2="180.00001" gradientUnits="userSpaceOnUse" id="color-1"><stop offset="0" stop-color="#ff0000"/><stop offset="1" stop-color="#ff006d"/></linearGradient><linearGradient x1="356.72019" y1="180.00001" x2="362.24796" y2="180.00001" gradientUnits="userSpaceOnUse" id="color-2"><stop offset="0" stop-color="#ff0000"/><stop offset="1" stop-color="#ff006d"/></linearGradient><linearGradient x1="277.75204" y1="180.00001" x2="283.27981" y2="180.00001" gradientUnits="userSpaceOnUse" id="color-3"><stop offset="0" stop-color="#ff0000"/><stop offset="1" stop-color="#ff006d"/></linearGradient></defs><g transform="translate(-277.50204,-176.98612)"><g stroke-miterlimit="10"><g stroke="#ff0000" stroke-width="0.5" stroke-linecap="butt"><path d="M280.51593,182.7639v-5.52777h78.96815v5.52777z" fill="url(#color-1)"/><path d="M356.72019,180.00001c0,-1.52645 1.23744,-2.76388 2.76389,-2.76388c1.52645,0 2.76388,1.23743 2.76388,2.76388c0,1.52645 -1.23743,2.76388 -2.76388,2.76388c-1.52645,0 -2.76389,-1.23743 -2.76389,-2.76388z" fill="url(#color-2)"/><path d="M277.75204,180.00001c0,-1.52645 1.23743,-2.76388 2.76388,-2.76388c1.52645,0 2.76389,1.23743 2.76389,2.76388c0,1.52645 -1.23744,2.76388 -2.76389,2.76388c-1.52645,0 -2.76388,-1.23743 -2.76388,-2.76388z" fill="url(#color-3)"/></g><path d="M321.23801,179.36994" fill="none" stroke="none" stroke-width="0" stroke-linecap="round"/></g></g></svg>