<svg version="1.1" xmlns="http://www.w3.org/2000/svg" xmlns:xlink="http://www.w3.org/1999/xlink" width="85.47992" height="10.14797" viewBox="0,0,85.47992,10.14797"><defs><linearGradient x1="197.26009" y1="180.00004" x2="220.54983" y2="180.00004" gradientUnits="userSpaceOnUse" id="color-1"><stop offset="0" stop-color="#27aae1"/><stop offset="1" stop-color="#115489"/></linearGradient><linearGradient x1="198.13392" y1="180.00004" x2="219.6757" y2="180.00004" gradientUnits="userSpaceOnUse" id="color-2"><stop offset="0" stop-color="#2f7eba"/><stop offset="0.506" stop-color="#3f9dd6"/><stop offset="1" stop-color="#3e97d1"/></linearGradient><linearGradient x1="198.13411" y1="180.00004" x2="219.67591" y2="180.00004" gradientUnits="userSpaceOnUse" id="color-3"><stop offset="0" stop-color="#ffde00"/><stop offset="1" stop-color="#ff0000"/></linearGradient><linearGradient x1="198.13411" y1="180.00004" x2="219.67589" y2="180.00004" gradientUnits="userSpaceOnUse" id="color-4"><stop offset="0" stop-color="#ffcd00"/><stop offset="1" stop-color="#00ff00"/></linearGradient></defs><g transform="translate(-197.26006,-174.92601)"><g stroke="none" stroke-miterlimit="10"><path d="M282.73998,179.99991c0,2.79789 -2.27639,5.07408 -5.07408,5.07408h-75.33195c-2.79769,0 -5.07389,-2.276 -5.07389,-5.07408c0,-2.79769 2.276,-5.07389 5.07389,-5.07389h75.33195c2.79769,0 5.07408,2.27619 5.07408,5.07389z" fill="url(#color-1)"/><path d="M281.86584,179.99991c0,2.31967 -1.88027,4.20013 -4.19993,4.20013h-75.33195c-2.31967,0 -4.20013,-1.88046 -4.20013,-4.20013v0c0,-2.31947 1.88046,-4.19993 4.20013,-4.19993h75.33195c2.31967,0 4.19993,1.88046 4.19993,4.19993z" fill="url(#color-2)"/><path d="" fill="url(#color-3)"/><path d="" fill="url(#color-4)"/></g></g></svg>