<svg version="1.1" xmlns="http://www.w3.org/2000/svg" xmlns:xlink="http://www.w3.org/1999/xlink" width="33.5831" height="41.80336" viewBox="0,0,33.5831,41.80336"><g transform="translate(-302.6487,-150.33949)"><g stroke-miterlimit="10"><path d="M303.64871,191.14285v-39.80336h31.5831v39.80336z" fill="#fcb1e3" stroke="#ff0000" stroke-width="2" stroke-linecap="butt"/><text transform="translate(309.08366,187.45992) scale(0.20722,0.20722)" font-size="40" xml:space="preserve" fill="#ff0000" stroke="#000000" stroke-width="1" stroke-linecap="butt" font-family="Sans Serif" font-weight="400" text-anchor="start"><tspan x="0" dy="0">pripri</tspan></text><g stroke="#000000" stroke-width="0.25"><path d="M307.73766,169.67055v-15.88438h20.82618v15.88438z" fill="#ff0000" stroke-linecap="butt"/><path d="M312.67946,169.67055v8.82465h4.23584" fill="none" stroke-linecap="round"/><path d="M321.50412,169.67055v8.82465h4.23584" fill="none" stroke-linecap="round"/><path d="M312.79713,161.72836c0,-2.95672 2.3969,-5.35363 5.35362,-5.35363c2.95672,0 5.35362,2.3969 5.35362,5.35363c0,2.95672 -2.3969,5.35362 -5.35362,5.35362c-2.95672,0 -5.35362,-2.3969 -5.35362,-5.35362z" fill="#ff0000" stroke-linecap="butt"/><path d="M317.97426,158.25733h15.1784" fill="none" stroke-linecap="round"/><path d="M308.48709,155.94131c0,-0.84478 0.68483,-1.5296 1.52961,-1.5296c0.84478,0 1.5296,0.68483 1.5296,1.5296c0,0.84478 -0.68483,1.52961 -1.5296,1.52961c-0.84478,0 -1.52961,-0.68483 -1.52961,-1.52961z" fill="#ff0000" stroke-linecap="butt"/><path d="M309.56239,155.94131c0,-0.2509 0.2034,-0.4543 0.4543,-0.4543c0.2509,0 0.4543,0.2034 0.4543,0.4543c0,0.2509 -0.2034,0.4543 -0.4543,0.4543c-0.2509,0 -0.4543,-0.2034 -0.4543,-0.4543z" fill="#ff0000" stroke-linecap="butt"/><path d="M324.96994,155.94131c0,-0.84478 0.68483,-1.52961 1.52961,-1.52961c0.84478,0 1.5296,0.68483 1.5296,1.52961c0,0.84478 -0.68483,1.52961 -1.5296,1.52961c-0.84478,0 -1.52961,-0.68483 -1.52961,-1.52961z" fill="#ff0000" stroke-linecap="butt"/><path d="M326.04524,155.94131c0,-0.2509 0.2034,-0.4543 0.4543,-0.4543c0.2509,0 0.4543,0.2034 0.4543,0.4543c0,0.2509 -0.2034,0.4543 -0.4543,0.4543c-0.2509,0 -0.4543,-0.2034 -0.4543,-0.4543z" fill="#ff0000" stroke-linecap="butt"/><path d="M314.34308,161.86451c0,-0.2509 0.2034,-0.4543 0.4543,-0.4543c0.2509,0 0.4543,0.2034 0.4543,0.4543c0,0.2509 -0.2034,0.4543 -0.4543,0.4543c-0.2509,0 -0.4543,-0.2034 -0.4543,-0.4543z" fill="#ff0000" stroke-linecap="butt"/><path d="M321.45092,161.86451c0,-0.2509 0.2034,-0.4543 0.4543,-0.4543c0.2509,0 0.4543,0.2034 0.4543,0.4543c0,0.2509 -0.2034,0.4543 -0.4543,0.4543c-0.2509,0 -0.4543,-0.2034 -0.4543,-0.4543z" fill="#ff0000" stroke-linecap="butt"/><path d="M316.3528,161.39843c0,0 0.94823,2.11792 2.11792,2.11792c1.16969,0 2.11792,-2.11792 2.11792,-2.11792c0,0 -0.94823,2.11792 -2.11792,2.11792c-1.16969,0 -2.11792,-2.11792 -2.11792,-2.11792z" fill="#ff0000" stroke-linecap="butt"/></g></g></g></svg>