<svg version="1.1" xmlns="http://www.w3.org/2000/svg" xmlns:xlink="http://www.w3.org/1999/xlink" width="39.388" height="39.82924" viewBox="0,0,39.388,39.82924"><g transform="translate(-300.306,-160.08538)"><g stroke-miterlimit="10"><path d="M300.806,199.41462v-38.82924h38.388v38.82924z" fill="#fcb1e3" stroke="#ff0000" stroke-width="1" stroke-linecap="butt"/><g stroke-width="0.5"><path d="M302.43385,183.32299v-13.69185h35.09643v13.69185z" fill="#00ffeb" stroke="#000000" stroke-linecap="butt"/><path d="M307.65231,177.06866c0,-2.75234 2.23122,-4.98355 4.98355,-4.98355c2.75233,0 4.98356,2.23121 4.98356,4.98355c0,2.75234 -2.23122,4.98355 -4.98356,4.98355c-2.75233,0 -4.98355,-2.23122 -4.98355,-4.98355z" fill="none" stroke="#000000" stroke-linecap="butt"/><path d="M303.58702,172.76404c0,-1.02842 0.8337,-1.86212 1.86212,-1.86212c1.02842,0 1.86212,0.8337 1.86212,1.86212c0,1.02842 -0.8337,1.86212 -1.86212,1.86212c-1.02842,0 -1.86212,-0.8337 -1.86212,-1.86212z" fill="#ffffff" stroke="#000000" stroke-linecap="butt"/><path d="M304.52736,172.76404c0,-0.50908 0.4127,-0.92178 0.92178,-0.92178c0.50908,0 0.92178,0.41269 0.92178,0.92178c0,0.50908 -0.4127,0.92178 -0.92178,0.92178c-0.50908,0 -0.92178,-0.41269 -0.92178,-0.92178z" fill="#000000" stroke="none" stroke-linecap="butt"/><path d="M332.2728,172.76404c0,-1.02842 0.8337,-1.86212 1.86212,-1.86212c1.02842,0 1.86212,0.8337 1.86212,1.86212c0,1.02842 -0.8337,1.86212 -1.86212,1.86212c-1.02842,0 -1.86212,-0.8337 -1.86212,-1.86212z" fill="#ffffff" stroke="#000000" stroke-linecap="butt"/><path d="M333.21314,172.76404c0,-0.50908 0.4127,-0.92178 0.92178,-0.92178c0.50908,0 0.92178,0.41269 0.92178,0.92178c0,0.50908 -0.4127,0.92178 -0.92178,0.92178c-0.50908,0 -0.92178,-0.41269 -0.92178,-0.92178z" fill="#000000" stroke="none" stroke-linecap="butt"/><path d="M314.47296,190.36886h-4.80699v-7.04587" fill="none" stroke="#000000" stroke-linecap="round"/><path d="M335.20626,190.36886h-4.80699v-7.04587" fill="none" stroke="#000000" stroke-linecap="round"/><path d="M308.93004,177.46424c0,-0.46509 0.37703,-0.84212 0.84212,-0.84212c0.46509,0 0.84212,0.37703 0.84212,0.84212c0,0.46509 -0.37703,0.84212 -0.84212,0.84212c-0.46509,0 -0.84212,-0.37703 -0.84212,-0.84212z" fill="#000000" stroke="none" stroke-linecap="butt"/><path d="M315.02391,177.46424c0,-0.46509 0.37703,-0.84212 0.84212,-0.84212c0.46509,0 0.84212,0.37703 0.84212,0.84212c0,0.46509 -0.37703,0.84212 -0.84212,0.84212c-0.46509,0 -0.84212,-0.37703 -0.84212,-0.84212z" fill="#000000" stroke="none" stroke-linecap="butt"/><path d="M321.92089,177.06866c0,-2.75234 2.23122,-4.98355 4.98355,-4.98355c2.75233,0 4.98356,2.23121 4.98356,4.98355c0,2.75234 -2.23122,4.98355 -4.98356,4.98355c-2.75233,0 -4.98355,-2.23122 -4.98355,-4.98355z" fill="none" stroke="#000000" stroke-linecap="butt"/><path d="M326.41883,174.34299h11.14732" fill="none" stroke="#000000" stroke-linecap="round"/><path d="M323.19861,177.46424c0,-0.46509 0.37703,-0.84212 0.84212,-0.84212c0.26893,0 0.50841,0.12605 0.66258,0.3223c0.11246,0.14315 0.17954,0.32365 0.17954,0.51982c0,0.46509 -0.37703,0.84212 -0.84212,0.84212c-0.46509,0 -0.84212,-0.37703 -0.84212,-0.84212z" fill="#000000" stroke="none" stroke-linecap="butt"/><path d="M329.29249,177.46424c0,-0.46509 0.37703,-0.84212 0.84212,-0.84212c0.46509,0 0.84212,0.37703 0.84212,0.84212c0,0.46509 -0.37703,0.84212 -0.84212,0.84212c-0.46509,0 -0.84212,-0.37703 -0.84212,-0.84212z" fill="#000000" stroke="none" stroke-linecap="butt"/><path d="M321.77567,177.5313c0,1.19894 -0.83108,2.17087 -1.85625,2.17087c-1.02518,0 -1.85625,-0.97193 -1.85625,-2.17087c0,-0.60643 0.13176,-0.27357 1.95148,-0.26985c1.73526,0.00354 1.76102,-0.32267 1.76102,0.26985z" fill="#ff0000" stroke="#000000" stroke-linecap="butt"/><path d="M312.15025,174.34299h11.14732" fill="none" stroke="#000000" stroke-linecap="round"/></g></g></g></svg>