<svg version="1.1" xmlns="http://www.w3.org/2000/svg" xmlns:xlink="http://www.w3.org/1999/xlink" width="119" height="119" viewBox="0,0,119,119"><g transform="translate(-260.5,-120.5)"><g stroke="#ff0000" stroke-miterlimit="10"><path d="M261.5,160.5v-39h39v39z" fill="#4e4e4e" stroke-width="2"/><path d="M265.72727,156.27273v-30.54545h30.54545v30.54545z" fill="#8d8d8d" stroke-width="0"/><path d="M300.5,160.5v-39h39v39z" fill="#4e4e4e" stroke-width="2"/><path d="M304.72727,156.27273v-30.54545h30.54545v30.54545z" fill="#8d8d8d" stroke-width="0"/><path d="M261.5,199.5v-39h39v39z" fill="#4e4e4e" stroke-width="2"/><path d="M265.72727,195.27273v-30.54545h30.54545v30.54545z" fill="#8d8d8d" stroke-width="0"/><path d="M300.5,199.5v-39h39v39z" fill="#4e4e4e" stroke-width="2"/><path d="M304.72727,195.27273v-30.54545h30.54545v30.54545z" fill="#8d8d8d" stroke-width="0"/><path d="M339.5,160.5v-39h39v39z" fill="#4e4e4e" stroke-width="2"/><path d="M343.72727,156.27273v-30.54545h30.54545v30.54545z" fill="#8d8d8d" stroke-width="0"/><path d="M339.5,199.5v-39h39v39z" fill="#4e4e4e" stroke-width="2"/><path d="M343.72727,195.27273v-30.54545h30.54545v30.54545z" fill="#8d8d8d" stroke-width="0"/><path d="M261.5,238.5v-39h39v39z" fill="#4e4e4e" stroke-width="2"/><path d="M265.72727,234.27273v-30.54545h30.54545v30.54545z" fill="#8d8d8d" stroke-width="0"/><path d="M300.5,238.5v-39h39v39z" fill="#4e4e4e" stroke-width="2"/><path d="M304.72727,234.27273v-30.54545h30.54545v30.54545z" fill="#8d8d8d" stroke-width="0"/><path d="M339.5,238.5v-39h39v39z" fill="#4e4e4e" stroke-width="2"/><path d="M343.72727,234.27273v-30.54545h30.54545v30.54545z" fill="#8d8d8d" stroke-width="0"/></g></g></svg>