<svg version="1.1" xmlns="http://www.w3.org/2000/svg" xmlns:xlink="http://www.w3.org/1999/xlink" width="39.388" height="39.82924" viewBox="0,0,39.388,39.82924"><g transform="translate(-300.306,-160.08538)"><g stroke-miterlimit="10"><path d="M300.806,199.41462v-38.82924h38.388v38.82924z" fill="#fcb1e3" stroke="#ff0000" stroke-width="1" stroke-linecap="butt"/><path d="M310.7539,190.0344v-27.11467h15.6234v27.11467z" fill="#00fae6" stroke="#000000" stroke-width="0.5" stroke-linecap="butt"/><path d="M313.37596,183.78007c0,-2.75234 2.23122,-4.98355 4.98355,-4.98355c2.75233,0 4.98356,2.23121 4.98356,4.98355c0,2.75234 -2.23122,4.98355 -4.98356,4.98355c-2.75233,0 -4.98355,-2.23122 -4.98355,-4.98355z" fill="none" stroke="#000000" stroke-width="0.5" stroke-linecap="butt"/><path d="M311.90707,165.81772c0,-1.02842 0.8337,-1.86212 1.86212,-1.86212c1.02842,0 1.86212,0.8337 1.86212,1.86212c0,1.02842 -0.8337,1.86212 -1.86212,1.86212c-1.02842,0 -1.86212,-0.8337 -1.86212,-1.86212z" fill="#ffffff" stroke="#000000" stroke-width="0.5" stroke-linecap="butt"/><path d="M312.84741,165.81772c0,-0.50908 0.4127,-0.92178 0.92178,-0.92178c0.50908,0 0.92178,0.41269 0.92178,0.92178c0,0.50908 -0.4127,0.92178 -0.92178,0.92178c-0.50908,0 -0.92178,-0.41269 -0.92178,-0.92178z" fill="#000000" stroke="none" stroke-width="0.5" stroke-linecap="butt"/><path d="M321.84105,165.81772c0,-1.02842 0.8337,-1.86212 1.86212,-1.86212c1.02842,0 1.86212,0.8337 1.86212,1.86212c0,1.02842 -0.8337,1.86212 -1.86212,1.86212c-1.02842,0 -1.86212,-0.8337 -1.86212,-1.86212z" fill="#ffffff" stroke="#000000" stroke-width="0.5" stroke-linecap="butt"/><path d="M322.78139,165.81772c0,-0.50908 0.4127,-0.92178 0.92178,-0.92178c0.50908,0 0.92178,0.41269 0.92178,0.92178c0,0.50908 -0.4127,0.92178 -0.92178,0.92178c-0.50908,0 -0.92178,-0.41269 -0.92178,-0.92178z" fill="#000000" stroke="none" stroke-width="0.5" stroke-linecap="butt"/><path d="M317.60021,197.08027h-4.80699v-7.04587" fill="none" stroke="#000000" stroke-width="0.5" stroke-linecap="round"/><path d="M329.2461,197.08027h-4.80699v-7.04587" fill="none" stroke="#000000" stroke-width="0.5" stroke-linecap="round"/><path d="M314.65369,184.17565c0,-0.46509 0.37703,-0.84212 0.84212,-0.84212c0.46509,0 0.84212,0.37703 0.84212,0.84212c0,0.46509 -0.37703,0.84212 -0.84212,0.84212c-0.46509,0 -0.84212,-0.37703 -0.84212,-0.84212z" fill="#000000" stroke="none" stroke-width="0.5" stroke-linecap="butt"/><path d="M320.74756,184.17565c0,-0.46509 0.37703,-0.84212 0.84212,-0.84212c0.46509,0 0.84212,0.37703 0.84212,0.84212c0,0.46509 -0.37703,0.84212 -0.84212,0.84212c-0.46509,0 -0.84212,-0.37703 -0.84212,-0.84212z" fill="#000000" stroke="none" stroke-width="0.5" stroke-linecap="butt"/><path d="M320.44298,177.7517c0,1.19894 -0.83108,2.17087 -1.85625,2.17087c-1.02518,0 -1.85625,-0.97193 -1.85625,-2.17087c0,-0.53479 0.10247,-0.3391 1.3747,-0.28285c0.17042,0.00753 0.36182,0.01257 0.57679,0.01301c1.73526,0.00354 1.76102,-0.32267 1.76102,0.26985z" fill="#ff0000" stroke="#000000" stroke-width="0.5" stroke-linecap="butt"/><path d="M317.8739,181.0544h11.14732" fill="none" stroke="#000000" stroke-width="0.5" stroke-linecap="round"/><path d="M313.37596,172.81748c0,-2.75234 2.23122,-4.98355 4.98355,-4.98355c2.75233,0 4.98356,2.23121 4.98356,4.98355c0,2.75234 -2.23122,4.98355 -4.98356,4.98355c-2.75233,0 -4.98355,-2.23122 -4.98355,-4.98355z" fill="none" stroke="#000000" stroke-width="0.5" stroke-linecap="butt"/><path d="M314.65369,173.21306c0,-0.46509 0.37703,-0.84212 0.84212,-0.84212c0.46509,0 0.84212,0.37703 0.84212,0.84212c0,0.46509 -0.37703,0.84212 -0.84212,0.84212c-0.46509,0 -0.84212,-0.37703 -0.84212,-0.84212z" fill="#000000" stroke="none" stroke-width="0.5" stroke-linecap="butt"/><path d="M320.74756,173.21306c0,-0.46509 0.37703,-0.84212 0.84212,-0.84212c0.46509,0 0.84212,0.37703 0.84212,0.84212c0,0.46509 -0.37703,0.84212 -0.84212,0.84212c-0.46509,0 -0.84212,-0.37703 -0.84212,-0.84212z" fill="#000000" stroke="none" stroke-width="0.5" stroke-linecap="butt"/><path d="M317.8739,170.09181h11.14732" fill="none" stroke="#000000" stroke-width="0.5" stroke-linecap="round"/></g></g></svg>