<svg version="1.1" xmlns="http://www.w3.org/2000/svg" xmlns:xlink="http://www.w3.org/1999/xlink" width="33.5831" height="41.80336" viewBox="0,0,33.5831,41.80336"><g transform="translate(-222.69006,-150.32741)"><g stroke-miterlimit="10"><path d="M223.69006,191.13078v-39.80336h31.5831v39.80336z" fill="#fcb1e3" stroke="#ff0000" stroke-width="2"/><text transform="translate(225.30199,187.45993) scale(0.20722,0.20722)" font-size="40" xml:space="preserve" fill="#ff0000" stroke="#000000" stroke-width="1" font-family="Sans Serif" font-weight="400" text-anchor="start"><tspan x="0" dy="0">setings</tspan></text><path d="M240.9312,154.62928c0.26828,-0.0003 0.49786,0.19246 0.544,0.45674l0.57739,3.30061c0.64609,0.19055 1.26021,0.44802 1.83882,0.7659l2.71568,-1.953c0.21928,-0.15798 0.52073,-0.13381 0.71204,0.05709l2.14583,2.14475c0.18929,0.18942 0.21518,0.48743 0.0614,0.70666l-1.93469,2.75661c0.31384,0.5753 0.56722,1.18425 0.75621,1.82374l3.31353,0.54184c0.26642,0.04379 0.46199,0.274 0.46213,0.544v3.03346c0.00039,0.26793 -0.19181,0.4974 -0.45567,0.544l-3.31892,0.5817c-0.18773,0.64024 -0.44041,1.25029 -0.75406,1.82589l1.96162,2.72322c0.15798,0.21928 0.13381,0.52073 -0.05709,0.71204l-2.14475,2.1469c-0.18942,0.18929 -0.48743,0.21518 -0.70666,0.0614l-2.75122,-1.93038c-0.57838,0.31916 -1.19209,0.578 -1.83666,0.77021l-0.58493,3.30168c-0.0466,0.26385 -0.27606,0.45606 -0.544,0.45567h-3.03346c-0.26965,-0.00006 -0.49973,-0.19506 -0.544,-0.46105l-0.54615,-3.28876c-0.64724,-0.18931 -1.26386,-0.44437 -1.84528,-0.7616l-2.73291,1.91315c-0.21926,0.15289 -0.51659,0.12656 -0.70558,-0.06248l-2.14475,-2.14583c-0.19005,-0.19072 -0.21463,-0.49077 -0.05817,-0.70989l1.93038,-2.70059c-0.32076,-0.5838 -0.57792,-1.20281 -0.76914,-1.85282l-3.2726,-0.57955c-0.26342,-0.04706 -0.45507,-0.2764 -0.45459,-0.544v-3.03346c-0.00003,-0.26931 0.19441,-0.49927 0.45997,-0.544l3.27044,-0.544c0.19226,-0.65114 0.45106,-1.26972 0.77129,-1.85282l-1.90668,-2.72752c-0.15378,-0.21923 -0.12788,-0.51724 0.0614,-0.70666l2.14583,-2.14367c0.19072,-0.19005 0.49078,-0.21463 0.70989,-0.05817l2.71029,1.93577c0.57971,-0.31536 1.19483,-0.56856 1.8399,-0.75621l0.53646,-3.28445c0.04379,-0.26642 0.274,-0.46198 0.544,-0.46213zM237.85789,158.84983c-0.0355,0.21824 -0.19788,0.39419 -0.41258,0.44705c-0.80795,0.19811 -1.5707,0.5137 -2.26324,0.92964c-0.1882,0.11308 -0.42555,0.10377 -0.60432,-0.0237l-2.57133,-1.83774l-1.48764,1.48657l1.81189,2.58964c0.12519,0.17915 0.1328,0.41533 0.01939,0.60217c-0.42091,0.69652 -0.74028,1.45732 -0.94365,2.27078c-0.05329,0.21322 -0.22807,0.37446 -0.44489,0.41042l-3.10347,0.51599v2.10381l3.10563,0.55154c0.21404,0.03812 0.38573,0.19842 0.43843,0.40934c0.20163,0.81067 0.52116,1.57159 0.94365,2.26971c0.11435,0.18851 0.10545,0.42701 -0.02262,0.60648l-1.83343,2.56271l1.48657,1.48872l2.59395,-1.81727c0.17823,-0.12494 0.41328,-0.13338 0.60001,-0.02154c0.69622,0.41794 1.45721,0.73609 2.26432,0.93503c0.21364,0.05292 0.37538,0.22778 0.4115,0.44489l0.51922,3.12287h2.10381l0.55692,-3.13687c0.03795,-0.21375 0.19776,-0.38536 0.40827,-0.43843c0.8039,-0.20382 1.56226,-0.52396 2.25032,-0.94257c0.1871,-0.11388 0.42385,-0.10627 0.60324,0.01939l2.61442,1.83451l1.48549,-1.48657l-1.86359,-2.58641c-0.12875,-0.17903 -0.13849,-0.41754 -0.02478,-0.60647c0.41445,-0.6899 0.729,-1.44267 0.92749,-2.24385c0.05212,-0.21208 0.22446,-0.37343 0.43951,-0.4115l3.1541,-0.55369v-2.10058l-3.14764,-0.51491c-0.21723,-0.03556 -0.39252,-0.19688 -0.44597,-0.41042c-0.20081,-0.8022 -0.51517,-1.555 -0.92964,-2.24493c-0.1123,-0.187 -0.10386,-0.42261 0.02154,-0.60109l1.83774,-2.61873l-1.48549,-1.48549l-2.58102,1.85497c-0.17949,0.12888 -0.41857,0.13821 -0.60755,0.0237c-0.69149,-0.41862 -1.44907,-0.73725 -2.2557,-0.93826c-0.21155,-0.05302 -0.372,-0.22571 -0.40934,-0.44058l-0.54938,-3.13579h-2.10058zM243.85155,167.31464c0,2.43031 -1.98199,4.4123 -4.4123,4.4123c-2.43031,0 -4.4123,-1.98199 -4.4123,-4.4123c0,-2.43031 1.98199,-4.4123 4.4123,-4.4123c2.43031,0 4.4123,1.98199 4.4123,4.4123zM236.13003,167.31464c0,1.83417 1.47506,3.30922 3.30922,3.30922c1.83417,0 3.30922,-1.47506 3.30922,-3.30922c0,-1.83417 -1.47506,-3.30922 -3.30922,-3.30922c-1.83417,0 -3.30922,1.47506 -3.30922,3.30922z" fill="#ff0000" stroke="none" stroke-width="1"/></g></g></svg>