<svg version="1.1" xmlns="http://www.w3.org/2000/svg" xmlns:xlink="http://www.w3.org/1999/xlink" width="40.68353" height="39.82924" viewBox="0,0,40.68353,39.82924"><g transform="translate(-300.306,-160.08538)"><g stroke-miterlimit="10"><path d="M300.806,199.41462v-38.82924h38.388v38.82924z" fill="#fcb1e3" stroke="#ff0000" stroke-width="1" stroke-linecap="butt"/><path d="M302.43385,190.23179v-27.11467h35.09643v27.11467z" fill="#fa8800" stroke="#000000" stroke-width="0.5" stroke-linecap="butt"/><path d="M305.05591,183.97746c0,-2.75234 2.23122,-4.98355 4.98355,-4.98355c2.75233,0 4.98356,2.23121 4.98356,4.98355c0,2.75234 -2.23122,4.98355 -4.98356,4.98355c-2.75233,0 -4.98355,-2.23122 -4.98355,-4.98355z" fill="none" stroke="#000000" stroke-width="0.5" stroke-linecap="butt"/><path d="M303.58702,166.01511c0,-1.02842 0.8337,-1.86212 1.86212,-1.86212c1.02842,0 1.86212,0.8337 1.86212,1.86212c0,1.02842 -0.8337,1.86212 -1.86212,1.86212c-1.02842,0 -1.86212,-0.8337 -1.86212,-1.86212z" fill="#ffffff" stroke="#000000" stroke-width="0.5" stroke-linecap="butt"/><path d="M304.52736,166.01511c0,-0.50908 0.4127,-0.92178 0.92178,-0.92178c0.50908,0 0.92178,0.41269 0.92178,0.92178c0,0.50908 -0.4127,0.92178 -0.92178,0.92178c-0.50908,0 -0.92178,-0.41269 -0.92178,-0.92178z" fill="#000000" stroke="none" stroke-width="0.5" stroke-linecap="butt"/><path d="M332.2728,166.01511c0,-1.02842 0.8337,-1.86212 1.86212,-1.86212c1.02842,0 1.86212,0.8337 1.86212,1.86212c0,1.02842 -0.8337,1.86212 -1.86212,1.86212c-1.02842,0 -1.86212,-0.8337 -1.86212,-1.86212z" fill="#ffffff" stroke="#000000" stroke-width="0.5" stroke-linecap="butt"/><path d="M333.21314,166.01511c0,-0.50908 0.4127,-0.92178 0.92178,-0.92178c0.50908,0 0.92178,0.41269 0.92178,0.92178c0,0.50908 -0.4127,0.92178 -0.92178,0.92178c-0.50908,0 -0.92178,-0.41269 -0.92178,-0.92178z" fill="#000000" stroke="none" stroke-width="0.5" stroke-linecap="butt"/><path d="M314.47296,197.27766h-4.80699v-7.04587" fill="none" stroke="#000000" stroke-width="0.5" stroke-linecap="round"/><path d="M335.20626,197.27766h-4.80699v-7.04587" fill="none" stroke="#000000" stroke-width="0.5" stroke-linecap="round"/><path d="M306.33364,184.37304c0,-0.46509 0.37703,-0.84212 0.84212,-0.84212c0.46509,0 0.84212,0.37703 0.84212,0.84212c0,0.46509 -0.37703,0.84212 -0.84212,0.84212c-0.46509,0 -0.84212,-0.37703 -0.84212,-0.84212z" fill="#000000" stroke="none" stroke-width="0.5" stroke-linecap="butt"/><path d="M312.42751,184.37304c0,-0.46509 0.37703,-0.84212 0.84212,-0.84212c0.46509,0 0.84212,0.37703 0.84212,0.84212c0,0.46509 -0.37703,0.84212 -0.84212,0.84212c-0.46509,0 -0.84212,-0.37703 -0.84212,-0.84212z" fill="#000000" stroke="none" stroke-width="0.5" stroke-linecap="butt"/><path d="M323.46628,174.97899c0,2.25044 -1.55995,4.07477 -3.48422,4.07477c-1.92428,0 -3.48422,-1.82433 -3.48422,-4.07477c0,-1.00381 0.19234,-0.6365 2.58034,-0.53092c0.31988,0.01413 0.67914,0.02359 1.08265,0.02442c3.25712,0.00664 3.30547,-0.60566 3.30547,0.50651z" fill="#ff0000" stroke="#000000" stroke-width="0.5" stroke-linecap="butt"/><path d="M325.09427,183.97746c0,-2.75234 2.23122,-4.98355 4.98355,-4.98355c2.75233,0 4.98356,2.23121 4.98356,4.98355c0,2.75234 -2.23122,4.98355 -4.98356,4.98355c-2.75233,0 -4.98355,-2.23122 -4.98355,-4.98355z" fill="none" stroke="#000000" stroke-width="0.5" stroke-linecap="butt"/><path d="M329.59221,181.25179h11.14732" fill="none" stroke="#000000" stroke-width="0.5" stroke-linecap="round"/><path d="M326.37199,184.37304c0,-0.46509 0.37703,-0.84212 0.84212,-0.84212c0.26893,0 0.50841,0.12605 0.66258,0.3223c0.11246,0.14315 0.17954,0.32365 0.17954,0.51982c0,0.46509 -0.37703,0.84212 -0.84212,0.84212c-0.46509,0 -0.84212,-0.37703 -0.84212,-0.84212z" fill="#000000" stroke="none" stroke-width="0.5" stroke-linecap="butt"/><path d="M332.46587,184.37304c0,-0.46509 0.37703,-0.84212 0.84212,-0.84212c0.46509,0 0.84212,0.37703 0.84212,0.84212c0,0.46509 -0.37703,0.84212 -0.84212,0.84212c-0.46509,0 -0.84212,-0.37703 -0.84212,-0.84212z" fill="#000000" stroke="none" stroke-width="0.5" stroke-linecap="butt"/><path d="M309.55385,181.25179h11.14732" fill="none" stroke="#000000" stroke-width="0.5" stroke-linecap="round"/><path d="M305.05591,173.01487c0,-2.75234 2.23122,-4.98355 4.98355,-4.98355c2.75233,0 4.98356,2.23121 4.98356,4.98355c0,2.75234 -2.23122,4.98355 -4.98356,4.98355c-2.75233,0 -4.98355,-2.23122 -4.98355,-4.98355z" fill="none" stroke="#000000" stroke-width="0.5" stroke-linecap="butt"/><path d="M306.33364,173.41045c0,-0.46509 0.37703,-0.84212 0.84212,-0.84212c0.46509,0 0.84212,0.37703 0.84212,0.84212c0,0.46509 -0.37703,0.84212 -0.84212,0.84212c-0.46509,0 -0.84212,-0.37703 -0.84212,-0.84212z" fill="#000000" stroke="none" stroke-width="0.5" stroke-linecap="butt"/><path d="M312.42751,173.41045c0,-0.46509 0.37703,-0.84212 0.84212,-0.84212c0.46509,0 0.84212,0.37703 0.84212,0.84212c0,0.46509 -0.37703,0.84212 -0.84212,0.84212c-0.46509,0 -0.84212,-0.37703 -0.84212,-0.84212z" fill="#000000" stroke="none" stroke-width="0.5" stroke-linecap="butt"/><path d="M325.09427,173.01487c0,-2.75234 2.23122,-4.98355 4.98355,-4.98355c2.75233,0 4.98356,2.23121 4.98356,4.98355c0,2.75234 -2.23122,4.98355 -4.98356,4.98355c-2.75233,0 -4.98355,-2.23122 -4.98355,-4.98355z" fill="none" stroke="#000000" stroke-width="0.5" stroke-linecap="butt"/><path d="M329.59221,170.2892h11.14732" fill="none" stroke="#000000" stroke-width="0.5" stroke-linecap="round"/><path d="M326.37199,173.41045c0,-0.46509 0.37703,-0.84212 0.84212,-0.84212c0.26893,0 0.50841,0.12605 0.66258,0.3223c0.11246,0.14315 0.17954,0.32365 0.17954,0.51982c0,0.46509 -0.37703,0.84212 -0.84212,0.84212c-0.46509,0 -0.84212,-0.37703 -0.84212,-0.84212z" fill="#000000" stroke="none" stroke-width="0.5" stroke-linecap="butt"/><path d="M332.46587,173.41045c0,-0.46509 0.37703,-0.84212 0.84212,-0.84212c0.46509,0 0.84212,0.37703 0.84212,0.84212c0,0.46509 -0.37703,0.84212 -0.84212,0.84212c-0.46509,0 -0.84212,-0.37703 -0.84212,-0.84212z" fill="#000000" stroke="none" stroke-width="0.5" stroke-linecap="butt"/><path d="M309.55385,170.2892h11.14732" fill="none" stroke="#000000" stroke-width="0.5" stroke-linecap="round"/></g></g></svg>