<svg version="1.1" xmlns="http://www.w3.org/2000/svg" xmlns:xlink="http://www.w3.org/1999/xlink" width="59" height="59" viewBox="0,0,59,59"><g transform="translate(-290.5,-150.5)"><g stroke-miterlimit="10"><path d="M291.5,180c0,-15.74012 12.75988,-28.5 28.5,-28.5c15.74012,0 28.5,12.75988 28.5,28.5c0,15.74012 -12.75988,28.5 -28.5,28.5c-15.74012,0 -28.5,-12.75988 -28.5,-28.5z" fill="#fcb1e3" fill-rule="nonzero" stroke="#ff0000" stroke-width="2"/><path d="M332.59399,181.80629l-9.72302,-9.72302l-7.04345,7.04345l6.54582,6.54582h6.31614zM336.65165,180.42822c0.72732,0.76559 0.72732,1.99054 0,2.71786l-5.81851,5.78023c-0.34452,0.3828 -0.84214,0.57419 -1.33978,0.57419h-7.92388c-0.49764,0 -0.99527,-0.19139 -1.33979,-0.57419l-9.79959,-9.79959l-7.08174,-7.04345c-0.72732,-0.72732 -0.72732,-1.95227 0,-2.67958l9.76131,-9.7613c0.76559,-0.76559 1.99054,-0.76559 2.71786,0l7.04345,7.04345z" fill="#000000" fill-rule="evenodd" stroke="none" stroke-width="1"/><text transform="translate(305.57874,199.60492) rotate(19.39832) scale(0.31602,0.31602)" font-size="40" xml:space="preserve" fill="#ff0000" fill-rule="nonzero" stroke="none" stroke-width="1" font-family="Sans Serif" font-weight="normal" text-anchor="start"><tspan x="0" dy="0">g</tspan></text><text transform="translate(315.12467,203.45695) rotate(9.86787) scale(0.31602,0.31602)" font-size="40" xml:space="preserve" fill="#ff0000" fill-rule="nonzero" stroke="none" stroke-width="1" font-family="Sans Serif" font-weight="normal" text-anchor="start"><tspan x="0" dy="0">r</tspan></text><text transform="translate(324.87734,204.90598) rotate(-9.69543) scale(0.31602,0.31602)" font-size="40" xml:space="preserve" fill="#ff0000" fill-rule="nonzero" stroke="none" stroke-width="1" font-family="Sans Serif" font-weight="normal" text-anchor="start"><tspan x="0" dy="0">i</tspan></text><text transform="translate(330.49364,203.11229) rotate(-23.06038) scale(0.31602,0.31602)" font-size="40" xml:space="preserve" fill="#ff0000" fill-rule="nonzero" stroke="none" stroke-width="1" font-family="Sans Serif" font-weight="normal" text-anchor="start"><tspan x="0" dy="0">d</tspan></text></g></g></svg>