<svg version="1.1" xmlns="http://www.w3.org/2000/svg" xmlns:xlink="http://www.w3.org/1999/xlink" width="68.54112" height="88.38322" viewBox="0,0,68.54112,88.38322"><g transform="translate(-286.32306,-135.77993)"><g fill="#ffffff" stroke="none" stroke-miterlimit="10"><path d="M336.54404,174.1111l-16.39076,-16.39076l-11.87364,11.87364l11.03474,11.03474h10.64755zM343.38427,171.78799c1.22609,1.2906 1.22609,3.35559 0,4.58168l-9.80867,9.74414c-0.58078,0.64531 -1.41965,0.96795 -2.25855,0.96795h-13.35783c-0.8389,0 -1.6778,-0.32264 -2.25857,-0.96795l-16.51985,-16.51985l-11.93817,-11.87364c-1.22609,-1.22609 -1.22609,-3.29108 0,-4.51714l16.45532,-16.4553c1.2906,-1.2906 3.35559,-1.2906 4.58168,0l11.87364,11.87364z" fill-rule="evenodd"/><text transform="translate(291.94544,214.65918) scale(0.79674,0.79674)" font-size="40" xml:space="preserve" fill="#ffffff" fill-rule="nonzero" font-family="Sans Serif" font-weight="normal" text-anchor="start"><tspan x="0" dy="0">grid</tspan></text></g></g></svg>