<svg version="1.1" xmlns="http://www.w3.org/2000/svg" xmlns:xlink="http://www.w3.org/1999/xlink" width="33.5831" height="41.80336" viewBox="0,0,33.5831,41.80336"><g transform="translate(-302.69006,-150.32739)"><g stroke-miterlimit="10"><path d="M303.69006,191.13076v-39.80336h31.5831v39.80336z" fill="#fcb1e3" stroke="#ff0000" stroke-width="2" stroke-linecap="butt"/><text transform="translate(310.81601,187.45992) scale(0.20722,0.20722)" font-size="40" xml:space="preserve" fill="#ff0000" stroke="#000000" stroke-width="1" stroke-linecap="butt" font-family="Sans Serif" font-weight="400" text-anchor="start"><tspan x="0" dy="0">roue</tspan></text><g fill="#ff0000" stroke="#000000" stroke-width="0.25"><path d="M308.62377,168.51388c0,-6.34361 5.14252,-11.48613 11.48613,-11.48613c6.34362,0 11.48613,5.14252 11.48613,11.48613c0,6.34362 -5.14252,11.48612 -11.48613,11.48612c-6.34361,0 -11.48613,-5.14251 -11.48613,-11.48612z" stroke-linecap="butt"/><path d="M320.04331,157.06105l0.06658,11.45283" stroke-linecap="round"/><path d="M327.30121,159.72449l-7.19132,8.78939" stroke-linecap="round"/><path d="M331.56273,168.51388h-11.45283" stroke-linecap="round"/><path d="M320.1099,179.96672l0.06659,-11.45283" stroke-linecap="round"/><path d="M320.17649,168.51388l7.19131,8.78939" stroke-linecap="round"/><path d="M320.14319,157.09434l-0.06659,11.45283" stroke-linecap="round"/><path d="M320.0766,168.54717l-7.19131,-8.78939" stroke-linecap="round"/><path d="M308.69036,168.54717h11.45283" stroke-linecap="round"/><path d="M320.0766,180.00001l-0.06659,-11.45283" stroke-linecap="round"/><path d="M320.01001,168.54717l-7.19132,8.78939" stroke-linecap="round"/><path d="M322.2389,154.58626l-1.09779,3.22943l-1.09779,-3.22943z" stroke-linecap="butt"/><path d="M323.11294,159.11412c0,-0.41923 0.33986,-0.75909 0.75909,-0.75909c0.41923,0 0.75908,0.33986 0.75908,0.75909c0,0.41923 -0.33985,0.75908 -0.75908,0.75908c-0.41923,0 -0.75909,-0.33985 -0.75909,-0.75908z" stroke-linecap="butt"/><path d="M328.37325,164.0415c0,-0.41923 0.33986,-0.75908 0.75909,-0.75908c0.41923,0 0.75908,0.33985 0.75908,0.75908c0,0.41923 -0.33985,0.75908 -0.75908,0.75908c-0.41923,0 -0.75909,-0.33985 -0.75909,-0.75908z" stroke-linecap="butt"/><path d="M328.6396,172.7643c0,-0.41923 0.33986,-0.75908 0.75909,-0.75908c0.41923,0 0.75908,0.33986 0.75908,0.75908c0,0.41923 -0.33985,0.75908 -0.75908,0.75908c-0.41923,0 -0.75909,-0.33985 -0.75909,-0.75908z" stroke-linecap="butt"/><path d="M322.78001,178.0912c0,-0.41923 0.33985,-0.75908 0.75908,-0.75908c0.41923,0 0.75908,0.33985 0.75908,0.75908c0,0.41923 -0.33985,0.75909 -0.75908,0.75909c-0.41923,0 -0.75908,-0.33986 -0.75908,-0.75909z" stroke-linecap="butt"/><path d="M315.92162,178.42413c0,-0.41923 0.33985,-0.75908 0.75908,-0.75908c0.41923,0 0.75908,0.33985 0.75908,0.75908c0,0.41923 -0.33985,0.75908 -0.75908,0.75908c-0.41923,0 -0.75908,-0.33985 -0.75908,-0.75908z" stroke-linecap="butt"/><path d="M310.26179,173.09723c0,-0.41923 0.33985,-0.75908 0.75908,-0.75908c0.41923,0 0.75908,0.33985 0.75908,0.75908c0,0.41923 -0.33985,0.75908 -0.75908,0.75908c-0.41923,0 -0.75908,-0.33985 -0.75908,-0.75908z" stroke-linecap="butt"/><path d="M309.86227,164.37444c0,-0.41923 0.33985,-0.75908 0.75908,-0.75908c0.41923,0 0.75909,0.33986 0.75909,0.75908c0,0.41923 -0.33985,0.75908 -0.75909,0.75908c-0.41923,0 -0.75908,-0.33985 -0.75908,-0.75908z" stroke-linecap="butt"/><path d="M315.65528,158.91436c0,-0.41923 0.33985,-0.75908 0.75908,-0.75908c0.41923,0 0.75908,0.33986 0.75908,0.75908c0,0.41923 -0.33985,0.75908 -0.75908,0.75908c-0.41923,0 -0.75908,-0.33985 -0.75908,-0.75908z" stroke-linecap="butt"/></g></g></g></svg>