<svg version="1.1" xmlns="http://www.w3.org/2000/svg" xmlns:xlink="http://www.w3.org/1999/xlink" width="86.67337" height="83.65813" viewBox="0,0,86.67337,83.65813"><g transform="translate(-276.66332,-138.17093)"><g stroke-miterlimit="10"><g fill="none" fill-rule="nonzero" stroke="#000000" stroke-width="2" stroke-linecap="round"><path d="M277.66333,156.81136v-17.64043h17.92497"/><path d="M295.58831,220.82904h-17.92497v-17.64043"/><path d="M344.41172,139.17094h17.92497v17.64043"/><path d="M362.3367,203.18861v17.64045h-17.92497"/></g><path d="M347.63768,198.53999l-21.85313,-21.85313l-15.83062,15.83062l14.71216,14.71216h14.19594zM356.75751,195.44269c1.6347,1.72071 1.6347,4.47387 0,6.10857l-13.07749,12.99145c-0.77433,0.86037 -1.89277,1.29053 -3.01124,1.29053h-17.80945c-1.11848,0 -2.23694,-0.43016 -3.01127,-1.29053l-22.02523,-22.02523l-15.91668,-15.83062c-1.6347,-1.6347 -1.6347,-4.38786 0,-6.02253l21.93919,-21.93917c1.72071,-1.72071 4.47387,-1.72071 6.10857,0l15.83062,15.83062z" fill="#000000" fill-rule="evenodd" stroke="none" stroke-width="1" stroke-linecap="butt"/></g></g></svg>