<svg version="1.1" xmlns="http://www.w3.org/2000/svg" xmlns:xlink="http://www.w3.org/1999/xlink" width="39.388" height="39.82924" viewBox="0,0,39.388,39.82924"><g transform="translate(-300.306,-160.08538)"><g stroke-miterlimit="10"><path d="M300.806,199.41462v-38.82924h38.388v38.82924z" fill="#fcb1e3" stroke="#ff0000" stroke-width="1" stroke-linecap="butt"/><path d="M305.42455,184.87956v-20.32352h29.1509v20.32352z" fill="#00ffeb" stroke="#000000" stroke-width="1" stroke-linecap="butt"/><path d="M312.60266,174.7178c0,-4.08544 3.31191,-7.39734 7.39734,-7.39734c4.08543,0 7.39735,3.3119 7.39735,7.39734c0,4.08544 -3.31191,7.39734 -7.39735,7.39734c-4.08543,0 -7.39734,-3.31191 -7.39734,-7.39734z" fill="none" stroke="#000000" stroke-width="1" stroke-linecap="butt"/><path d="M306.56834,168.32822c0,-1.52653 1.2375,-2.76404 2.76404,-2.76404c1.52654,0 2.76404,1.2375 2.76404,2.76404c0,1.52653 -1.2375,2.76404 -2.76404,2.76404c-1.52654,0 -2.76404,-1.2375 -2.76404,-2.76404z" fill="#ffffff" stroke="#000000" stroke-width="1" stroke-linecap="butt"/><path d="M307.96413,168.32822c0,-0.75566 0.61259,-1.36825 1.36825,-1.36825c0.75566,0 1.36825,0.61258 1.36825,1.36825c0,0.75566 -0.61259,1.36824 -1.36825,1.36824c-0.75566,0 -1.36825,-0.61258 -1.36825,-1.36824z" fill="#000000" stroke="none" stroke-width="0.5" stroke-linecap="butt"/><path d="M328.16963,168.32822c0,-1.52653 1.2375,-2.76404 2.76404,-2.76404c1.52654,0 2.76404,1.2375 2.76404,2.76404c0,1.52653 -1.2375,2.76404 -2.76404,2.76404c-1.52654,0 -2.76404,-1.2375 -2.76404,-2.76404z" fill="#ffffff" stroke="#000000" stroke-width="1" stroke-linecap="butt"/><path d="M329.56542,168.32822c0,-0.75566 0.61259,-1.36824 1.36825,-1.36824c0.75566,0 1.36825,0.61258 1.36825,1.36824c0,0.75566 -0.61259,1.36825 -1.36825,1.36825c-0.75566,0 -1.36825,-0.61258 -1.36825,-1.36825z" fill="#000000" stroke="none" stroke-width="0.5" stroke-linecap="butt"/><path d="M319.16688,195.44397h-7.13527v-10.45855" fill="none" stroke="#000000" stroke-width="1" stroke-linecap="round"/><path d="M332.36223,195.44397h-7.13527v-10.45855" fill="none" stroke="#000000" stroke-width="1" stroke-linecap="round"/><path d="M319.27919,170.67194h16.54655" fill="none" stroke="#000000" stroke-width="1" stroke-linecap="round"/><path d="M314.49926,175.30498c0,-0.69036 0.55964,-1.25 1.25,-1.25c0.69036,0 1.25,0.55964 1.25,1.25c0,0.69036 -0.55964,1.25 -1.25,1.25c-0.69036,0 -1.25,-0.55964 -1.25,-1.25z" fill="#000000" stroke="none" stroke-width="0.5" stroke-linecap="butt"/><path d="M323.54471,175.30498c0,-0.69036 0.55964,-1.25 1.25,-1.25c0.69036,0 1.25,0.55964 1.25,1.25c0,0.69036 -0.55964,1.25 -1.25,1.25c-0.69036,0 -1.25,-0.55964 -1.25,-1.25z" fill="#000000" stroke="none" stroke-width="0.5" stroke-linecap="butt"/><path d="M323.0926,175.40451c0,1.77965 -1.23361,3.22234 -2.75533,3.22234c-1.52173,0 -2.75533,-1.44269 -2.75533,-3.22234c0,-0.90015 0.19558,-0.40607 2.89669,-0.40055c2.57573,0.00526 2.61398,-0.47895 2.61398,0.40055z" fill="#ff0000" stroke="#000000" stroke-width="0" stroke-linecap="butt"/></g></g></svg>