<svg version="1.1" xmlns="http://www.w3.org/2000/svg" xmlns:xlink="http://www.w3.org/1999/xlink" width="153.34141" height="98.4521" viewBox="0,0,153.34141,98.4521"><g transform="translate(-243.3293,-130.77395)"><g stroke="#ff0000" stroke-miterlimit="10"><path d="M244.3293,170.77395v-39h39v39z" fill="#8d8d8d" stroke-width="2"/><path d="M248.55657,166.54668v-30.54545h30.54545v30.54545z" fill="#c0c0c0" stroke-width="0"/><path d="M298.70605,170.77395v-39h39v39z" fill="#8d8d8d" stroke-width="2"/><path d="M302.93332,166.54668v-30.54545h30.54545v30.54545z" fill="#c0c0c0" stroke-width="0"/><path d="M356.67071,170.77395v-39h39v39z" fill="#8d8d8d" stroke-width="2"/><path d="M360.89798,166.54668v-30.54545h30.54545v30.54545z" fill="#c0c0c0" stroke-width="0"/><path d="M244.3293,228.22605v-39h39v39z" fill="#8d8d8d" stroke-width="2"/><path d="M248.55657,223.99878v-30.54545h30.54545v30.54545z" fill="#c0c0c0" stroke-width="0"/><path d="M298.70605,228.22605v-39h39v39z" fill="#8d8d8d" stroke-width="2"/><path d="M302.93332,223.99878v-30.54545h30.54545v30.54545z" fill="#c0c0c0" stroke-width="0"/><path d="M356.67071,228.22605v-39h39v39z" fill="#8d8d8d" stroke-width="2"/><path d="M360.89798,223.99878v-30.54545h30.54545v30.54545z" fill="#c0c0c0" stroke-width="0"/></g></g></svg>