<svg version="1.1" xmlns="http://www.w3.org/2000/svg" xmlns:xlink="http://www.w3.org/1999/xlink" width="29.80734" height="16.66858" viewBox="0,0,29.80734,16.66858"><g transform="translate(-305.09633,-171.66571)"><g fill="#000000" stroke-width="0" stroke-miterlimit="10"><g><path d="M313.43062,188.33429v-16.66858h13.13876v16.66858z" stroke="#000000"/><path d="M305.09633,180c0,-4.6029 3.73139,-8.33429 8.33429,-8.33429c4.6029,0 8.33429,3.73139 8.33429,8.33429c0,4.6029 -3.73139,8.33429 -8.33429,8.33429c-4.6029,0 -8.33429,-3.73139 -8.33429,-8.33429z" stroke="none"/><path d="M318.23509,180c0,-4.6029 3.73139,-8.33429 8.33429,-8.33429c4.6029,0 8.33429,3.73139 8.33429,8.33429c0,4.6029 -3.73139,8.33429 -8.33429,8.33429c-4.6029,0 -8.33429,-3.73139 -8.33429,-8.33429z" stroke="none"/></g></g></g></svg>